%TF.GenerationSoftware,KiCad,Pcbnew,9.0.1-9.0.1-0~ubuntu24.04.1*%
%TF.CreationDate,2025-05-19T08:09:32-04:00*%
%TF.ProjectId,kmcddm_v1a,6b6d6364-646d-45f7-9631-612e6b696361,rev?*%
%TF.SameCoordinates,Original*%
%TF.FileFunction,Legend,Top*%
%TF.FilePolarity,Positive*%
%FSLAX46Y46*%
G04 Gerber Fmt 4.6, Leading zero omitted, Abs format (unit mm)*
G04 Created by KiCad (PCBNEW 9.0.1-9.0.1-0~ubuntu24.04.1) date 2025-05-19 08:09:32*
%MOMM*%
%LPD*%
G01*
G04 APERTURE LIST*
%ADD10C,0.100000*%
%ADD11C,0.150000*%
%ADD12C,0.120000*%
G04 APERTURE END LIST*
D10*
X127000000Y-88929498D02*
X152019000Y-88929498D01*
X152019000Y-99978498D02*
X127000000Y-99978498D01*
X127000000Y-88929498D02*
X127000000Y-99978498D01*
X136271000Y-95377000D02*
X138049000Y-95377000D01*
X138049000Y-98679000D01*
X136271000Y-98679000D01*
X136271000Y-95377000D01*
X152019000Y-88929498D02*
X152019000Y-99978498D01*
D11*
X142481541Y-99613771D02*
X142481541Y-99013771D01*
X142481541Y-99013771D02*
X142681541Y-99442342D01*
X142681541Y-99442342D02*
X142881541Y-99013771D01*
X142881541Y-99013771D02*
X142881541Y-99613771D01*
X143138683Y-99442342D02*
X143424398Y-99442342D01*
X143081540Y-99613771D02*
X143281540Y-99013771D01*
X143281540Y-99013771D02*
X143481540Y-99613771D01*
X143795826Y-99328057D02*
X143795826Y-99613771D01*
X143595826Y-99013771D02*
X143795826Y-99328057D01*
X143795826Y-99328057D02*
X143995826Y-99013771D01*
X144624398Y-99070914D02*
X144652970Y-99042342D01*
X144652970Y-99042342D02*
X144710113Y-99013771D01*
X144710113Y-99013771D02*
X144852970Y-99013771D01*
X144852970Y-99013771D02*
X144910113Y-99042342D01*
X144910113Y-99042342D02*
X144938684Y-99070914D01*
X144938684Y-99070914D02*
X144967255Y-99128057D01*
X144967255Y-99128057D02*
X144967255Y-99185200D01*
X144967255Y-99185200D02*
X144938684Y-99270914D01*
X144938684Y-99270914D02*
X144595827Y-99613771D01*
X144595827Y-99613771D02*
X144967255Y-99613771D01*
X145338684Y-99013771D02*
X145395827Y-99013771D01*
X145395827Y-99013771D02*
X145452970Y-99042342D01*
X145452970Y-99042342D02*
X145481542Y-99070914D01*
X145481542Y-99070914D02*
X145510113Y-99128057D01*
X145510113Y-99128057D02*
X145538684Y-99242342D01*
X145538684Y-99242342D02*
X145538684Y-99385200D01*
X145538684Y-99385200D02*
X145510113Y-99499485D01*
X145510113Y-99499485D02*
X145481542Y-99556628D01*
X145481542Y-99556628D02*
X145452970Y-99585200D01*
X145452970Y-99585200D02*
X145395827Y-99613771D01*
X145395827Y-99613771D02*
X145338684Y-99613771D01*
X145338684Y-99613771D02*
X145281542Y-99585200D01*
X145281542Y-99585200D02*
X145252970Y-99556628D01*
X145252970Y-99556628D02*
X145224399Y-99499485D01*
X145224399Y-99499485D02*
X145195827Y-99385200D01*
X145195827Y-99385200D02*
X145195827Y-99242342D01*
X145195827Y-99242342D02*
X145224399Y-99128057D01*
X145224399Y-99128057D02*
X145252970Y-99070914D01*
X145252970Y-99070914D02*
X145281542Y-99042342D01*
X145281542Y-99042342D02*
X145338684Y-99013771D01*
X145767256Y-99070914D02*
X145795828Y-99042342D01*
X145795828Y-99042342D02*
X145852971Y-99013771D01*
X145852971Y-99013771D02*
X145995828Y-99013771D01*
X145995828Y-99013771D02*
X146052971Y-99042342D01*
X146052971Y-99042342D02*
X146081542Y-99070914D01*
X146081542Y-99070914D02*
X146110113Y-99128057D01*
X146110113Y-99128057D02*
X146110113Y-99185200D01*
X146110113Y-99185200D02*
X146081542Y-99270914D01*
X146081542Y-99270914D02*
X145738685Y-99613771D01*
X145738685Y-99613771D02*
X146110113Y-99613771D01*
X146652971Y-99013771D02*
X146367257Y-99013771D01*
X146367257Y-99013771D02*
X146338685Y-99299485D01*
X146338685Y-99299485D02*
X146367257Y-99270914D01*
X146367257Y-99270914D02*
X146424400Y-99242342D01*
X146424400Y-99242342D02*
X146567257Y-99242342D01*
X146567257Y-99242342D02*
X146624400Y-99270914D01*
X146624400Y-99270914D02*
X146652971Y-99299485D01*
X146652971Y-99299485D02*
X146681542Y-99356628D01*
X146681542Y-99356628D02*
X146681542Y-99499485D01*
X146681542Y-99499485D02*
X146652971Y-99556628D01*
X146652971Y-99556628D02*
X146624400Y-99585200D01*
X146624400Y-99585200D02*
X146567257Y-99613771D01*
X146567257Y-99613771D02*
X146424400Y-99613771D01*
X146424400Y-99613771D02*
X146367257Y-99585200D01*
X146367257Y-99585200D02*
X146338685Y-99556628D01*
X130543541Y-99613771D02*
X130543541Y-99013771D01*
X130886398Y-99613771D02*
X130629255Y-99270914D01*
X130886398Y-99013771D02*
X130543541Y-99356628D01*
X131143541Y-99613771D02*
X131143541Y-99013771D01*
X131143541Y-99013771D02*
X131343541Y-99442342D01*
X131343541Y-99442342D02*
X131543541Y-99013771D01*
X131543541Y-99013771D02*
X131543541Y-99613771D01*
X132172112Y-99556628D02*
X132143540Y-99585200D01*
X132143540Y-99585200D02*
X132057826Y-99613771D01*
X132057826Y-99613771D02*
X132000683Y-99613771D01*
X132000683Y-99613771D02*
X131914969Y-99585200D01*
X131914969Y-99585200D02*
X131857826Y-99528057D01*
X131857826Y-99528057D02*
X131829255Y-99470914D01*
X131829255Y-99470914D02*
X131800683Y-99356628D01*
X131800683Y-99356628D02*
X131800683Y-99270914D01*
X131800683Y-99270914D02*
X131829255Y-99156628D01*
X131829255Y-99156628D02*
X131857826Y-99099485D01*
X131857826Y-99099485D02*
X131914969Y-99042342D01*
X131914969Y-99042342D02*
X132000683Y-99013771D01*
X132000683Y-99013771D02*
X132057826Y-99013771D01*
X132057826Y-99013771D02*
X132143540Y-99042342D01*
X132143540Y-99042342D02*
X132172112Y-99070914D01*
X132429255Y-99385200D02*
X132886398Y-99385200D01*
X133172112Y-99299485D02*
X133372112Y-99299485D01*
X133457826Y-99613771D02*
X133172112Y-99613771D01*
X133172112Y-99613771D02*
X133172112Y-99013771D01*
X133172112Y-99013771D02*
X133457826Y-99013771D01*
X133714969Y-99299485D02*
X133914969Y-99299485D01*
X134000683Y-99613771D02*
X133714969Y-99613771D01*
X133714969Y-99613771D02*
X133714969Y-99013771D01*
X133714969Y-99013771D02*
X134000683Y-99013771D01*
X134257826Y-99385200D02*
X134714969Y-99385200D01*
X135000683Y-99613771D02*
X135000683Y-99013771D01*
X135000683Y-99013771D02*
X135143540Y-99013771D01*
X135143540Y-99013771D02*
X135229254Y-99042342D01*
X135229254Y-99042342D02*
X135286397Y-99099485D01*
X135286397Y-99099485D02*
X135314968Y-99156628D01*
X135314968Y-99156628D02*
X135343540Y-99270914D01*
X135343540Y-99270914D02*
X135343540Y-99356628D01*
X135343540Y-99356628D02*
X135314968Y-99470914D01*
X135314968Y-99470914D02*
X135286397Y-99528057D01*
X135286397Y-99528057D02*
X135229254Y-99585200D01*
X135229254Y-99585200D02*
X135143540Y-99613771D01*
X135143540Y-99613771D02*
X135000683Y-99613771D01*
X135600683Y-99299485D02*
X135800683Y-99299485D01*
X135886397Y-99613771D02*
X135600683Y-99613771D01*
X135600683Y-99613771D02*
X135600683Y-99013771D01*
X135600683Y-99013771D02*
X135886397Y-99013771D01*
X136143540Y-99613771D02*
X136143540Y-99013771D01*
X136143540Y-99013771D02*
X136372111Y-99013771D01*
X136372111Y-99013771D02*
X136429254Y-99042342D01*
X136429254Y-99042342D02*
X136457825Y-99070914D01*
X136457825Y-99070914D02*
X136486397Y-99128057D01*
X136486397Y-99128057D02*
X136486397Y-99213771D01*
X136486397Y-99213771D02*
X136457825Y-99270914D01*
X136457825Y-99270914D02*
X136429254Y-99299485D01*
X136429254Y-99299485D02*
X136372111Y-99328057D01*
X136372111Y-99328057D02*
X136143540Y-99328057D01*
X136714968Y-99442342D02*
X137000683Y-99442342D01*
X136657825Y-99613771D02*
X136857825Y-99013771D01*
X136857825Y-99013771D02*
X137057825Y-99613771D01*
X137600683Y-99613771D02*
X137400683Y-99328057D01*
X137257826Y-99613771D02*
X137257826Y-99013771D01*
X137257826Y-99013771D02*
X137486397Y-99013771D01*
X137486397Y-99013771D02*
X137543540Y-99042342D01*
X137543540Y-99042342D02*
X137572111Y-99070914D01*
X137572111Y-99070914D02*
X137600683Y-99128057D01*
X137600683Y-99128057D02*
X137600683Y-99213771D01*
X137600683Y-99213771D02*
X137572111Y-99270914D01*
X137572111Y-99270914D02*
X137543540Y-99299485D01*
X137543540Y-99299485D02*
X137486397Y-99328057D01*
X137486397Y-99328057D02*
X137257826Y-99328057D01*
X137772111Y-99013771D02*
X138114969Y-99013771D01*
X137943540Y-99613771D02*
X137943540Y-99013771D01*
X138314969Y-99613771D02*
X138314969Y-99013771D01*
X138314969Y-99013771D02*
X138514969Y-99442342D01*
X138514969Y-99442342D02*
X138714969Y-99013771D01*
X138714969Y-99013771D02*
X138714969Y-99613771D01*
X139000683Y-99299485D02*
X139200683Y-99299485D01*
X139286397Y-99613771D02*
X139000683Y-99613771D01*
X139000683Y-99613771D02*
X139000683Y-99013771D01*
X139000683Y-99013771D02*
X139286397Y-99013771D01*
X139543540Y-99613771D02*
X139543540Y-99013771D01*
X139543540Y-99013771D02*
X139886397Y-99613771D01*
X139886397Y-99613771D02*
X139886397Y-99013771D01*
X140086396Y-99013771D02*
X140429254Y-99013771D01*
X140257825Y-99613771D02*
X140257825Y-99013771D01*
X130289541Y-90850771D02*
X130289541Y-90250771D01*
X130632398Y-90850771D02*
X130375255Y-90507914D01*
X130632398Y-90250771D02*
X130289541Y-90593628D01*
X130889541Y-90850771D02*
X130889541Y-90250771D01*
X130889541Y-90250771D02*
X131089541Y-90679342D01*
X131089541Y-90679342D02*
X131289541Y-90250771D01*
X131289541Y-90250771D02*
X131289541Y-90850771D01*
X131918112Y-90793628D02*
X131889540Y-90822200D01*
X131889540Y-90822200D02*
X131803826Y-90850771D01*
X131803826Y-90850771D02*
X131746683Y-90850771D01*
X131746683Y-90850771D02*
X131660969Y-90822200D01*
X131660969Y-90822200D02*
X131603826Y-90765057D01*
X131603826Y-90765057D02*
X131575255Y-90707914D01*
X131575255Y-90707914D02*
X131546683Y-90593628D01*
X131546683Y-90593628D02*
X131546683Y-90507914D01*
X131546683Y-90507914D02*
X131575255Y-90393628D01*
X131575255Y-90393628D02*
X131603826Y-90336485D01*
X131603826Y-90336485D02*
X131660969Y-90279342D01*
X131660969Y-90279342D02*
X131746683Y-90250771D01*
X131746683Y-90250771D02*
X131803826Y-90250771D01*
X131803826Y-90250771D02*
X131889540Y-90279342D01*
X131889540Y-90279342D02*
X131918112Y-90307914D01*
X132175255Y-90850771D02*
X132175255Y-90250771D01*
X132175255Y-90250771D02*
X132318112Y-90250771D01*
X132318112Y-90250771D02*
X132403826Y-90279342D01*
X132403826Y-90279342D02*
X132460969Y-90336485D01*
X132460969Y-90336485D02*
X132489540Y-90393628D01*
X132489540Y-90393628D02*
X132518112Y-90507914D01*
X132518112Y-90507914D02*
X132518112Y-90593628D01*
X132518112Y-90593628D02*
X132489540Y-90707914D01*
X132489540Y-90707914D02*
X132460969Y-90765057D01*
X132460969Y-90765057D02*
X132403826Y-90822200D01*
X132403826Y-90822200D02*
X132318112Y-90850771D01*
X132318112Y-90850771D02*
X132175255Y-90850771D01*
X132775255Y-90850771D02*
X132775255Y-90250771D01*
X132775255Y-90250771D02*
X132918112Y-90250771D01*
X132918112Y-90250771D02*
X133003826Y-90279342D01*
X133003826Y-90279342D02*
X133060969Y-90336485D01*
X133060969Y-90336485D02*
X133089540Y-90393628D01*
X133089540Y-90393628D02*
X133118112Y-90507914D01*
X133118112Y-90507914D02*
X133118112Y-90593628D01*
X133118112Y-90593628D02*
X133089540Y-90707914D01*
X133089540Y-90707914D02*
X133060969Y-90765057D01*
X133060969Y-90765057D02*
X133003826Y-90822200D01*
X133003826Y-90822200D02*
X132918112Y-90850771D01*
X132918112Y-90850771D02*
X132775255Y-90850771D01*
X133375255Y-90850771D02*
X133375255Y-90250771D01*
X133375255Y-90250771D02*
X133575255Y-90679342D01*
X133575255Y-90679342D02*
X133775255Y-90250771D01*
X133775255Y-90250771D02*
X133775255Y-90850771D01*
X133918112Y-90907914D02*
X134375254Y-90907914D01*
X134432397Y-90250771D02*
X134632397Y-90850771D01*
X134632397Y-90850771D02*
X134832397Y-90250771D01*
X135346683Y-90850771D02*
X135003826Y-90850771D01*
X135175255Y-90850771D02*
X135175255Y-90250771D01*
X135175255Y-90250771D02*
X135118112Y-90336485D01*
X135118112Y-90336485D02*
X135060969Y-90393628D01*
X135060969Y-90393628D02*
X135003826Y-90422200D01*
X135575255Y-90679342D02*
X135860970Y-90679342D01*
X135518112Y-90850771D02*
X135718112Y-90250771D01*
X135718112Y-90250771D02*
X135918112Y-90850771D01*
X141049640Y-94582061D02*
X141049640Y-94622467D01*
X141049640Y-94622467D02*
X141009234Y-94703279D01*
X141009234Y-94703279D02*
X140968828Y-94743685D01*
X140968828Y-94743685D02*
X140888016Y-94784092D01*
X140888016Y-94784092D02*
X140807204Y-94784092D01*
X140807204Y-94784092D02*
X140746594Y-94763889D01*
X140746594Y-94763889D02*
X140645579Y-94703279D01*
X140645579Y-94703279D02*
X140584970Y-94642670D01*
X140584970Y-94642670D02*
X140524361Y-94541655D01*
X140524361Y-94541655D02*
X140504158Y-94481046D01*
X140504158Y-94481046D02*
X140504158Y-94400234D01*
X140504158Y-94400234D02*
X140544564Y-94319421D01*
X140544564Y-94319421D02*
X140584970Y-94279015D01*
X140584970Y-94279015D02*
X140665782Y-94238609D01*
X140665782Y-94238609D02*
X140706188Y-94238609D01*
X141029437Y-93834548D02*
X140948625Y-93915360D01*
X140948625Y-93915360D02*
X140928422Y-93975970D01*
X140928422Y-93975970D02*
X140928422Y-94016376D01*
X140928422Y-94016376D02*
X140948625Y-94117391D01*
X140948625Y-94117391D02*
X141009234Y-94218406D01*
X141009234Y-94218406D02*
X141170858Y-94380031D01*
X141170858Y-94380031D02*
X141231468Y-94400234D01*
X141231468Y-94400234D02*
X141271874Y-94400234D01*
X141271874Y-94400234D02*
X141332483Y-94380031D01*
X141332483Y-94380031D02*
X141413295Y-94299218D01*
X141413295Y-94299218D02*
X141433498Y-94238609D01*
X141433498Y-94238609D02*
X141433498Y-94198203D01*
X141433498Y-94198203D02*
X141413295Y-94137594D01*
X141413295Y-94137594D02*
X141312280Y-94036579D01*
X141312280Y-94036579D02*
X141251671Y-94016376D01*
X141251671Y-94016376D02*
X141211265Y-94016376D01*
X141211265Y-94016376D02*
X141150655Y-94036579D01*
X141150655Y-94036579D02*
X141069843Y-94117391D01*
X141069843Y-94117391D02*
X141049640Y-94178000D01*
X141049640Y-94178000D02*
X141049640Y-94218406D01*
X141049640Y-94218406D02*
X141069843Y-94279015D01*
X140743000Y-91201771D02*
X140457286Y-91201771D01*
X140457286Y-91201771D02*
X140457286Y-90601771D01*
X141257285Y-91201771D02*
X140914428Y-91201771D01*
X141085857Y-91201771D02*
X141085857Y-90601771D01*
X141085857Y-90601771D02*
X141028714Y-90687485D01*
X141028714Y-90687485D02*
X140971571Y-90744628D01*
X140971571Y-90744628D02*
X140914428Y-90773200D01*
X151526771Y-91550999D02*
X150926771Y-91550999D01*
X150926771Y-91550999D02*
X150926771Y-91322428D01*
X150926771Y-91322428D02*
X150955342Y-91265285D01*
X150955342Y-91265285D02*
X150983914Y-91236714D01*
X150983914Y-91236714D02*
X151041057Y-91208142D01*
X151041057Y-91208142D02*
X151126771Y-91208142D01*
X151126771Y-91208142D02*
X151183914Y-91236714D01*
X151183914Y-91236714D02*
X151212485Y-91265285D01*
X151212485Y-91265285D02*
X151241057Y-91322428D01*
X151241057Y-91322428D02*
X151241057Y-91550999D01*
X150926771Y-90836714D02*
X150926771Y-90722428D01*
X150926771Y-90722428D02*
X150955342Y-90665285D01*
X150955342Y-90665285D02*
X151012485Y-90608142D01*
X151012485Y-90608142D02*
X151126771Y-90579571D01*
X151126771Y-90579571D02*
X151326771Y-90579571D01*
X151326771Y-90579571D02*
X151441057Y-90608142D01*
X151441057Y-90608142D02*
X151498200Y-90665285D01*
X151498200Y-90665285D02*
X151526771Y-90722428D01*
X151526771Y-90722428D02*
X151526771Y-90836714D01*
X151526771Y-90836714D02*
X151498200Y-90893857D01*
X151498200Y-90893857D02*
X151441057Y-90950999D01*
X151441057Y-90950999D02*
X151326771Y-90979571D01*
X151326771Y-90979571D02*
X151126771Y-90979571D01*
X151126771Y-90979571D02*
X151012485Y-90950999D01*
X151012485Y-90950999D02*
X150955342Y-90893857D01*
X150955342Y-90893857D02*
X150926771Y-90836714D01*
X151526771Y-89979571D02*
X151241057Y-90179571D01*
X151526771Y-90322428D02*
X150926771Y-90322428D01*
X150926771Y-90322428D02*
X150926771Y-90093857D01*
X150926771Y-90093857D02*
X150955342Y-90036714D01*
X150955342Y-90036714D02*
X150983914Y-90008143D01*
X150983914Y-90008143D02*
X151041057Y-89979571D01*
X151041057Y-89979571D02*
X151126771Y-89979571D01*
X151126771Y-89979571D02*
X151183914Y-90008143D01*
X151183914Y-90008143D02*
X151212485Y-90036714D01*
X151212485Y-90036714D02*
X151241057Y-90093857D01*
X151241057Y-90093857D02*
X151241057Y-90322428D01*
X150926771Y-89808143D02*
X150926771Y-89465286D01*
X151526771Y-89636714D02*
X150926771Y-89636714D01*
X146242143Y-95900771D02*
X146242143Y-95300771D01*
X146242143Y-95300771D02*
X146385000Y-95300771D01*
X146385000Y-95300771D02*
X146470714Y-95329342D01*
X146470714Y-95329342D02*
X146527857Y-95386485D01*
X146527857Y-95386485D02*
X146556428Y-95443628D01*
X146556428Y-95443628D02*
X146585000Y-95557914D01*
X146585000Y-95557914D02*
X146585000Y-95643628D01*
X146585000Y-95643628D02*
X146556428Y-95757914D01*
X146556428Y-95757914D02*
X146527857Y-95815057D01*
X146527857Y-95815057D02*
X146470714Y-95872200D01*
X146470714Y-95872200D02*
X146385000Y-95900771D01*
X146385000Y-95900771D02*
X146242143Y-95900771D01*
X147099286Y-95500771D02*
X147099286Y-95900771D01*
X146956428Y-95272200D02*
X146813571Y-95700771D01*
X146813571Y-95700771D02*
X147185000Y-95700771D01*
X137187000Y-92414628D02*
X137158428Y-92443200D01*
X137158428Y-92443200D02*
X137072714Y-92471771D01*
X137072714Y-92471771D02*
X137015571Y-92471771D01*
X137015571Y-92471771D02*
X136929857Y-92443200D01*
X136929857Y-92443200D02*
X136872714Y-92386057D01*
X136872714Y-92386057D02*
X136844143Y-92328914D01*
X136844143Y-92328914D02*
X136815571Y-92214628D01*
X136815571Y-92214628D02*
X136815571Y-92128914D01*
X136815571Y-92128914D02*
X136844143Y-92014628D01*
X136844143Y-92014628D02*
X136872714Y-91957485D01*
X136872714Y-91957485D02*
X136929857Y-91900342D01*
X136929857Y-91900342D02*
X137015571Y-91871771D01*
X137015571Y-91871771D02*
X137072714Y-91871771D01*
X137072714Y-91871771D02*
X137158428Y-91900342D01*
X137158428Y-91900342D02*
X137187000Y-91928914D01*
X137529857Y-92128914D02*
X137472714Y-92100342D01*
X137472714Y-92100342D02*
X137444143Y-92071771D01*
X137444143Y-92071771D02*
X137415571Y-92014628D01*
X137415571Y-92014628D02*
X137415571Y-91986057D01*
X137415571Y-91986057D02*
X137444143Y-91928914D01*
X137444143Y-91928914D02*
X137472714Y-91900342D01*
X137472714Y-91900342D02*
X137529857Y-91871771D01*
X137529857Y-91871771D02*
X137644143Y-91871771D01*
X137644143Y-91871771D02*
X137701286Y-91900342D01*
X137701286Y-91900342D02*
X137729857Y-91928914D01*
X137729857Y-91928914D02*
X137758428Y-91986057D01*
X137758428Y-91986057D02*
X137758428Y-92014628D01*
X137758428Y-92014628D02*
X137729857Y-92071771D01*
X137729857Y-92071771D02*
X137701286Y-92100342D01*
X137701286Y-92100342D02*
X137644143Y-92128914D01*
X137644143Y-92128914D02*
X137529857Y-92128914D01*
X137529857Y-92128914D02*
X137472714Y-92157485D01*
X137472714Y-92157485D02*
X137444143Y-92186057D01*
X137444143Y-92186057D02*
X137415571Y-92243200D01*
X137415571Y-92243200D02*
X137415571Y-92357485D01*
X137415571Y-92357485D02*
X137444143Y-92414628D01*
X137444143Y-92414628D02*
X137472714Y-92443200D01*
X137472714Y-92443200D02*
X137529857Y-92471771D01*
X137529857Y-92471771D02*
X137644143Y-92471771D01*
X137644143Y-92471771D02*
X137701286Y-92443200D01*
X137701286Y-92443200D02*
X137729857Y-92414628D01*
X137729857Y-92414628D02*
X137758428Y-92357485D01*
X137758428Y-92357485D02*
X137758428Y-92243200D01*
X137758428Y-92243200D02*
X137729857Y-92186057D01*
X137729857Y-92186057D02*
X137701286Y-92157485D01*
X137701286Y-92157485D02*
X137644143Y-92128914D01*
X139092000Y-94192628D02*
X139063428Y-94221200D01*
X139063428Y-94221200D02*
X138977714Y-94249771D01*
X138977714Y-94249771D02*
X138920571Y-94249771D01*
X138920571Y-94249771D02*
X138834857Y-94221200D01*
X138834857Y-94221200D02*
X138777714Y-94164057D01*
X138777714Y-94164057D02*
X138749143Y-94106914D01*
X138749143Y-94106914D02*
X138720571Y-93992628D01*
X138720571Y-93992628D02*
X138720571Y-93906914D01*
X138720571Y-93906914D02*
X138749143Y-93792628D01*
X138749143Y-93792628D02*
X138777714Y-93735485D01*
X138777714Y-93735485D02*
X138834857Y-93678342D01*
X138834857Y-93678342D02*
X138920571Y-93649771D01*
X138920571Y-93649771D02*
X138977714Y-93649771D01*
X138977714Y-93649771D02*
X139063428Y-93678342D01*
X139063428Y-93678342D02*
X139092000Y-93706914D01*
X139292000Y-93649771D02*
X139692000Y-93649771D01*
X139692000Y-93649771D02*
X139434857Y-94249771D01*
X129936771Y-94921784D02*
X129936771Y-95207498D01*
X129936771Y-95207498D02*
X129336771Y-95207498D01*
X129936771Y-94721784D02*
X129336771Y-94721784D01*
X129336771Y-94721784D02*
X129336771Y-94578927D01*
X129336771Y-94578927D02*
X129365342Y-94493213D01*
X129365342Y-94493213D02*
X129422485Y-94436070D01*
X129422485Y-94436070D02*
X129479628Y-94407499D01*
X129479628Y-94407499D02*
X129593914Y-94378927D01*
X129593914Y-94378927D02*
X129679628Y-94378927D01*
X129679628Y-94378927D02*
X129793914Y-94407499D01*
X129793914Y-94407499D02*
X129851057Y-94436070D01*
X129851057Y-94436070D02*
X129908200Y-94493213D01*
X129908200Y-94493213D02*
X129936771Y-94578927D01*
X129936771Y-94578927D02*
X129936771Y-94721784D01*
X129936771Y-93778927D02*
X129651057Y-93978927D01*
X129936771Y-94121784D02*
X129336771Y-94121784D01*
X129336771Y-94121784D02*
X129336771Y-93893213D01*
X129336771Y-93893213D02*
X129365342Y-93836070D01*
X129365342Y-93836070D02*
X129393914Y-93807499D01*
X129393914Y-93807499D02*
X129451057Y-93778927D01*
X129451057Y-93778927D02*
X129536771Y-93778927D01*
X129536771Y-93778927D02*
X129593914Y-93807499D01*
X129593914Y-93807499D02*
X129622485Y-93836070D01*
X129622485Y-93836070D02*
X129651057Y-93893213D01*
X129651057Y-93893213D02*
X129651057Y-94121784D01*
X145596000Y-90887485D02*
X145396000Y-90887485D01*
X145396000Y-91201771D02*
X145396000Y-90601771D01*
X145396000Y-90601771D02*
X145681714Y-90601771D01*
X146224571Y-91201771D02*
X145881714Y-91201771D01*
X146053143Y-91201771D02*
X146053143Y-90601771D01*
X146053143Y-90601771D02*
X145996000Y-90687485D01*
X145996000Y-90687485D02*
X145938857Y-90744628D01*
X145938857Y-90744628D02*
X145881714Y-90773200D01*
X132992857Y-95392771D02*
X132792857Y-95107057D01*
X132650000Y-95392771D02*
X132650000Y-94792771D01*
X132650000Y-94792771D02*
X132878571Y-94792771D01*
X132878571Y-94792771D02*
X132935714Y-94821342D01*
X132935714Y-94821342D02*
X132964285Y-94849914D01*
X132964285Y-94849914D02*
X132992857Y-94907057D01*
X132992857Y-94907057D02*
X132992857Y-94992771D01*
X132992857Y-94992771D02*
X132964285Y-95049914D01*
X132964285Y-95049914D02*
X132935714Y-95078485D01*
X132935714Y-95078485D02*
X132878571Y-95107057D01*
X132878571Y-95107057D02*
X132650000Y-95107057D01*
X133164285Y-94792771D02*
X133364285Y-95392771D01*
X133364285Y-95392771D02*
X133564285Y-94792771D01*
X133735714Y-94849914D02*
X133764286Y-94821342D01*
X133764286Y-94821342D02*
X133821429Y-94792771D01*
X133821429Y-94792771D02*
X133964286Y-94792771D01*
X133964286Y-94792771D02*
X134021429Y-94821342D01*
X134021429Y-94821342D02*
X134050000Y-94849914D01*
X134050000Y-94849914D02*
X134078571Y-94907057D01*
X134078571Y-94907057D02*
X134078571Y-94964200D01*
X134078571Y-94964200D02*
X134050000Y-95049914D01*
X134050000Y-95049914D02*
X133707143Y-95392771D01*
X133707143Y-95392771D02*
X134078571Y-95392771D01*
D12*
%TO.C,C6*%
X140107000Y-94403438D02*
X140107000Y-97859001D01*
X140107000Y-97859001D02*
X141307000Y-97859001D01*
X141171437Y-93339001D02*
X140107000Y-94403438D01*
X141171437Y-93339001D02*
X141307000Y-93339001D01*
X143562563Y-93339001D02*
X143427000Y-93339001D01*
X143562563Y-93339001D02*
X144627000Y-94403438D01*
X143927000Y-92599001D02*
X143927001Y-93099001D01*
X144177000Y-92849001D02*
X143677000Y-92849001D01*
X144627000Y-94403438D02*
X144627000Y-97859001D01*
X144627000Y-97859001D02*
X143427000Y-97859001D01*
%TO.C,R14*%
X138669500Y-97122277D02*
X138669500Y-97631725D01*
X139714500Y-97122277D02*
X139714500Y-97631725D01*
%TO.C,L1*%
X141445064Y-89990001D02*
X140240936Y-89990001D01*
X141445064Y-91810001D02*
X140240936Y-91810001D01*
%TO.C,R15*%
X136779999Y-96828380D02*
X136779999Y-97163622D01*
X137540001Y-96828380D02*
X137540001Y-97163622D01*
%TO.C,J1*%
X148369000Y-89314000D02*
X149479000Y-89314000D01*
X148369000Y-90424000D02*
X148369000Y-89314000D01*
X148369000Y-91424000D02*
X148369000Y-95534000D01*
X148369000Y-91424000D02*
X150589000Y-91424000D01*
X148369000Y-95534000D02*
X150589000Y-95534000D01*
X150589000Y-91424000D02*
X150589000Y-95534000D01*
%TO.C,D4*%
X144908000Y-92089001D02*
X144908000Y-97599001D01*
X148208000Y-92089001D02*
X144908000Y-92089001D01*
X148208000Y-92089001D02*
X148208000Y-97599001D01*
%TO.C,C8*%
X136377000Y-91490748D02*
X136377000Y-92913252D01*
X138197000Y-91490748D02*
X138197000Y-92913252D01*
%TO.C,C7*%
X138682000Y-93801734D02*
X138682000Y-94094268D01*
X139702000Y-93801734D02*
X139702000Y-94094268D01*
%TO.C,D1*%
X130166000Y-96632499D02*
X130166000Y-92382499D01*
X130166000Y-96632499D02*
G75*
G02*
X130161163Y-92388743I-1650000J2120000D01*
G01*
%TO.C,F1*%
X146398064Y-89990001D02*
X145193936Y-89990001D01*
X146398064Y-91810001D02*
X145193936Y-91810001D01*
%TO.C,RV2*%
X130990000Y-92128000D02*
X130990000Y-96848000D01*
X130990000Y-92128000D02*
X131320000Y-92128000D01*
X130990000Y-96848000D02*
X132120000Y-96848000D01*
X133080000Y-92128000D02*
X133620000Y-92128000D01*
X134580000Y-96848000D02*
X135710000Y-96848000D01*
X135380000Y-92128000D02*
X135710000Y-92128000D01*
X135710000Y-92128000D02*
X135710000Y-96848000D01*
%TD*%
M02*
