%TF.GenerationSoftware,KiCad,Pcbnew,9.0.1-9.0.1-0~ubuntu24.04.1*%
%TF.CreationDate,2025-05-19T08:09:30-04:00*%
%TF.ProjectId,kmcddm_v1a,6b6d6364-646d-45f7-9631-612e6b696361,rev?*%
%TF.SameCoordinates,Original*%
%TF.FileFunction,Drillmap*%
%TF.FilePolarity,Positive*%
%FSLAX45Y45*%
G04 Gerber Fmt 4.5, Leading zero omitted, Abs format (unit mm)*
G04 Created by KiCad (PCBNEW 9.0.1-9.0.1-0~ubuntu24.04.1) date 2025-05-19 08:09:30*
%MOMM*%
%LPD*%
G01*
G04 APERTURE LIST*
%ADD10C,0.050000*%
%ADD11C,0.200000*%
G04 APERTURE END LIST*
D10*
X15201900Y-9994900D02*
X12700000Y-9994900D01*
X12700000Y-9994900D02*
X12700000Y-8890000D01*
X15201900Y-8890000D02*
X15201900Y-9994900D01*
X12700000Y-8890000D02*
X15201900Y-8890000D01*
D11*
X12765100Y-8958050D02*
X12965100Y-9158050D01*
X12965100Y-8958050D02*
X12765100Y-9158050D01*
X12765100Y-9732750D02*
X12965100Y-9932750D01*
X12965100Y-9732750D02*
X12765100Y-9932750D01*
X14936800Y-9732750D02*
X15136800Y-9932750D01*
X15136800Y-9732750D02*
X14936800Y-9932750D01*
X12958277Y-10308884D02*
X12958277Y-10108884D01*
X12958277Y-10108884D02*
X13005896Y-10108884D01*
X13005896Y-10108884D02*
X13034467Y-10118408D01*
X13034467Y-10118408D02*
X13053515Y-10137455D01*
X13053515Y-10137455D02*
X13063039Y-10156503D01*
X13063039Y-10156503D02*
X13072562Y-10194598D01*
X13072562Y-10194598D02*
X13072562Y-10223170D01*
X13072562Y-10223170D02*
X13063039Y-10261265D01*
X13063039Y-10261265D02*
X13053515Y-10280312D01*
X13053515Y-10280312D02*
X13034467Y-10299360D01*
X13034467Y-10299360D02*
X13005896Y-10308884D01*
X13005896Y-10308884D02*
X12958277Y-10308884D01*
X13158277Y-10308884D02*
X13158277Y-10175550D01*
X13158277Y-10213646D02*
X13167801Y-10194598D01*
X13167801Y-10194598D02*
X13177324Y-10185074D01*
X13177324Y-10185074D02*
X13196372Y-10175550D01*
X13196372Y-10175550D02*
X13215420Y-10175550D01*
X13282086Y-10308884D02*
X13282086Y-10175550D01*
X13282086Y-10108884D02*
X13272562Y-10118408D01*
X13272562Y-10118408D02*
X13282086Y-10127931D01*
X13282086Y-10127931D02*
X13291610Y-10118408D01*
X13291610Y-10118408D02*
X13282086Y-10108884D01*
X13282086Y-10108884D02*
X13282086Y-10127931D01*
X13405896Y-10308884D02*
X13386848Y-10299360D01*
X13386848Y-10299360D02*
X13377324Y-10280312D01*
X13377324Y-10280312D02*
X13377324Y-10108884D01*
X13510658Y-10308884D02*
X13491610Y-10299360D01*
X13491610Y-10299360D02*
X13482086Y-10280312D01*
X13482086Y-10280312D02*
X13482086Y-10108884D01*
X13739229Y-10308884D02*
X13739229Y-10108884D01*
X13739229Y-10108884D02*
X13805896Y-10251741D01*
X13805896Y-10251741D02*
X13872562Y-10108884D01*
X13872562Y-10108884D02*
X13872562Y-10308884D01*
X14053515Y-10308884D02*
X14053515Y-10204122D01*
X14053515Y-10204122D02*
X14043991Y-10185074D01*
X14043991Y-10185074D02*
X14024943Y-10175550D01*
X14024943Y-10175550D02*
X13986848Y-10175550D01*
X13986848Y-10175550D02*
X13967801Y-10185074D01*
X14053515Y-10299360D02*
X14034467Y-10308884D01*
X14034467Y-10308884D02*
X13986848Y-10308884D01*
X13986848Y-10308884D02*
X13967801Y-10299360D01*
X13967801Y-10299360D02*
X13958277Y-10280312D01*
X13958277Y-10280312D02*
X13958277Y-10261265D01*
X13958277Y-10261265D02*
X13967801Y-10242217D01*
X13967801Y-10242217D02*
X13986848Y-10232693D01*
X13986848Y-10232693D02*
X14034467Y-10232693D01*
X14034467Y-10232693D02*
X14053515Y-10223170D01*
X14148753Y-10175550D02*
X14148753Y-10375550D01*
X14148753Y-10185074D02*
X14167801Y-10175550D01*
X14167801Y-10175550D02*
X14205896Y-10175550D01*
X14205896Y-10175550D02*
X14224943Y-10185074D01*
X14224943Y-10185074D02*
X14234467Y-10194598D01*
X14234467Y-10194598D02*
X14243991Y-10213646D01*
X14243991Y-10213646D02*
X14243991Y-10270789D01*
X14243991Y-10270789D02*
X14234467Y-10289836D01*
X14234467Y-10289836D02*
X14224943Y-10299360D01*
X14224943Y-10299360D02*
X14205896Y-10308884D01*
X14205896Y-10308884D02*
X14167801Y-10308884D01*
X14167801Y-10308884D02*
X14148753Y-10299360D01*
X14329705Y-10289836D02*
X14339229Y-10299360D01*
X14339229Y-10299360D02*
X14329705Y-10308884D01*
X14329705Y-10308884D02*
X14320182Y-10299360D01*
X14320182Y-10299360D02*
X14329705Y-10289836D01*
X14329705Y-10289836D02*
X14329705Y-10308884D01*
X14329705Y-10185074D02*
X14339229Y-10194598D01*
X14339229Y-10194598D02*
X14329705Y-10204122D01*
X14329705Y-10204122D02*
X14320182Y-10194598D01*
X14320182Y-10194598D02*
X14329705Y-10185074D01*
X14329705Y-10185074D02*
X14329705Y-10204122D01*
X12497500Y-10537400D02*
X12697500Y-10737400D01*
X12697500Y-10537400D02*
X12497500Y-10737400D01*
X12948753Y-10547931D02*
X12958277Y-10538408D01*
X12958277Y-10538408D02*
X12977324Y-10528884D01*
X12977324Y-10528884D02*
X13024943Y-10528884D01*
X13024943Y-10528884D02*
X13043991Y-10538408D01*
X13043991Y-10538408D02*
X13053515Y-10547931D01*
X13053515Y-10547931D02*
X13063039Y-10566979D01*
X13063039Y-10566979D02*
X13063039Y-10586027D01*
X13063039Y-10586027D02*
X13053515Y-10614598D01*
X13053515Y-10614598D02*
X12939229Y-10728884D01*
X12939229Y-10728884D02*
X13063039Y-10728884D01*
X13148753Y-10709836D02*
X13158277Y-10719360D01*
X13158277Y-10719360D02*
X13148753Y-10728884D01*
X13148753Y-10728884D02*
X13139229Y-10719360D01*
X13139229Y-10719360D02*
X13148753Y-10709836D01*
X13148753Y-10709836D02*
X13148753Y-10728884D01*
X13282086Y-10528884D02*
X13301134Y-10528884D01*
X13301134Y-10528884D02*
X13320182Y-10538408D01*
X13320182Y-10538408D02*
X13329705Y-10547931D01*
X13329705Y-10547931D02*
X13339229Y-10566979D01*
X13339229Y-10566979D02*
X13348753Y-10605074D01*
X13348753Y-10605074D02*
X13348753Y-10652693D01*
X13348753Y-10652693D02*
X13339229Y-10690789D01*
X13339229Y-10690789D02*
X13329705Y-10709836D01*
X13329705Y-10709836D02*
X13320182Y-10719360D01*
X13320182Y-10719360D02*
X13301134Y-10728884D01*
X13301134Y-10728884D02*
X13282086Y-10728884D01*
X13282086Y-10728884D02*
X13263039Y-10719360D01*
X13263039Y-10719360D02*
X13253515Y-10709836D01*
X13253515Y-10709836D02*
X13243991Y-10690789D01*
X13243991Y-10690789D02*
X13234467Y-10652693D01*
X13234467Y-10652693D02*
X13234467Y-10605074D01*
X13234467Y-10605074D02*
X13243991Y-10566979D01*
X13243991Y-10566979D02*
X13253515Y-10547931D01*
X13253515Y-10547931D02*
X13263039Y-10538408D01*
X13263039Y-10538408D02*
X13282086Y-10528884D01*
X13472562Y-10528884D02*
X13491610Y-10528884D01*
X13491610Y-10528884D02*
X13510658Y-10538408D01*
X13510658Y-10538408D02*
X13520182Y-10547931D01*
X13520182Y-10547931D02*
X13529705Y-10566979D01*
X13529705Y-10566979D02*
X13539229Y-10605074D01*
X13539229Y-10605074D02*
X13539229Y-10652693D01*
X13539229Y-10652693D02*
X13529705Y-10690789D01*
X13529705Y-10690789D02*
X13520182Y-10709836D01*
X13520182Y-10709836D02*
X13510658Y-10719360D01*
X13510658Y-10719360D02*
X13491610Y-10728884D01*
X13491610Y-10728884D02*
X13472562Y-10728884D01*
X13472562Y-10728884D02*
X13453515Y-10719360D01*
X13453515Y-10719360D02*
X13443991Y-10709836D01*
X13443991Y-10709836D02*
X13434467Y-10690789D01*
X13434467Y-10690789D02*
X13424943Y-10652693D01*
X13424943Y-10652693D02*
X13424943Y-10605074D01*
X13424943Y-10605074D02*
X13434467Y-10566979D01*
X13434467Y-10566979D02*
X13443991Y-10547931D01*
X13443991Y-10547931D02*
X13453515Y-10538408D01*
X13453515Y-10538408D02*
X13472562Y-10528884D01*
X13663039Y-10528884D02*
X13682086Y-10528884D01*
X13682086Y-10528884D02*
X13701134Y-10538408D01*
X13701134Y-10538408D02*
X13710658Y-10547931D01*
X13710658Y-10547931D02*
X13720182Y-10566979D01*
X13720182Y-10566979D02*
X13729705Y-10605074D01*
X13729705Y-10605074D02*
X13729705Y-10652693D01*
X13729705Y-10652693D02*
X13720182Y-10690789D01*
X13720182Y-10690789D02*
X13710658Y-10709836D01*
X13710658Y-10709836D02*
X13701134Y-10719360D01*
X13701134Y-10719360D02*
X13682086Y-10728884D01*
X13682086Y-10728884D02*
X13663039Y-10728884D01*
X13663039Y-10728884D02*
X13643991Y-10719360D01*
X13643991Y-10719360D02*
X13634467Y-10709836D01*
X13634467Y-10709836D02*
X13624943Y-10690789D01*
X13624943Y-10690789D02*
X13615420Y-10652693D01*
X13615420Y-10652693D02*
X13615420Y-10605074D01*
X13615420Y-10605074D02*
X13624943Y-10566979D01*
X13624943Y-10566979D02*
X13634467Y-10547931D01*
X13634467Y-10547931D02*
X13643991Y-10538408D01*
X13643991Y-10538408D02*
X13663039Y-10528884D01*
X13815420Y-10728884D02*
X13815420Y-10595550D01*
X13815420Y-10614598D02*
X13824943Y-10605074D01*
X13824943Y-10605074D02*
X13843991Y-10595550D01*
X13843991Y-10595550D02*
X13872563Y-10595550D01*
X13872563Y-10595550D02*
X13891610Y-10605074D01*
X13891610Y-10605074D02*
X13901134Y-10624122D01*
X13901134Y-10624122D02*
X13901134Y-10728884D01*
X13901134Y-10624122D02*
X13910658Y-10605074D01*
X13910658Y-10605074D02*
X13929705Y-10595550D01*
X13929705Y-10595550D02*
X13958277Y-10595550D01*
X13958277Y-10595550D02*
X13977324Y-10605074D01*
X13977324Y-10605074D02*
X13986848Y-10624122D01*
X13986848Y-10624122D02*
X13986848Y-10728884D01*
X14082086Y-10728884D02*
X14082086Y-10595550D01*
X14082086Y-10614598D02*
X14091610Y-10605074D01*
X14091610Y-10605074D02*
X14110658Y-10595550D01*
X14110658Y-10595550D02*
X14139229Y-10595550D01*
X14139229Y-10595550D02*
X14158277Y-10605074D01*
X14158277Y-10605074D02*
X14167801Y-10624122D01*
X14167801Y-10624122D02*
X14167801Y-10728884D01*
X14167801Y-10624122D02*
X14177324Y-10605074D01*
X14177324Y-10605074D02*
X14196372Y-10595550D01*
X14196372Y-10595550D02*
X14224943Y-10595550D01*
X14224943Y-10595550D02*
X14243991Y-10605074D01*
X14243991Y-10605074D02*
X14253515Y-10624122D01*
X14253515Y-10624122D02*
X14253515Y-10728884D01*
X14643991Y-10519360D02*
X14472563Y-10776503D01*
X14901134Y-10528884D02*
X14920182Y-10528884D01*
X14920182Y-10528884D02*
X14939229Y-10538408D01*
X14939229Y-10538408D02*
X14948753Y-10547931D01*
X14948753Y-10547931D02*
X14958277Y-10566979D01*
X14958277Y-10566979D02*
X14967801Y-10605074D01*
X14967801Y-10605074D02*
X14967801Y-10652693D01*
X14967801Y-10652693D02*
X14958277Y-10690789D01*
X14958277Y-10690789D02*
X14948753Y-10709836D01*
X14948753Y-10709836D02*
X14939229Y-10719360D01*
X14939229Y-10719360D02*
X14920182Y-10728884D01*
X14920182Y-10728884D02*
X14901134Y-10728884D01*
X14901134Y-10728884D02*
X14882086Y-10719360D01*
X14882086Y-10719360D02*
X14872563Y-10709836D01*
X14872563Y-10709836D02*
X14863039Y-10690789D01*
X14863039Y-10690789D02*
X14853515Y-10652693D01*
X14853515Y-10652693D02*
X14853515Y-10605074D01*
X14853515Y-10605074D02*
X14863039Y-10566979D01*
X14863039Y-10566979D02*
X14872563Y-10547931D01*
X14872563Y-10547931D02*
X14882086Y-10538408D01*
X14882086Y-10538408D02*
X14901134Y-10528884D01*
X15053515Y-10709836D02*
X15063039Y-10719360D01*
X15063039Y-10719360D02*
X15053515Y-10728884D01*
X15053515Y-10728884D02*
X15043991Y-10719360D01*
X15043991Y-10719360D02*
X15053515Y-10709836D01*
X15053515Y-10709836D02*
X15053515Y-10728884D01*
X15186848Y-10528884D02*
X15205896Y-10528884D01*
X15205896Y-10528884D02*
X15224944Y-10538408D01*
X15224944Y-10538408D02*
X15234467Y-10547931D01*
X15234467Y-10547931D02*
X15243991Y-10566979D01*
X15243991Y-10566979D02*
X15253515Y-10605074D01*
X15253515Y-10605074D02*
X15253515Y-10652693D01*
X15253515Y-10652693D02*
X15243991Y-10690789D01*
X15243991Y-10690789D02*
X15234467Y-10709836D01*
X15234467Y-10709836D02*
X15224944Y-10719360D01*
X15224944Y-10719360D02*
X15205896Y-10728884D01*
X15205896Y-10728884D02*
X15186848Y-10728884D01*
X15186848Y-10728884D02*
X15167801Y-10719360D01*
X15167801Y-10719360D02*
X15158277Y-10709836D01*
X15158277Y-10709836D02*
X15148753Y-10690789D01*
X15148753Y-10690789D02*
X15139229Y-10652693D01*
X15139229Y-10652693D02*
X15139229Y-10605074D01*
X15139229Y-10605074D02*
X15148753Y-10566979D01*
X15148753Y-10566979D02*
X15158277Y-10547931D01*
X15158277Y-10547931D02*
X15167801Y-10538408D01*
X15167801Y-10538408D02*
X15186848Y-10528884D01*
X15320182Y-10528884D02*
X15453515Y-10528884D01*
X15453515Y-10528884D02*
X15367801Y-10728884D01*
X15558277Y-10614598D02*
X15539229Y-10605074D01*
X15539229Y-10605074D02*
X15529706Y-10595550D01*
X15529706Y-10595550D02*
X15520182Y-10576503D01*
X15520182Y-10576503D02*
X15520182Y-10566979D01*
X15520182Y-10566979D02*
X15529706Y-10547931D01*
X15529706Y-10547931D02*
X15539229Y-10538408D01*
X15539229Y-10538408D02*
X15558277Y-10528884D01*
X15558277Y-10528884D02*
X15596372Y-10528884D01*
X15596372Y-10528884D02*
X15615420Y-10538408D01*
X15615420Y-10538408D02*
X15624944Y-10547931D01*
X15624944Y-10547931D02*
X15634467Y-10566979D01*
X15634467Y-10566979D02*
X15634467Y-10576503D01*
X15634467Y-10576503D02*
X15624944Y-10595550D01*
X15624944Y-10595550D02*
X15615420Y-10605074D01*
X15615420Y-10605074D02*
X15596372Y-10614598D01*
X15596372Y-10614598D02*
X15558277Y-10614598D01*
X15558277Y-10614598D02*
X15539229Y-10624122D01*
X15539229Y-10624122D02*
X15529706Y-10633646D01*
X15529706Y-10633646D02*
X15520182Y-10652693D01*
X15520182Y-10652693D02*
X15520182Y-10690789D01*
X15520182Y-10690789D02*
X15529706Y-10709836D01*
X15529706Y-10709836D02*
X15539229Y-10719360D01*
X15539229Y-10719360D02*
X15558277Y-10728884D01*
X15558277Y-10728884D02*
X15596372Y-10728884D01*
X15596372Y-10728884D02*
X15615420Y-10719360D01*
X15615420Y-10719360D02*
X15624944Y-10709836D01*
X15624944Y-10709836D02*
X15634467Y-10690789D01*
X15634467Y-10690789D02*
X15634467Y-10652693D01*
X15634467Y-10652693D02*
X15624944Y-10633646D01*
X15624944Y-10633646D02*
X15615420Y-10624122D01*
X15615420Y-10624122D02*
X15596372Y-10614598D01*
X15701134Y-10528884D02*
X15834467Y-10528884D01*
X15834467Y-10528884D02*
X15748753Y-10728884D01*
X15901134Y-10528884D02*
X15901134Y-10566979D01*
X15977325Y-10528884D02*
X15977325Y-10566979D01*
X16272563Y-10805074D02*
X16263039Y-10795550D01*
X16263039Y-10795550D02*
X16243991Y-10766979D01*
X16243991Y-10766979D02*
X16234468Y-10747931D01*
X16234468Y-10747931D02*
X16224944Y-10719360D01*
X16224944Y-10719360D02*
X16215420Y-10671741D01*
X16215420Y-10671741D02*
X16215420Y-10633646D01*
X16215420Y-10633646D02*
X16224944Y-10586027D01*
X16224944Y-10586027D02*
X16234468Y-10557455D01*
X16234468Y-10557455D02*
X16243991Y-10538408D01*
X16243991Y-10538408D02*
X16263039Y-10509836D01*
X16263039Y-10509836D02*
X16272563Y-10500312D01*
X16329706Y-10528884D02*
X16453515Y-10528884D01*
X16453515Y-10528884D02*
X16386848Y-10605074D01*
X16386848Y-10605074D02*
X16415420Y-10605074D01*
X16415420Y-10605074D02*
X16434468Y-10614598D01*
X16434468Y-10614598D02*
X16443991Y-10624122D01*
X16443991Y-10624122D02*
X16453515Y-10643170D01*
X16453515Y-10643170D02*
X16453515Y-10690789D01*
X16453515Y-10690789D02*
X16443991Y-10709836D01*
X16443991Y-10709836D02*
X16434468Y-10719360D01*
X16434468Y-10719360D02*
X16415420Y-10728884D01*
X16415420Y-10728884D02*
X16358277Y-10728884D01*
X16358277Y-10728884D02*
X16339229Y-10719360D01*
X16339229Y-10719360D02*
X16329706Y-10709836D01*
X16691610Y-10728884D02*
X16691610Y-10528884D01*
X16777325Y-10728884D02*
X16777325Y-10624122D01*
X16777325Y-10624122D02*
X16767801Y-10605074D01*
X16767801Y-10605074D02*
X16748753Y-10595550D01*
X16748753Y-10595550D02*
X16720182Y-10595550D01*
X16720182Y-10595550D02*
X16701134Y-10605074D01*
X16701134Y-10605074D02*
X16691610Y-10614598D01*
X16901134Y-10728884D02*
X16882087Y-10719360D01*
X16882087Y-10719360D02*
X16872563Y-10709836D01*
X16872563Y-10709836D02*
X16863039Y-10690789D01*
X16863039Y-10690789D02*
X16863039Y-10633646D01*
X16863039Y-10633646D02*
X16872563Y-10614598D01*
X16872563Y-10614598D02*
X16882087Y-10605074D01*
X16882087Y-10605074D02*
X16901134Y-10595550D01*
X16901134Y-10595550D02*
X16929706Y-10595550D01*
X16929706Y-10595550D02*
X16948753Y-10605074D01*
X16948753Y-10605074D02*
X16958277Y-10614598D01*
X16958277Y-10614598D02*
X16967801Y-10633646D01*
X16967801Y-10633646D02*
X16967801Y-10690789D01*
X16967801Y-10690789D02*
X16958277Y-10709836D01*
X16958277Y-10709836D02*
X16948753Y-10719360D01*
X16948753Y-10719360D02*
X16929706Y-10728884D01*
X16929706Y-10728884D02*
X16901134Y-10728884D01*
X17082087Y-10728884D02*
X17063039Y-10719360D01*
X17063039Y-10719360D02*
X17053515Y-10700312D01*
X17053515Y-10700312D02*
X17053515Y-10528884D01*
X17234468Y-10719360D02*
X17215420Y-10728884D01*
X17215420Y-10728884D02*
X17177325Y-10728884D01*
X17177325Y-10728884D02*
X17158277Y-10719360D01*
X17158277Y-10719360D02*
X17148753Y-10700312D01*
X17148753Y-10700312D02*
X17148753Y-10624122D01*
X17148753Y-10624122D02*
X17158277Y-10605074D01*
X17158277Y-10605074D02*
X17177325Y-10595550D01*
X17177325Y-10595550D02*
X17215420Y-10595550D01*
X17215420Y-10595550D02*
X17234468Y-10605074D01*
X17234468Y-10605074D02*
X17243992Y-10624122D01*
X17243992Y-10624122D02*
X17243992Y-10643170D01*
X17243992Y-10643170D02*
X17148753Y-10662217D01*
X17320182Y-10719360D02*
X17339230Y-10728884D01*
X17339230Y-10728884D02*
X17377325Y-10728884D01*
X17377325Y-10728884D02*
X17396373Y-10719360D01*
X17396373Y-10719360D02*
X17405896Y-10700312D01*
X17405896Y-10700312D02*
X17405896Y-10690789D01*
X17405896Y-10690789D02*
X17396373Y-10671741D01*
X17396373Y-10671741D02*
X17377325Y-10662217D01*
X17377325Y-10662217D02*
X17348753Y-10662217D01*
X17348753Y-10662217D02*
X17329706Y-10652693D01*
X17329706Y-10652693D02*
X17320182Y-10633646D01*
X17320182Y-10633646D02*
X17320182Y-10624122D01*
X17320182Y-10624122D02*
X17329706Y-10605074D01*
X17329706Y-10605074D02*
X17348753Y-10595550D01*
X17348753Y-10595550D02*
X17377325Y-10595550D01*
X17377325Y-10595550D02*
X17396373Y-10605074D01*
X17472563Y-10805074D02*
X17482087Y-10795550D01*
X17482087Y-10795550D02*
X17501134Y-10766979D01*
X17501134Y-10766979D02*
X17510658Y-10747931D01*
X17510658Y-10747931D02*
X17520182Y-10719360D01*
X17520182Y-10719360D02*
X17529706Y-10671741D01*
X17529706Y-10671741D02*
X17529706Y-10633646D01*
X17529706Y-10633646D02*
X17520182Y-10586027D01*
X17520182Y-10586027D02*
X17510658Y-10557455D01*
X17510658Y-10557455D02*
X17501134Y-10538408D01*
X17501134Y-10538408D02*
X17482087Y-10509836D01*
X17482087Y-10509836D02*
X17472563Y-10500312D01*
X17834468Y-10805074D02*
X17824944Y-10795550D01*
X17824944Y-10795550D02*
X17805896Y-10766979D01*
X17805896Y-10766979D02*
X17796373Y-10747931D01*
X17796373Y-10747931D02*
X17786849Y-10719360D01*
X17786849Y-10719360D02*
X17777325Y-10671741D01*
X17777325Y-10671741D02*
X17777325Y-10633646D01*
X17777325Y-10633646D02*
X17786849Y-10586027D01*
X17786849Y-10586027D02*
X17796373Y-10557455D01*
X17796373Y-10557455D02*
X17805896Y-10538408D01*
X17805896Y-10538408D02*
X17824944Y-10509836D01*
X17824944Y-10509836D02*
X17834468Y-10500312D01*
X17910658Y-10595550D02*
X17910658Y-10728884D01*
X17910658Y-10614598D02*
X17920182Y-10605074D01*
X17920182Y-10605074D02*
X17939230Y-10595550D01*
X17939230Y-10595550D02*
X17967801Y-10595550D01*
X17967801Y-10595550D02*
X17986849Y-10605074D01*
X17986849Y-10605074D02*
X17996373Y-10624122D01*
X17996373Y-10624122D02*
X17996373Y-10728884D01*
X18120182Y-10728884D02*
X18101134Y-10719360D01*
X18101134Y-10719360D02*
X18091611Y-10709836D01*
X18091611Y-10709836D02*
X18082087Y-10690789D01*
X18082087Y-10690789D02*
X18082087Y-10633646D01*
X18082087Y-10633646D02*
X18091611Y-10614598D01*
X18091611Y-10614598D02*
X18101134Y-10605074D01*
X18101134Y-10605074D02*
X18120182Y-10595550D01*
X18120182Y-10595550D02*
X18148754Y-10595550D01*
X18148754Y-10595550D02*
X18167801Y-10605074D01*
X18167801Y-10605074D02*
X18177325Y-10614598D01*
X18177325Y-10614598D02*
X18186849Y-10633646D01*
X18186849Y-10633646D02*
X18186849Y-10690789D01*
X18186849Y-10690789D02*
X18177325Y-10709836D01*
X18177325Y-10709836D02*
X18167801Y-10719360D01*
X18167801Y-10719360D02*
X18148754Y-10728884D01*
X18148754Y-10728884D02*
X18120182Y-10728884D01*
X18243992Y-10595550D02*
X18320182Y-10595550D01*
X18272563Y-10528884D02*
X18272563Y-10700312D01*
X18272563Y-10700312D02*
X18282087Y-10719360D01*
X18282087Y-10719360D02*
X18301134Y-10728884D01*
X18301134Y-10728884D02*
X18320182Y-10728884D01*
X18539230Y-10595550D02*
X18539230Y-10795550D01*
X18539230Y-10605074D02*
X18558277Y-10595550D01*
X18558277Y-10595550D02*
X18596373Y-10595550D01*
X18596373Y-10595550D02*
X18615420Y-10605074D01*
X18615420Y-10605074D02*
X18624944Y-10614598D01*
X18624944Y-10614598D02*
X18634468Y-10633646D01*
X18634468Y-10633646D02*
X18634468Y-10690789D01*
X18634468Y-10690789D02*
X18624944Y-10709836D01*
X18624944Y-10709836D02*
X18615420Y-10719360D01*
X18615420Y-10719360D02*
X18596373Y-10728884D01*
X18596373Y-10728884D02*
X18558277Y-10728884D01*
X18558277Y-10728884D02*
X18539230Y-10719360D01*
X18748754Y-10728884D02*
X18729706Y-10719360D01*
X18729706Y-10719360D02*
X18720182Y-10700312D01*
X18720182Y-10700312D02*
X18720182Y-10528884D01*
X18910658Y-10728884D02*
X18910658Y-10624122D01*
X18910658Y-10624122D02*
X18901135Y-10605074D01*
X18901135Y-10605074D02*
X18882087Y-10595550D01*
X18882087Y-10595550D02*
X18843992Y-10595550D01*
X18843992Y-10595550D02*
X18824944Y-10605074D01*
X18910658Y-10719360D02*
X18891611Y-10728884D01*
X18891611Y-10728884D02*
X18843992Y-10728884D01*
X18843992Y-10728884D02*
X18824944Y-10719360D01*
X18824944Y-10719360D02*
X18815420Y-10700312D01*
X18815420Y-10700312D02*
X18815420Y-10681265D01*
X18815420Y-10681265D02*
X18824944Y-10662217D01*
X18824944Y-10662217D02*
X18843992Y-10652693D01*
X18843992Y-10652693D02*
X18891611Y-10652693D01*
X18891611Y-10652693D02*
X18910658Y-10643170D01*
X18977325Y-10595550D02*
X19053515Y-10595550D01*
X19005896Y-10528884D02*
X19005896Y-10700312D01*
X19005896Y-10700312D02*
X19015420Y-10719360D01*
X19015420Y-10719360D02*
X19034468Y-10728884D01*
X19034468Y-10728884D02*
X19053515Y-10728884D01*
X19196373Y-10719360D02*
X19177325Y-10728884D01*
X19177325Y-10728884D02*
X19139230Y-10728884D01*
X19139230Y-10728884D02*
X19120182Y-10719360D01*
X19120182Y-10719360D02*
X19110658Y-10700312D01*
X19110658Y-10700312D02*
X19110658Y-10624122D01*
X19110658Y-10624122D02*
X19120182Y-10605074D01*
X19120182Y-10605074D02*
X19139230Y-10595550D01*
X19139230Y-10595550D02*
X19177325Y-10595550D01*
X19177325Y-10595550D02*
X19196373Y-10605074D01*
X19196373Y-10605074D02*
X19205896Y-10624122D01*
X19205896Y-10624122D02*
X19205896Y-10643170D01*
X19205896Y-10643170D02*
X19110658Y-10662217D01*
X19377325Y-10728884D02*
X19377325Y-10528884D01*
X19377325Y-10719360D02*
X19358277Y-10728884D01*
X19358277Y-10728884D02*
X19320182Y-10728884D01*
X19320182Y-10728884D02*
X19301135Y-10719360D01*
X19301135Y-10719360D02*
X19291611Y-10709836D01*
X19291611Y-10709836D02*
X19282087Y-10690789D01*
X19282087Y-10690789D02*
X19282087Y-10633646D01*
X19282087Y-10633646D02*
X19291611Y-10614598D01*
X19291611Y-10614598D02*
X19301135Y-10605074D01*
X19301135Y-10605074D02*
X19320182Y-10595550D01*
X19320182Y-10595550D02*
X19358277Y-10595550D01*
X19358277Y-10595550D02*
X19377325Y-10605074D01*
X19453516Y-10805074D02*
X19463039Y-10795550D01*
X19463039Y-10795550D02*
X19482087Y-10766979D01*
X19482087Y-10766979D02*
X19491611Y-10747931D01*
X19491611Y-10747931D02*
X19501135Y-10719360D01*
X19501135Y-10719360D02*
X19510658Y-10671741D01*
X19510658Y-10671741D02*
X19510658Y-10633646D01*
X19510658Y-10633646D02*
X19501135Y-10586027D01*
X19501135Y-10586027D02*
X19491611Y-10557455D01*
X19491611Y-10557455D02*
X19482087Y-10538408D01*
X19482087Y-10538408D02*
X19463039Y-10509836D01*
X19463039Y-10509836D02*
X19453516Y-10500312D01*
M02*
