%TF.GenerationSoftware,KiCad,Pcbnew,9.0.1-9.0.1-0~ubuntu24.04.1*%
%TF.CreationDate,2025-05-19T08:09:30-04:00*%
%TF.ProjectId,kmcddm_v1a,6b6d6364-646d-45f7-9631-612e6b696361,rev?*%
%TF.SameCoordinates,Original*%
%TF.FileFunction,Drillmap*%
%TF.FilePolarity,Positive*%
%FSLAX45Y45*%
G04 Gerber Fmt 4.5, Leading zero omitted, Abs format (unit mm)*
G04 Created by KiCad (PCBNEW 9.0.1-9.0.1-0~ubuntu24.04.1) date 2025-05-19 08:09:30*
%MOMM*%
%LPD*%
G01*
G04 APERTURE LIST*
%ADD10C,0.050000*%
%ADD11C,0.200000*%
%ADD12C,0.100000*%
G04 APERTURE END LIST*
D10*
X15201900Y-9994900D02*
X12700000Y-9994900D01*
X12700000Y-9994900D02*
X12700000Y-8890000D01*
X15201900Y-8890000D02*
X15201900Y-9994900D01*
X12700000Y-8890000D02*
X15201900Y-8890000D01*
D11*
D12*
X12766200Y-9692800D02*
X12786200Y-9712800D01*
X12786200Y-9692800D02*
X12766200Y-9712800D01*
X12778900Y-9197500D02*
X12798900Y-9217500D01*
X12798900Y-9197500D02*
X12778900Y-9217500D01*
X12817000Y-9438800D02*
X12837000Y-9458800D01*
X12837000Y-9438800D02*
X12817000Y-9458800D01*
X12918600Y-9438800D02*
X12938600Y-9458800D01*
X12938600Y-9438800D02*
X12918600Y-9458800D01*
X12956700Y-9222900D02*
X12976700Y-9242900D01*
X12976700Y-9222900D02*
X12956700Y-9242900D01*
X12969400Y-9629300D02*
X12989400Y-9649300D01*
X12989400Y-9629300D02*
X12969400Y-9649300D01*
X12994800Y-8956200D02*
X13014800Y-8976200D01*
X13014800Y-8956200D02*
X12994800Y-8976200D01*
X13045600Y-9845200D02*
X13065600Y-9865200D01*
X13065600Y-9845200D02*
X13045600Y-9865200D01*
X13130704Y-9402892D02*
X13150704Y-9422892D01*
X13150704Y-9402892D02*
X13130704Y-9422892D01*
X13153222Y-9595409D02*
X13173222Y-9615409D01*
X13173222Y-9595409D02*
X13153222Y-9615409D01*
X13223400Y-8943500D02*
X13243400Y-8963500D01*
X13243400Y-8943500D02*
X13223400Y-8963500D01*
X13223400Y-9083200D02*
X13243400Y-9103200D01*
X13243400Y-9083200D02*
X13223400Y-9103200D01*
X13236100Y-9222900D02*
X13256100Y-9242900D01*
X13256100Y-9222900D02*
X13236100Y-9242900D01*
X13236100Y-9400700D02*
X13256100Y-9420700D01*
X13256100Y-9400700D02*
X13236100Y-9420700D01*
X13401200Y-9400700D02*
X13421200Y-9420700D01*
X13421200Y-9400700D02*
X13401200Y-9420700D01*
X13401200Y-9794400D02*
X13421200Y-9814400D01*
X13421200Y-9794400D02*
X13401200Y-9814400D01*
X13579000Y-9807100D02*
X13599000Y-9827100D01*
X13599000Y-9807100D02*
X13579000Y-9827100D01*
X13658515Y-9404119D02*
X13678515Y-9424119D01*
X13678515Y-9404119D02*
X13658515Y-9424119D01*
X13667900Y-9172100D02*
X13687900Y-9192100D01*
X13687900Y-9172100D02*
X13667900Y-9192100D01*
X13764865Y-8941398D02*
X13784865Y-8961398D01*
X13784865Y-8941398D02*
X13764865Y-8961398D01*
X13769500Y-9896000D02*
X13789500Y-9916000D01*
X13789500Y-9896000D02*
X13769500Y-9916000D01*
X13921900Y-9921400D02*
X13941900Y-9941400D01*
X13941900Y-9921400D02*
X13921900Y-9941400D01*
X14010800Y-9451500D02*
X14030800Y-9471500D01*
X14030800Y-9451500D02*
X14010800Y-9471500D01*
X14099700Y-8943500D02*
X14119700Y-8963500D01*
X14119700Y-8943500D02*
X14099700Y-8963500D01*
X14099700Y-9515000D02*
X14119700Y-9535000D01*
X14119700Y-9515000D02*
X14099700Y-9535000D01*
X14328300Y-8956200D02*
X14348300Y-8976200D01*
X14348300Y-8956200D02*
X14328300Y-8976200D01*
X14341000Y-9553100D02*
X14361000Y-9573100D01*
X14361000Y-9553100D02*
X14341000Y-9573100D01*
X14366400Y-9832500D02*
X14386400Y-9852500D01*
X14386400Y-9832500D02*
X14366400Y-9852500D01*
X14379100Y-9654700D02*
X14399100Y-9674700D01*
X14399100Y-9654700D02*
X14379100Y-9674700D01*
X14442600Y-9235600D02*
X14462600Y-9255600D01*
X14462600Y-9235600D02*
X14442600Y-9255600D01*
X14442600Y-9413400D02*
X14462600Y-9433400D01*
X14462600Y-9413400D02*
X14442600Y-9433400D01*
X14544200Y-9172100D02*
X14564200Y-9192100D01*
X14564200Y-9172100D02*
X14544200Y-9192100D01*
X14607700Y-8968900D02*
X14627700Y-8988900D01*
X14627700Y-8968900D02*
X14607700Y-8988900D01*
X14772800Y-9502300D02*
X14792800Y-9522300D01*
X14792800Y-9502300D02*
X14772800Y-9522300D01*
X14785500Y-9629300D02*
X14805500Y-9649300D01*
X14805500Y-9629300D02*
X14785500Y-9649300D01*
X14810900Y-8956200D02*
X14830900Y-8976200D01*
X14830900Y-8956200D02*
X14810900Y-8976200D01*
X14823600Y-9870600D02*
X14843600Y-9890600D01*
X14843600Y-9870600D02*
X14823600Y-9890600D01*
X14849000Y-9146700D02*
X14869000Y-9166700D01*
X14869000Y-9146700D02*
X14849000Y-9166700D01*
X14963300Y-9565800D02*
X14983300Y-9585800D01*
X14983300Y-9565800D02*
X14963300Y-9585800D01*
X15014100Y-9337200D02*
X15034100Y-9357200D01*
X15034100Y-9337200D02*
X15014100Y-9357200D01*
X15090300Y-8968900D02*
X15110300Y-8988900D01*
X15110300Y-8968900D02*
X15090300Y-8988900D01*
X15103000Y-9667400D02*
X15123000Y-9687400D01*
X15123000Y-9667400D02*
X15103000Y-9687400D01*
X13401300Y-8972950D02*
G75*
G02*
X13371300Y-8972950I-15000J0D01*
G01*
X13371300Y-8972950D02*
G75*
G02*
X13401300Y-8972950I15000J0D01*
G01*
X13578600Y-9423400D02*
G75*
G02*
X13548600Y-9423400I-15000J0D01*
G01*
X13548600Y-9423400D02*
G75*
G02*
X13578600Y-9423400I15000J0D01*
G01*
X13598800Y-9033921D02*
G75*
G02*
X13568800Y-9033921I-15000J0D01*
G01*
X13568800Y-9033921D02*
G75*
G02*
X13598800Y-9033921I15000J0D01*
G01*
X13638400Y-9559400D02*
G75*
G02*
X13608400Y-9559400I-15000J0D01*
G01*
X13608400Y-9559400D02*
G75*
G02*
X13638400Y-9559400I15000J0D01*
G01*
X13648450Y-9721850D02*
G75*
G02*
X13618450Y-9721850I-15000J0D01*
G01*
X13618450Y-9721850D02*
G75*
G02*
X13648450Y-9721850I15000J0D01*
G01*
X13743700Y-9029700D02*
G75*
G02*
X13713700Y-9029700I-15000J0D01*
G01*
X13713700Y-9029700D02*
G75*
G02*
X13743700Y-9029700I15000J0D01*
G01*
X13819900Y-9029700D02*
G75*
G02*
X13789900Y-9029700I-15000J0D01*
G01*
X13789900Y-9029700D02*
G75*
G02*
X13819900Y-9029700I15000J0D01*
G01*
X13832600Y-9194800D02*
G75*
G02*
X13802600Y-9194800I-15000J0D01*
G01*
X13802600Y-9194800D02*
G75*
G02*
X13832600Y-9194800I15000J0D01*
G01*
X14112000Y-9664700D02*
G75*
G02*
X14082000Y-9664700I-15000J0D01*
G01*
X14082000Y-9664700D02*
G75*
G02*
X14112000Y-9664700I15000J0D01*
G01*
X14124700Y-9144000D02*
G75*
G02*
X14094700Y-9144000I-15000J0D01*
G01*
X14094700Y-9144000D02*
G75*
G02*
X14124700Y-9144000I15000J0D01*
G01*
X14785100Y-9423400D02*
G75*
G02*
X14755100Y-9423400I-15000J0D01*
G01*
X14755100Y-9423400D02*
G75*
G02*
X14785100Y-9423400I15000J0D01*
G01*
X14823200Y-9236350D02*
G75*
G02*
X14793200Y-9236350I-15000J0D01*
G01*
X14793200Y-9236350D02*
G75*
G02*
X14823200Y-9236350I15000J0D01*
G01*
X12851600Y-9287250D02*
X12851600Y-9357250D01*
X12816600Y-9322250D02*
X12886600Y-9322250D01*
X12851600Y-9543250D02*
X12851600Y-9613250D01*
X12816600Y-9578250D02*
X12886600Y-9578250D01*
X14976184Y-9070685D02*
X14976184Y-9014116D01*
X14919615Y-9014116D01*
X14919615Y-9070685D01*
X14976184Y-9070685D01*
X14976184Y-9270685D02*
X14976184Y-9214116D01*
X14919615Y-9214116D01*
X14919615Y-9270685D01*
X14976184Y-9270685D01*
X14976184Y-9470685D02*
X14976184Y-9414116D01*
X14919615Y-9414116D01*
X14919615Y-9470685D01*
X14976184Y-9470685D01*
D11*
X12958277Y-10308884D02*
X12958277Y-10108884D01*
X12958277Y-10108884D02*
X13005896Y-10108884D01*
X13005896Y-10108884D02*
X13034467Y-10118408D01*
X13034467Y-10118408D02*
X13053515Y-10137455D01*
X13053515Y-10137455D02*
X13063039Y-10156503D01*
X13063039Y-10156503D02*
X13072562Y-10194598D01*
X13072562Y-10194598D02*
X13072562Y-10223170D01*
X13072562Y-10223170D02*
X13063039Y-10261265D01*
X13063039Y-10261265D02*
X13053515Y-10280312D01*
X13053515Y-10280312D02*
X13034467Y-10299360D01*
X13034467Y-10299360D02*
X13005896Y-10308884D01*
X13005896Y-10308884D02*
X12958277Y-10308884D01*
X13158277Y-10308884D02*
X13158277Y-10175550D01*
X13158277Y-10213646D02*
X13167801Y-10194598D01*
X13167801Y-10194598D02*
X13177324Y-10185074D01*
X13177324Y-10185074D02*
X13196372Y-10175550D01*
X13196372Y-10175550D02*
X13215420Y-10175550D01*
X13282086Y-10308884D02*
X13282086Y-10175550D01*
X13282086Y-10108884D02*
X13272562Y-10118408D01*
X13272562Y-10118408D02*
X13282086Y-10127931D01*
X13282086Y-10127931D02*
X13291610Y-10118408D01*
X13291610Y-10118408D02*
X13282086Y-10108884D01*
X13282086Y-10108884D02*
X13282086Y-10127931D01*
X13405896Y-10308884D02*
X13386848Y-10299360D01*
X13386848Y-10299360D02*
X13377324Y-10280312D01*
X13377324Y-10280312D02*
X13377324Y-10108884D01*
X13510658Y-10308884D02*
X13491610Y-10299360D01*
X13491610Y-10299360D02*
X13482086Y-10280312D01*
X13482086Y-10280312D02*
X13482086Y-10108884D01*
X13739229Y-10308884D02*
X13739229Y-10108884D01*
X13739229Y-10108884D02*
X13805896Y-10251741D01*
X13805896Y-10251741D02*
X13872562Y-10108884D01*
X13872562Y-10108884D02*
X13872562Y-10308884D01*
X14053515Y-10308884D02*
X14053515Y-10204122D01*
X14053515Y-10204122D02*
X14043991Y-10185074D01*
X14043991Y-10185074D02*
X14024943Y-10175550D01*
X14024943Y-10175550D02*
X13986848Y-10175550D01*
X13986848Y-10175550D02*
X13967801Y-10185074D01*
X14053515Y-10299360D02*
X14034467Y-10308884D01*
X14034467Y-10308884D02*
X13986848Y-10308884D01*
X13986848Y-10308884D02*
X13967801Y-10299360D01*
X13967801Y-10299360D02*
X13958277Y-10280312D01*
X13958277Y-10280312D02*
X13958277Y-10261265D01*
X13958277Y-10261265D02*
X13967801Y-10242217D01*
X13967801Y-10242217D02*
X13986848Y-10232693D01*
X13986848Y-10232693D02*
X14034467Y-10232693D01*
X14034467Y-10232693D02*
X14053515Y-10223170D01*
X14148753Y-10175550D02*
X14148753Y-10375550D01*
X14148753Y-10185074D02*
X14167801Y-10175550D01*
X14167801Y-10175550D02*
X14205896Y-10175550D01*
X14205896Y-10175550D02*
X14224943Y-10185074D01*
X14224943Y-10185074D02*
X14234467Y-10194598D01*
X14234467Y-10194598D02*
X14243991Y-10213646D01*
X14243991Y-10213646D02*
X14243991Y-10270789D01*
X14243991Y-10270789D02*
X14234467Y-10289836D01*
X14234467Y-10289836D02*
X14224943Y-10299360D01*
X14224943Y-10299360D02*
X14205896Y-10308884D01*
X14205896Y-10308884D02*
X14167801Y-10308884D01*
X14167801Y-10308884D02*
X14148753Y-10299360D01*
X14329705Y-10289836D02*
X14339229Y-10299360D01*
X14339229Y-10299360D02*
X14329705Y-10308884D01*
X14329705Y-10308884D02*
X14320182Y-10299360D01*
X14320182Y-10299360D02*
X14329705Y-10289836D01*
X14329705Y-10289836D02*
X14329705Y-10308884D01*
X14329705Y-10185074D02*
X14339229Y-10194598D01*
X14339229Y-10194598D02*
X14329705Y-10204122D01*
X14329705Y-10204122D02*
X14320182Y-10194598D01*
X14320182Y-10194598D02*
X14329705Y-10185074D01*
X14329705Y-10185074D02*
X14329705Y-10204122D01*
D12*
X12677500Y-10627400D02*
X12697500Y-10647400D01*
X12697500Y-10627400D02*
X12677500Y-10647400D01*
D11*
X12996372Y-10528884D02*
X13015420Y-10528884D01*
X13015420Y-10528884D02*
X13034467Y-10538408D01*
X13034467Y-10538408D02*
X13043991Y-10547931D01*
X13043991Y-10547931D02*
X13053515Y-10566979D01*
X13053515Y-10566979D02*
X13063039Y-10605074D01*
X13063039Y-10605074D02*
X13063039Y-10652693D01*
X13063039Y-10652693D02*
X13053515Y-10690789D01*
X13053515Y-10690789D02*
X13043991Y-10709836D01*
X13043991Y-10709836D02*
X13034467Y-10719360D01*
X13034467Y-10719360D02*
X13015420Y-10728884D01*
X13015420Y-10728884D02*
X12996372Y-10728884D01*
X12996372Y-10728884D02*
X12977324Y-10719360D01*
X12977324Y-10719360D02*
X12967801Y-10709836D01*
X12967801Y-10709836D02*
X12958277Y-10690789D01*
X12958277Y-10690789D02*
X12948753Y-10652693D01*
X12948753Y-10652693D02*
X12948753Y-10605074D01*
X12948753Y-10605074D02*
X12958277Y-10566979D01*
X12958277Y-10566979D02*
X12967801Y-10547931D01*
X12967801Y-10547931D02*
X12977324Y-10538408D01*
X12977324Y-10538408D02*
X12996372Y-10528884D01*
X13148753Y-10709836D02*
X13158277Y-10719360D01*
X13158277Y-10719360D02*
X13148753Y-10728884D01*
X13148753Y-10728884D02*
X13139229Y-10719360D01*
X13139229Y-10719360D02*
X13148753Y-10709836D01*
X13148753Y-10709836D02*
X13148753Y-10728884D01*
X13234467Y-10547931D02*
X13243991Y-10538408D01*
X13243991Y-10538408D02*
X13263039Y-10528884D01*
X13263039Y-10528884D02*
X13310658Y-10528884D01*
X13310658Y-10528884D02*
X13329705Y-10538408D01*
X13329705Y-10538408D02*
X13339229Y-10547931D01*
X13339229Y-10547931D02*
X13348753Y-10566979D01*
X13348753Y-10566979D02*
X13348753Y-10586027D01*
X13348753Y-10586027D02*
X13339229Y-10614598D01*
X13339229Y-10614598D02*
X13224943Y-10728884D01*
X13224943Y-10728884D02*
X13348753Y-10728884D01*
X13472562Y-10528884D02*
X13491610Y-10528884D01*
X13491610Y-10528884D02*
X13510658Y-10538408D01*
X13510658Y-10538408D02*
X13520182Y-10547931D01*
X13520182Y-10547931D02*
X13529705Y-10566979D01*
X13529705Y-10566979D02*
X13539229Y-10605074D01*
X13539229Y-10605074D02*
X13539229Y-10652693D01*
X13539229Y-10652693D02*
X13529705Y-10690789D01*
X13529705Y-10690789D02*
X13520182Y-10709836D01*
X13520182Y-10709836D02*
X13510658Y-10719360D01*
X13510658Y-10719360D02*
X13491610Y-10728884D01*
X13491610Y-10728884D02*
X13472562Y-10728884D01*
X13472562Y-10728884D02*
X13453515Y-10719360D01*
X13453515Y-10719360D02*
X13443991Y-10709836D01*
X13443991Y-10709836D02*
X13434467Y-10690789D01*
X13434467Y-10690789D02*
X13424943Y-10652693D01*
X13424943Y-10652693D02*
X13424943Y-10605074D01*
X13424943Y-10605074D02*
X13434467Y-10566979D01*
X13434467Y-10566979D02*
X13443991Y-10547931D01*
X13443991Y-10547931D02*
X13453515Y-10538408D01*
X13453515Y-10538408D02*
X13472562Y-10528884D01*
X13663039Y-10528884D02*
X13682086Y-10528884D01*
X13682086Y-10528884D02*
X13701134Y-10538408D01*
X13701134Y-10538408D02*
X13710658Y-10547931D01*
X13710658Y-10547931D02*
X13720182Y-10566979D01*
X13720182Y-10566979D02*
X13729705Y-10605074D01*
X13729705Y-10605074D02*
X13729705Y-10652693D01*
X13729705Y-10652693D02*
X13720182Y-10690789D01*
X13720182Y-10690789D02*
X13710658Y-10709836D01*
X13710658Y-10709836D02*
X13701134Y-10719360D01*
X13701134Y-10719360D02*
X13682086Y-10728884D01*
X13682086Y-10728884D02*
X13663039Y-10728884D01*
X13663039Y-10728884D02*
X13643991Y-10719360D01*
X13643991Y-10719360D02*
X13634467Y-10709836D01*
X13634467Y-10709836D02*
X13624943Y-10690789D01*
X13624943Y-10690789D02*
X13615420Y-10652693D01*
X13615420Y-10652693D02*
X13615420Y-10605074D01*
X13615420Y-10605074D02*
X13624943Y-10566979D01*
X13624943Y-10566979D02*
X13634467Y-10547931D01*
X13634467Y-10547931D02*
X13643991Y-10538408D01*
X13643991Y-10538408D02*
X13663039Y-10528884D01*
X13815420Y-10728884D02*
X13815420Y-10595550D01*
X13815420Y-10614598D02*
X13824943Y-10605074D01*
X13824943Y-10605074D02*
X13843991Y-10595550D01*
X13843991Y-10595550D02*
X13872563Y-10595550D01*
X13872563Y-10595550D02*
X13891610Y-10605074D01*
X13891610Y-10605074D02*
X13901134Y-10624122D01*
X13901134Y-10624122D02*
X13901134Y-10728884D01*
X13901134Y-10624122D02*
X13910658Y-10605074D01*
X13910658Y-10605074D02*
X13929705Y-10595550D01*
X13929705Y-10595550D02*
X13958277Y-10595550D01*
X13958277Y-10595550D02*
X13977324Y-10605074D01*
X13977324Y-10605074D02*
X13986848Y-10624122D01*
X13986848Y-10624122D02*
X13986848Y-10728884D01*
X14082086Y-10728884D02*
X14082086Y-10595550D01*
X14082086Y-10614598D02*
X14091610Y-10605074D01*
X14091610Y-10605074D02*
X14110658Y-10595550D01*
X14110658Y-10595550D02*
X14139229Y-10595550D01*
X14139229Y-10595550D02*
X14158277Y-10605074D01*
X14158277Y-10605074D02*
X14167801Y-10624122D01*
X14167801Y-10624122D02*
X14167801Y-10728884D01*
X14167801Y-10624122D02*
X14177324Y-10605074D01*
X14177324Y-10605074D02*
X14196372Y-10595550D01*
X14196372Y-10595550D02*
X14224943Y-10595550D01*
X14224943Y-10595550D02*
X14243991Y-10605074D01*
X14243991Y-10605074D02*
X14253515Y-10624122D01*
X14253515Y-10624122D02*
X14253515Y-10728884D01*
X14643991Y-10519360D02*
X14472563Y-10776503D01*
X14901134Y-10528884D02*
X14920182Y-10528884D01*
X14920182Y-10528884D02*
X14939229Y-10538408D01*
X14939229Y-10538408D02*
X14948753Y-10547931D01*
X14948753Y-10547931D02*
X14958277Y-10566979D01*
X14958277Y-10566979D02*
X14967801Y-10605074D01*
X14967801Y-10605074D02*
X14967801Y-10652693D01*
X14967801Y-10652693D02*
X14958277Y-10690789D01*
X14958277Y-10690789D02*
X14948753Y-10709836D01*
X14948753Y-10709836D02*
X14939229Y-10719360D01*
X14939229Y-10719360D02*
X14920182Y-10728884D01*
X14920182Y-10728884D02*
X14901134Y-10728884D01*
X14901134Y-10728884D02*
X14882086Y-10719360D01*
X14882086Y-10719360D02*
X14872563Y-10709836D01*
X14872563Y-10709836D02*
X14863039Y-10690789D01*
X14863039Y-10690789D02*
X14853515Y-10652693D01*
X14853515Y-10652693D02*
X14853515Y-10605074D01*
X14853515Y-10605074D02*
X14863039Y-10566979D01*
X14863039Y-10566979D02*
X14872563Y-10547931D01*
X14872563Y-10547931D02*
X14882086Y-10538408D01*
X14882086Y-10538408D02*
X14901134Y-10528884D01*
X15053515Y-10709836D02*
X15063039Y-10719360D01*
X15063039Y-10719360D02*
X15053515Y-10728884D01*
X15053515Y-10728884D02*
X15043991Y-10719360D01*
X15043991Y-10719360D02*
X15053515Y-10709836D01*
X15053515Y-10709836D02*
X15053515Y-10728884D01*
X15186848Y-10528884D02*
X15205896Y-10528884D01*
X15205896Y-10528884D02*
X15224944Y-10538408D01*
X15224944Y-10538408D02*
X15234467Y-10547931D01*
X15234467Y-10547931D02*
X15243991Y-10566979D01*
X15243991Y-10566979D02*
X15253515Y-10605074D01*
X15253515Y-10605074D02*
X15253515Y-10652693D01*
X15253515Y-10652693D02*
X15243991Y-10690789D01*
X15243991Y-10690789D02*
X15234467Y-10709836D01*
X15234467Y-10709836D02*
X15224944Y-10719360D01*
X15224944Y-10719360D02*
X15205896Y-10728884D01*
X15205896Y-10728884D02*
X15186848Y-10728884D01*
X15186848Y-10728884D02*
X15167801Y-10719360D01*
X15167801Y-10719360D02*
X15158277Y-10709836D01*
X15158277Y-10709836D02*
X15148753Y-10690789D01*
X15148753Y-10690789D02*
X15139229Y-10652693D01*
X15139229Y-10652693D02*
X15139229Y-10605074D01*
X15139229Y-10605074D02*
X15148753Y-10566979D01*
X15148753Y-10566979D02*
X15158277Y-10547931D01*
X15158277Y-10547931D02*
X15167801Y-10538408D01*
X15167801Y-10538408D02*
X15186848Y-10528884D01*
X15377325Y-10528884D02*
X15396372Y-10528884D01*
X15396372Y-10528884D02*
X15415420Y-10538408D01*
X15415420Y-10538408D02*
X15424944Y-10547931D01*
X15424944Y-10547931D02*
X15434467Y-10566979D01*
X15434467Y-10566979D02*
X15443991Y-10605074D01*
X15443991Y-10605074D02*
X15443991Y-10652693D01*
X15443991Y-10652693D02*
X15434467Y-10690789D01*
X15434467Y-10690789D02*
X15424944Y-10709836D01*
X15424944Y-10709836D02*
X15415420Y-10719360D01*
X15415420Y-10719360D02*
X15396372Y-10728884D01*
X15396372Y-10728884D02*
X15377325Y-10728884D01*
X15377325Y-10728884D02*
X15358277Y-10719360D01*
X15358277Y-10719360D02*
X15348753Y-10709836D01*
X15348753Y-10709836D02*
X15339229Y-10690789D01*
X15339229Y-10690789D02*
X15329706Y-10652693D01*
X15329706Y-10652693D02*
X15329706Y-10605074D01*
X15329706Y-10605074D02*
X15339229Y-10566979D01*
X15339229Y-10566979D02*
X15348753Y-10547931D01*
X15348753Y-10547931D02*
X15358277Y-10538408D01*
X15358277Y-10538408D02*
X15377325Y-10528884D01*
X15510658Y-10528884D02*
X15643991Y-10528884D01*
X15643991Y-10528884D02*
X15558277Y-10728884D01*
X15729706Y-10728884D02*
X15767801Y-10728884D01*
X15767801Y-10728884D02*
X15786848Y-10719360D01*
X15786848Y-10719360D02*
X15796372Y-10709836D01*
X15796372Y-10709836D02*
X15815420Y-10681265D01*
X15815420Y-10681265D02*
X15824944Y-10643170D01*
X15824944Y-10643170D02*
X15824944Y-10566979D01*
X15824944Y-10566979D02*
X15815420Y-10547931D01*
X15815420Y-10547931D02*
X15805896Y-10538408D01*
X15805896Y-10538408D02*
X15786848Y-10528884D01*
X15786848Y-10528884D02*
X15748753Y-10528884D01*
X15748753Y-10528884D02*
X15729706Y-10538408D01*
X15729706Y-10538408D02*
X15720182Y-10547931D01*
X15720182Y-10547931D02*
X15710658Y-10566979D01*
X15710658Y-10566979D02*
X15710658Y-10614598D01*
X15710658Y-10614598D02*
X15720182Y-10633646D01*
X15720182Y-10633646D02*
X15729706Y-10643170D01*
X15729706Y-10643170D02*
X15748753Y-10652693D01*
X15748753Y-10652693D02*
X15786848Y-10652693D01*
X15786848Y-10652693D02*
X15805896Y-10643170D01*
X15805896Y-10643170D02*
X15815420Y-10633646D01*
X15815420Y-10633646D02*
X15824944Y-10614598D01*
X15901134Y-10528884D02*
X15901134Y-10566979D01*
X15977325Y-10528884D02*
X15977325Y-10566979D01*
X16272563Y-10805074D02*
X16263039Y-10795550D01*
X16263039Y-10795550D02*
X16243991Y-10766979D01*
X16243991Y-10766979D02*
X16234468Y-10747931D01*
X16234468Y-10747931D02*
X16224944Y-10719360D01*
X16224944Y-10719360D02*
X16215420Y-10671741D01*
X16215420Y-10671741D02*
X16215420Y-10633646D01*
X16215420Y-10633646D02*
X16224944Y-10586027D01*
X16224944Y-10586027D02*
X16234468Y-10557455D01*
X16234468Y-10557455D02*
X16243991Y-10538408D01*
X16243991Y-10538408D02*
X16263039Y-10509836D01*
X16263039Y-10509836D02*
X16272563Y-10500312D01*
X16434468Y-10595550D02*
X16434468Y-10728884D01*
X16386848Y-10519360D02*
X16339229Y-10662217D01*
X16339229Y-10662217D02*
X16463039Y-10662217D01*
X16529706Y-10547931D02*
X16539229Y-10538408D01*
X16539229Y-10538408D02*
X16558277Y-10528884D01*
X16558277Y-10528884D02*
X16605896Y-10528884D01*
X16605896Y-10528884D02*
X16624944Y-10538408D01*
X16624944Y-10538408D02*
X16634468Y-10547931D01*
X16634468Y-10547931D02*
X16643991Y-10566979D01*
X16643991Y-10566979D02*
X16643991Y-10586027D01*
X16643991Y-10586027D02*
X16634468Y-10614598D01*
X16634468Y-10614598D02*
X16520182Y-10728884D01*
X16520182Y-10728884D02*
X16643991Y-10728884D01*
X16882087Y-10728884D02*
X16882087Y-10528884D01*
X16967801Y-10728884D02*
X16967801Y-10624122D01*
X16967801Y-10624122D02*
X16958277Y-10605074D01*
X16958277Y-10605074D02*
X16939230Y-10595550D01*
X16939230Y-10595550D02*
X16910658Y-10595550D01*
X16910658Y-10595550D02*
X16891611Y-10605074D01*
X16891611Y-10605074D02*
X16882087Y-10614598D01*
X17091611Y-10728884D02*
X17072563Y-10719360D01*
X17072563Y-10719360D02*
X17063039Y-10709836D01*
X17063039Y-10709836D02*
X17053515Y-10690789D01*
X17053515Y-10690789D02*
X17053515Y-10633646D01*
X17053515Y-10633646D02*
X17063039Y-10614598D01*
X17063039Y-10614598D02*
X17072563Y-10605074D01*
X17072563Y-10605074D02*
X17091611Y-10595550D01*
X17091611Y-10595550D02*
X17120182Y-10595550D01*
X17120182Y-10595550D02*
X17139230Y-10605074D01*
X17139230Y-10605074D02*
X17148753Y-10614598D01*
X17148753Y-10614598D02*
X17158277Y-10633646D01*
X17158277Y-10633646D02*
X17158277Y-10690789D01*
X17158277Y-10690789D02*
X17148753Y-10709836D01*
X17148753Y-10709836D02*
X17139230Y-10719360D01*
X17139230Y-10719360D02*
X17120182Y-10728884D01*
X17120182Y-10728884D02*
X17091611Y-10728884D01*
X17272563Y-10728884D02*
X17253515Y-10719360D01*
X17253515Y-10719360D02*
X17243992Y-10700312D01*
X17243992Y-10700312D02*
X17243992Y-10528884D01*
X17424944Y-10719360D02*
X17405896Y-10728884D01*
X17405896Y-10728884D02*
X17367801Y-10728884D01*
X17367801Y-10728884D02*
X17348753Y-10719360D01*
X17348753Y-10719360D02*
X17339230Y-10700312D01*
X17339230Y-10700312D02*
X17339230Y-10624122D01*
X17339230Y-10624122D02*
X17348753Y-10605074D01*
X17348753Y-10605074D02*
X17367801Y-10595550D01*
X17367801Y-10595550D02*
X17405896Y-10595550D01*
X17405896Y-10595550D02*
X17424944Y-10605074D01*
X17424944Y-10605074D02*
X17434468Y-10624122D01*
X17434468Y-10624122D02*
X17434468Y-10643170D01*
X17434468Y-10643170D02*
X17339230Y-10662217D01*
X17510658Y-10719360D02*
X17529706Y-10728884D01*
X17529706Y-10728884D02*
X17567801Y-10728884D01*
X17567801Y-10728884D02*
X17586849Y-10719360D01*
X17586849Y-10719360D02*
X17596373Y-10700312D01*
X17596373Y-10700312D02*
X17596373Y-10690789D01*
X17596373Y-10690789D02*
X17586849Y-10671741D01*
X17586849Y-10671741D02*
X17567801Y-10662217D01*
X17567801Y-10662217D02*
X17539230Y-10662217D01*
X17539230Y-10662217D02*
X17520182Y-10652693D01*
X17520182Y-10652693D02*
X17510658Y-10633646D01*
X17510658Y-10633646D02*
X17510658Y-10624122D01*
X17510658Y-10624122D02*
X17520182Y-10605074D01*
X17520182Y-10605074D02*
X17539230Y-10595550D01*
X17539230Y-10595550D02*
X17567801Y-10595550D01*
X17567801Y-10595550D02*
X17586849Y-10605074D01*
X17663039Y-10805074D02*
X17672563Y-10795550D01*
X17672563Y-10795550D02*
X17691611Y-10766979D01*
X17691611Y-10766979D02*
X17701134Y-10747931D01*
X17701134Y-10747931D02*
X17710658Y-10719360D01*
X17710658Y-10719360D02*
X17720182Y-10671741D01*
X17720182Y-10671741D02*
X17720182Y-10633646D01*
X17720182Y-10633646D02*
X17710658Y-10586027D01*
X17710658Y-10586027D02*
X17701134Y-10557455D01*
X17701134Y-10557455D02*
X17691611Y-10538408D01*
X17691611Y-10538408D02*
X17672563Y-10509836D01*
X17672563Y-10509836D02*
X17663039Y-10500312D01*
D12*
X12697500Y-10901400D02*
G75*
G02*
X12667500Y-10901400I-15000J0D01*
G01*
X12667500Y-10901400D02*
G75*
G02*
X12697500Y-10901400I15000J0D01*
G01*
D11*
X12996372Y-10792884D02*
X13015420Y-10792884D01*
X13015420Y-10792884D02*
X13034467Y-10802408D01*
X13034467Y-10802408D02*
X13043991Y-10811931D01*
X13043991Y-10811931D02*
X13053515Y-10830979D01*
X13053515Y-10830979D02*
X13063039Y-10869074D01*
X13063039Y-10869074D02*
X13063039Y-10916693D01*
X13063039Y-10916693D02*
X13053515Y-10954789D01*
X13053515Y-10954789D02*
X13043991Y-10973836D01*
X13043991Y-10973836D02*
X13034467Y-10983360D01*
X13034467Y-10983360D02*
X13015420Y-10992884D01*
X13015420Y-10992884D02*
X12996372Y-10992884D01*
X12996372Y-10992884D02*
X12977324Y-10983360D01*
X12977324Y-10983360D02*
X12967801Y-10973836D01*
X12967801Y-10973836D02*
X12958277Y-10954789D01*
X12958277Y-10954789D02*
X12948753Y-10916693D01*
X12948753Y-10916693D02*
X12948753Y-10869074D01*
X12948753Y-10869074D02*
X12958277Y-10830979D01*
X12958277Y-10830979D02*
X12967801Y-10811931D01*
X12967801Y-10811931D02*
X12977324Y-10802408D01*
X12977324Y-10802408D02*
X12996372Y-10792884D01*
X13148753Y-10973836D02*
X13158277Y-10983360D01*
X13158277Y-10983360D02*
X13148753Y-10992884D01*
X13148753Y-10992884D02*
X13139229Y-10983360D01*
X13139229Y-10983360D02*
X13148753Y-10973836D01*
X13148753Y-10973836D02*
X13148753Y-10992884D01*
X13224943Y-10792884D02*
X13348753Y-10792884D01*
X13348753Y-10792884D02*
X13282086Y-10869074D01*
X13282086Y-10869074D02*
X13310658Y-10869074D01*
X13310658Y-10869074D02*
X13329705Y-10878598D01*
X13329705Y-10878598D02*
X13339229Y-10888122D01*
X13339229Y-10888122D02*
X13348753Y-10907170D01*
X13348753Y-10907170D02*
X13348753Y-10954789D01*
X13348753Y-10954789D02*
X13339229Y-10973836D01*
X13339229Y-10973836D02*
X13329705Y-10983360D01*
X13329705Y-10983360D02*
X13310658Y-10992884D01*
X13310658Y-10992884D02*
X13253515Y-10992884D01*
X13253515Y-10992884D02*
X13234467Y-10983360D01*
X13234467Y-10983360D02*
X13224943Y-10973836D01*
X13472562Y-10792884D02*
X13491610Y-10792884D01*
X13491610Y-10792884D02*
X13510658Y-10802408D01*
X13510658Y-10802408D02*
X13520182Y-10811931D01*
X13520182Y-10811931D02*
X13529705Y-10830979D01*
X13529705Y-10830979D02*
X13539229Y-10869074D01*
X13539229Y-10869074D02*
X13539229Y-10916693D01*
X13539229Y-10916693D02*
X13529705Y-10954789D01*
X13529705Y-10954789D02*
X13520182Y-10973836D01*
X13520182Y-10973836D02*
X13510658Y-10983360D01*
X13510658Y-10983360D02*
X13491610Y-10992884D01*
X13491610Y-10992884D02*
X13472562Y-10992884D01*
X13472562Y-10992884D02*
X13453515Y-10983360D01*
X13453515Y-10983360D02*
X13443991Y-10973836D01*
X13443991Y-10973836D02*
X13434467Y-10954789D01*
X13434467Y-10954789D02*
X13424943Y-10916693D01*
X13424943Y-10916693D02*
X13424943Y-10869074D01*
X13424943Y-10869074D02*
X13434467Y-10830979D01*
X13434467Y-10830979D02*
X13443991Y-10811931D01*
X13443991Y-10811931D02*
X13453515Y-10802408D01*
X13453515Y-10802408D02*
X13472562Y-10792884D01*
X13663039Y-10792884D02*
X13682086Y-10792884D01*
X13682086Y-10792884D02*
X13701134Y-10802408D01*
X13701134Y-10802408D02*
X13710658Y-10811931D01*
X13710658Y-10811931D02*
X13720182Y-10830979D01*
X13720182Y-10830979D02*
X13729705Y-10869074D01*
X13729705Y-10869074D02*
X13729705Y-10916693D01*
X13729705Y-10916693D02*
X13720182Y-10954789D01*
X13720182Y-10954789D02*
X13710658Y-10973836D01*
X13710658Y-10973836D02*
X13701134Y-10983360D01*
X13701134Y-10983360D02*
X13682086Y-10992884D01*
X13682086Y-10992884D02*
X13663039Y-10992884D01*
X13663039Y-10992884D02*
X13643991Y-10983360D01*
X13643991Y-10983360D02*
X13634467Y-10973836D01*
X13634467Y-10973836D02*
X13624943Y-10954789D01*
X13624943Y-10954789D02*
X13615420Y-10916693D01*
X13615420Y-10916693D02*
X13615420Y-10869074D01*
X13615420Y-10869074D02*
X13624943Y-10830979D01*
X13624943Y-10830979D02*
X13634467Y-10811931D01*
X13634467Y-10811931D02*
X13643991Y-10802408D01*
X13643991Y-10802408D02*
X13663039Y-10792884D01*
X13815420Y-10992884D02*
X13815420Y-10859550D01*
X13815420Y-10878598D02*
X13824943Y-10869074D01*
X13824943Y-10869074D02*
X13843991Y-10859550D01*
X13843991Y-10859550D02*
X13872563Y-10859550D01*
X13872563Y-10859550D02*
X13891610Y-10869074D01*
X13891610Y-10869074D02*
X13901134Y-10888122D01*
X13901134Y-10888122D02*
X13901134Y-10992884D01*
X13901134Y-10888122D02*
X13910658Y-10869074D01*
X13910658Y-10869074D02*
X13929705Y-10859550D01*
X13929705Y-10859550D02*
X13958277Y-10859550D01*
X13958277Y-10859550D02*
X13977324Y-10869074D01*
X13977324Y-10869074D02*
X13986848Y-10888122D01*
X13986848Y-10888122D02*
X13986848Y-10992884D01*
X14082086Y-10992884D02*
X14082086Y-10859550D01*
X14082086Y-10878598D02*
X14091610Y-10869074D01*
X14091610Y-10869074D02*
X14110658Y-10859550D01*
X14110658Y-10859550D02*
X14139229Y-10859550D01*
X14139229Y-10859550D02*
X14158277Y-10869074D01*
X14158277Y-10869074D02*
X14167801Y-10888122D01*
X14167801Y-10888122D02*
X14167801Y-10992884D01*
X14167801Y-10888122D02*
X14177324Y-10869074D01*
X14177324Y-10869074D02*
X14196372Y-10859550D01*
X14196372Y-10859550D02*
X14224943Y-10859550D01*
X14224943Y-10859550D02*
X14243991Y-10869074D01*
X14243991Y-10869074D02*
X14253515Y-10888122D01*
X14253515Y-10888122D02*
X14253515Y-10992884D01*
X14643991Y-10783360D02*
X14472563Y-11040503D01*
X14901134Y-10792884D02*
X14920182Y-10792884D01*
X14920182Y-10792884D02*
X14939229Y-10802408D01*
X14939229Y-10802408D02*
X14948753Y-10811931D01*
X14948753Y-10811931D02*
X14958277Y-10830979D01*
X14958277Y-10830979D02*
X14967801Y-10869074D01*
X14967801Y-10869074D02*
X14967801Y-10916693D01*
X14967801Y-10916693D02*
X14958277Y-10954789D01*
X14958277Y-10954789D02*
X14948753Y-10973836D01*
X14948753Y-10973836D02*
X14939229Y-10983360D01*
X14939229Y-10983360D02*
X14920182Y-10992884D01*
X14920182Y-10992884D02*
X14901134Y-10992884D01*
X14901134Y-10992884D02*
X14882086Y-10983360D01*
X14882086Y-10983360D02*
X14872563Y-10973836D01*
X14872563Y-10973836D02*
X14863039Y-10954789D01*
X14863039Y-10954789D02*
X14853515Y-10916693D01*
X14853515Y-10916693D02*
X14853515Y-10869074D01*
X14853515Y-10869074D02*
X14863039Y-10830979D01*
X14863039Y-10830979D02*
X14872563Y-10811931D01*
X14872563Y-10811931D02*
X14882086Y-10802408D01*
X14882086Y-10802408D02*
X14901134Y-10792884D01*
X15053515Y-10973836D02*
X15063039Y-10983360D01*
X15063039Y-10983360D02*
X15053515Y-10992884D01*
X15053515Y-10992884D02*
X15043991Y-10983360D01*
X15043991Y-10983360D02*
X15053515Y-10973836D01*
X15053515Y-10973836D02*
X15053515Y-10992884D01*
X15186848Y-10792884D02*
X15205896Y-10792884D01*
X15205896Y-10792884D02*
X15224944Y-10802408D01*
X15224944Y-10802408D02*
X15234467Y-10811931D01*
X15234467Y-10811931D02*
X15243991Y-10830979D01*
X15243991Y-10830979D02*
X15253515Y-10869074D01*
X15253515Y-10869074D02*
X15253515Y-10916693D01*
X15253515Y-10916693D02*
X15243991Y-10954789D01*
X15243991Y-10954789D02*
X15234467Y-10973836D01*
X15234467Y-10973836D02*
X15224944Y-10983360D01*
X15224944Y-10983360D02*
X15205896Y-10992884D01*
X15205896Y-10992884D02*
X15186848Y-10992884D01*
X15186848Y-10992884D02*
X15167801Y-10983360D01*
X15167801Y-10983360D02*
X15158277Y-10973836D01*
X15158277Y-10973836D02*
X15148753Y-10954789D01*
X15148753Y-10954789D02*
X15139229Y-10916693D01*
X15139229Y-10916693D02*
X15139229Y-10869074D01*
X15139229Y-10869074D02*
X15148753Y-10830979D01*
X15148753Y-10830979D02*
X15158277Y-10811931D01*
X15158277Y-10811931D02*
X15167801Y-10802408D01*
X15167801Y-10802408D02*
X15186848Y-10792884D01*
X15443991Y-10992884D02*
X15329706Y-10992884D01*
X15386848Y-10992884D02*
X15386848Y-10792884D01*
X15386848Y-10792884D02*
X15367801Y-10821455D01*
X15367801Y-10821455D02*
X15348753Y-10840503D01*
X15348753Y-10840503D02*
X15329706Y-10850027D01*
X15634467Y-10992884D02*
X15520182Y-10992884D01*
X15577325Y-10992884D02*
X15577325Y-10792884D01*
X15577325Y-10792884D02*
X15558277Y-10821455D01*
X15558277Y-10821455D02*
X15539229Y-10840503D01*
X15539229Y-10840503D02*
X15520182Y-10850027D01*
X15748753Y-10878598D02*
X15729706Y-10869074D01*
X15729706Y-10869074D02*
X15720182Y-10859550D01*
X15720182Y-10859550D02*
X15710658Y-10840503D01*
X15710658Y-10840503D02*
X15710658Y-10830979D01*
X15710658Y-10830979D02*
X15720182Y-10811931D01*
X15720182Y-10811931D02*
X15729706Y-10802408D01*
X15729706Y-10802408D02*
X15748753Y-10792884D01*
X15748753Y-10792884D02*
X15786848Y-10792884D01*
X15786848Y-10792884D02*
X15805896Y-10802408D01*
X15805896Y-10802408D02*
X15815420Y-10811931D01*
X15815420Y-10811931D02*
X15824944Y-10830979D01*
X15824944Y-10830979D02*
X15824944Y-10840503D01*
X15824944Y-10840503D02*
X15815420Y-10859550D01*
X15815420Y-10859550D02*
X15805896Y-10869074D01*
X15805896Y-10869074D02*
X15786848Y-10878598D01*
X15786848Y-10878598D02*
X15748753Y-10878598D01*
X15748753Y-10878598D02*
X15729706Y-10888122D01*
X15729706Y-10888122D02*
X15720182Y-10897646D01*
X15720182Y-10897646D02*
X15710658Y-10916693D01*
X15710658Y-10916693D02*
X15710658Y-10954789D01*
X15710658Y-10954789D02*
X15720182Y-10973836D01*
X15720182Y-10973836D02*
X15729706Y-10983360D01*
X15729706Y-10983360D02*
X15748753Y-10992884D01*
X15748753Y-10992884D02*
X15786848Y-10992884D01*
X15786848Y-10992884D02*
X15805896Y-10983360D01*
X15805896Y-10983360D02*
X15815420Y-10973836D01*
X15815420Y-10973836D02*
X15824944Y-10954789D01*
X15824944Y-10954789D02*
X15824944Y-10916693D01*
X15824944Y-10916693D02*
X15815420Y-10897646D01*
X15815420Y-10897646D02*
X15805896Y-10888122D01*
X15805896Y-10888122D02*
X15786848Y-10878598D01*
X15901134Y-10792884D02*
X15901134Y-10830979D01*
X15977325Y-10792884D02*
X15977325Y-10830979D01*
X16272563Y-11069074D02*
X16263039Y-11059550D01*
X16263039Y-11059550D02*
X16243991Y-11030979D01*
X16243991Y-11030979D02*
X16234468Y-11011931D01*
X16234468Y-11011931D02*
X16224944Y-10983360D01*
X16224944Y-10983360D02*
X16215420Y-10935741D01*
X16215420Y-10935741D02*
X16215420Y-10897646D01*
X16215420Y-10897646D02*
X16224944Y-10850027D01*
X16224944Y-10850027D02*
X16234468Y-10821455D01*
X16234468Y-10821455D02*
X16243991Y-10802408D01*
X16243991Y-10802408D02*
X16263039Y-10773836D01*
X16263039Y-10773836D02*
X16272563Y-10764312D01*
X16453515Y-10992884D02*
X16339229Y-10992884D01*
X16396372Y-10992884D02*
X16396372Y-10792884D01*
X16396372Y-10792884D02*
X16377325Y-10821455D01*
X16377325Y-10821455D02*
X16358277Y-10840503D01*
X16358277Y-10840503D02*
X16339229Y-10850027D01*
X16529706Y-10811931D02*
X16539229Y-10802408D01*
X16539229Y-10802408D02*
X16558277Y-10792884D01*
X16558277Y-10792884D02*
X16605896Y-10792884D01*
X16605896Y-10792884D02*
X16624944Y-10802408D01*
X16624944Y-10802408D02*
X16634468Y-10811931D01*
X16634468Y-10811931D02*
X16643991Y-10830979D01*
X16643991Y-10830979D02*
X16643991Y-10850027D01*
X16643991Y-10850027D02*
X16634468Y-10878598D01*
X16634468Y-10878598D02*
X16520182Y-10992884D01*
X16520182Y-10992884D02*
X16643991Y-10992884D01*
X16882087Y-10992884D02*
X16882087Y-10792884D01*
X16967801Y-10992884D02*
X16967801Y-10888122D01*
X16967801Y-10888122D02*
X16958277Y-10869074D01*
X16958277Y-10869074D02*
X16939230Y-10859550D01*
X16939230Y-10859550D02*
X16910658Y-10859550D01*
X16910658Y-10859550D02*
X16891611Y-10869074D01*
X16891611Y-10869074D02*
X16882087Y-10878598D01*
X17091611Y-10992884D02*
X17072563Y-10983360D01*
X17072563Y-10983360D02*
X17063039Y-10973836D01*
X17063039Y-10973836D02*
X17053515Y-10954789D01*
X17053515Y-10954789D02*
X17053515Y-10897646D01*
X17053515Y-10897646D02*
X17063039Y-10878598D01*
X17063039Y-10878598D02*
X17072563Y-10869074D01*
X17072563Y-10869074D02*
X17091611Y-10859550D01*
X17091611Y-10859550D02*
X17120182Y-10859550D01*
X17120182Y-10859550D02*
X17139230Y-10869074D01*
X17139230Y-10869074D02*
X17148753Y-10878598D01*
X17148753Y-10878598D02*
X17158277Y-10897646D01*
X17158277Y-10897646D02*
X17158277Y-10954789D01*
X17158277Y-10954789D02*
X17148753Y-10973836D01*
X17148753Y-10973836D02*
X17139230Y-10983360D01*
X17139230Y-10983360D02*
X17120182Y-10992884D01*
X17120182Y-10992884D02*
X17091611Y-10992884D01*
X17272563Y-10992884D02*
X17253515Y-10983360D01*
X17253515Y-10983360D02*
X17243992Y-10964312D01*
X17243992Y-10964312D02*
X17243992Y-10792884D01*
X17424944Y-10983360D02*
X17405896Y-10992884D01*
X17405896Y-10992884D02*
X17367801Y-10992884D01*
X17367801Y-10992884D02*
X17348753Y-10983360D01*
X17348753Y-10983360D02*
X17339230Y-10964312D01*
X17339230Y-10964312D02*
X17339230Y-10888122D01*
X17339230Y-10888122D02*
X17348753Y-10869074D01*
X17348753Y-10869074D02*
X17367801Y-10859550D01*
X17367801Y-10859550D02*
X17405896Y-10859550D01*
X17405896Y-10859550D02*
X17424944Y-10869074D01*
X17424944Y-10869074D02*
X17434468Y-10888122D01*
X17434468Y-10888122D02*
X17434468Y-10907170D01*
X17434468Y-10907170D02*
X17339230Y-10926217D01*
X17510658Y-10983360D02*
X17529706Y-10992884D01*
X17529706Y-10992884D02*
X17567801Y-10992884D01*
X17567801Y-10992884D02*
X17586849Y-10983360D01*
X17586849Y-10983360D02*
X17596373Y-10964312D01*
X17596373Y-10964312D02*
X17596373Y-10954789D01*
X17596373Y-10954789D02*
X17586849Y-10935741D01*
X17586849Y-10935741D02*
X17567801Y-10926217D01*
X17567801Y-10926217D02*
X17539230Y-10926217D01*
X17539230Y-10926217D02*
X17520182Y-10916693D01*
X17520182Y-10916693D02*
X17510658Y-10897646D01*
X17510658Y-10897646D02*
X17510658Y-10888122D01*
X17510658Y-10888122D02*
X17520182Y-10869074D01*
X17520182Y-10869074D02*
X17539230Y-10859550D01*
X17539230Y-10859550D02*
X17567801Y-10859550D01*
X17567801Y-10859550D02*
X17586849Y-10869074D01*
X17663039Y-11069074D02*
X17672563Y-11059550D01*
X17672563Y-11059550D02*
X17691611Y-11030979D01*
X17691611Y-11030979D02*
X17701134Y-11011931D01*
X17701134Y-11011931D02*
X17710658Y-10983360D01*
X17710658Y-10983360D02*
X17720182Y-10935741D01*
X17720182Y-10935741D02*
X17720182Y-10897646D01*
X17720182Y-10897646D02*
X17710658Y-10850027D01*
X17710658Y-10850027D02*
X17701134Y-10821455D01*
X17701134Y-10821455D02*
X17691611Y-10802408D01*
X17691611Y-10802408D02*
X17672563Y-10773836D01*
X17672563Y-10773836D02*
X17663039Y-10764312D01*
D12*
X12662500Y-11130400D02*
X12662500Y-11200400D01*
X12627500Y-11165400D02*
X12697500Y-11165400D01*
D11*
X12996372Y-11056884D02*
X13015420Y-11056884D01*
X13015420Y-11056884D02*
X13034467Y-11066408D01*
X13034467Y-11066408D02*
X13043991Y-11075931D01*
X13043991Y-11075931D02*
X13053515Y-11094979D01*
X13053515Y-11094979D02*
X13063039Y-11133074D01*
X13063039Y-11133074D02*
X13063039Y-11180693D01*
X13063039Y-11180693D02*
X13053515Y-11218788D01*
X13053515Y-11218788D02*
X13043991Y-11237836D01*
X13043991Y-11237836D02*
X13034467Y-11247360D01*
X13034467Y-11247360D02*
X13015420Y-11256884D01*
X13015420Y-11256884D02*
X12996372Y-11256884D01*
X12996372Y-11256884D02*
X12977324Y-11247360D01*
X12977324Y-11247360D02*
X12967801Y-11237836D01*
X12967801Y-11237836D02*
X12958277Y-11218788D01*
X12958277Y-11218788D02*
X12948753Y-11180693D01*
X12948753Y-11180693D02*
X12948753Y-11133074D01*
X12948753Y-11133074D02*
X12958277Y-11094979D01*
X12958277Y-11094979D02*
X12967801Y-11075931D01*
X12967801Y-11075931D02*
X12977324Y-11066408D01*
X12977324Y-11066408D02*
X12996372Y-11056884D01*
X13148753Y-11237836D02*
X13158277Y-11247360D01*
X13158277Y-11247360D02*
X13148753Y-11256884D01*
X13148753Y-11256884D02*
X13139229Y-11247360D01*
X13139229Y-11247360D02*
X13148753Y-11237836D01*
X13148753Y-11237836D02*
X13148753Y-11256884D01*
X13224943Y-11056884D02*
X13358277Y-11056884D01*
X13358277Y-11056884D02*
X13272562Y-11256884D01*
X13472562Y-11056884D02*
X13491610Y-11056884D01*
X13491610Y-11056884D02*
X13510658Y-11066408D01*
X13510658Y-11066408D02*
X13520182Y-11075931D01*
X13520182Y-11075931D02*
X13529705Y-11094979D01*
X13529705Y-11094979D02*
X13539229Y-11133074D01*
X13539229Y-11133074D02*
X13539229Y-11180693D01*
X13539229Y-11180693D02*
X13529705Y-11218788D01*
X13529705Y-11218788D02*
X13520182Y-11237836D01*
X13520182Y-11237836D02*
X13510658Y-11247360D01*
X13510658Y-11247360D02*
X13491610Y-11256884D01*
X13491610Y-11256884D02*
X13472562Y-11256884D01*
X13472562Y-11256884D02*
X13453515Y-11247360D01*
X13453515Y-11247360D02*
X13443991Y-11237836D01*
X13443991Y-11237836D02*
X13434467Y-11218788D01*
X13434467Y-11218788D02*
X13424943Y-11180693D01*
X13424943Y-11180693D02*
X13424943Y-11133074D01*
X13424943Y-11133074D02*
X13434467Y-11094979D01*
X13434467Y-11094979D02*
X13443991Y-11075931D01*
X13443991Y-11075931D02*
X13453515Y-11066408D01*
X13453515Y-11066408D02*
X13472562Y-11056884D01*
X13663039Y-11056884D02*
X13682086Y-11056884D01*
X13682086Y-11056884D02*
X13701134Y-11066408D01*
X13701134Y-11066408D02*
X13710658Y-11075931D01*
X13710658Y-11075931D02*
X13720182Y-11094979D01*
X13720182Y-11094979D02*
X13729705Y-11133074D01*
X13729705Y-11133074D02*
X13729705Y-11180693D01*
X13729705Y-11180693D02*
X13720182Y-11218788D01*
X13720182Y-11218788D02*
X13710658Y-11237836D01*
X13710658Y-11237836D02*
X13701134Y-11247360D01*
X13701134Y-11247360D02*
X13682086Y-11256884D01*
X13682086Y-11256884D02*
X13663039Y-11256884D01*
X13663039Y-11256884D02*
X13643991Y-11247360D01*
X13643991Y-11247360D02*
X13634467Y-11237836D01*
X13634467Y-11237836D02*
X13624943Y-11218788D01*
X13624943Y-11218788D02*
X13615420Y-11180693D01*
X13615420Y-11180693D02*
X13615420Y-11133074D01*
X13615420Y-11133074D02*
X13624943Y-11094979D01*
X13624943Y-11094979D02*
X13634467Y-11075931D01*
X13634467Y-11075931D02*
X13643991Y-11066408D01*
X13643991Y-11066408D02*
X13663039Y-11056884D01*
X13815420Y-11256884D02*
X13815420Y-11123550D01*
X13815420Y-11142598D02*
X13824943Y-11133074D01*
X13824943Y-11133074D02*
X13843991Y-11123550D01*
X13843991Y-11123550D02*
X13872563Y-11123550D01*
X13872563Y-11123550D02*
X13891610Y-11133074D01*
X13891610Y-11133074D02*
X13901134Y-11152122D01*
X13901134Y-11152122D02*
X13901134Y-11256884D01*
X13901134Y-11152122D02*
X13910658Y-11133074D01*
X13910658Y-11133074D02*
X13929705Y-11123550D01*
X13929705Y-11123550D02*
X13958277Y-11123550D01*
X13958277Y-11123550D02*
X13977324Y-11133074D01*
X13977324Y-11133074D02*
X13986848Y-11152122D01*
X13986848Y-11152122D02*
X13986848Y-11256884D01*
X14082086Y-11256884D02*
X14082086Y-11123550D01*
X14082086Y-11142598D02*
X14091610Y-11133074D01*
X14091610Y-11133074D02*
X14110658Y-11123550D01*
X14110658Y-11123550D02*
X14139229Y-11123550D01*
X14139229Y-11123550D02*
X14158277Y-11133074D01*
X14158277Y-11133074D02*
X14167801Y-11152122D01*
X14167801Y-11152122D02*
X14167801Y-11256884D01*
X14167801Y-11152122D02*
X14177324Y-11133074D01*
X14177324Y-11133074D02*
X14196372Y-11123550D01*
X14196372Y-11123550D02*
X14224943Y-11123550D01*
X14224943Y-11123550D02*
X14243991Y-11133074D01*
X14243991Y-11133074D02*
X14253515Y-11152122D01*
X14253515Y-11152122D02*
X14253515Y-11256884D01*
X14643991Y-11047360D02*
X14472563Y-11304503D01*
X14901134Y-11056884D02*
X14920182Y-11056884D01*
X14920182Y-11056884D02*
X14939229Y-11066408D01*
X14939229Y-11066408D02*
X14948753Y-11075931D01*
X14948753Y-11075931D02*
X14958277Y-11094979D01*
X14958277Y-11094979D02*
X14967801Y-11133074D01*
X14967801Y-11133074D02*
X14967801Y-11180693D01*
X14967801Y-11180693D02*
X14958277Y-11218788D01*
X14958277Y-11218788D02*
X14948753Y-11237836D01*
X14948753Y-11237836D02*
X14939229Y-11247360D01*
X14939229Y-11247360D02*
X14920182Y-11256884D01*
X14920182Y-11256884D02*
X14901134Y-11256884D01*
X14901134Y-11256884D02*
X14882086Y-11247360D01*
X14882086Y-11247360D02*
X14872563Y-11237836D01*
X14872563Y-11237836D02*
X14863039Y-11218788D01*
X14863039Y-11218788D02*
X14853515Y-11180693D01*
X14853515Y-11180693D02*
X14853515Y-11133074D01*
X14853515Y-11133074D02*
X14863039Y-11094979D01*
X14863039Y-11094979D02*
X14872563Y-11075931D01*
X14872563Y-11075931D02*
X14882086Y-11066408D01*
X14882086Y-11066408D02*
X14901134Y-11056884D01*
X15053515Y-11237836D02*
X15063039Y-11247360D01*
X15063039Y-11247360D02*
X15053515Y-11256884D01*
X15053515Y-11256884D02*
X15043991Y-11247360D01*
X15043991Y-11247360D02*
X15053515Y-11237836D01*
X15053515Y-11237836D02*
X15053515Y-11256884D01*
X15186848Y-11056884D02*
X15205896Y-11056884D01*
X15205896Y-11056884D02*
X15224944Y-11066408D01*
X15224944Y-11066408D02*
X15234467Y-11075931D01*
X15234467Y-11075931D02*
X15243991Y-11094979D01*
X15243991Y-11094979D02*
X15253515Y-11133074D01*
X15253515Y-11133074D02*
X15253515Y-11180693D01*
X15253515Y-11180693D02*
X15243991Y-11218788D01*
X15243991Y-11218788D02*
X15234467Y-11237836D01*
X15234467Y-11237836D02*
X15224944Y-11247360D01*
X15224944Y-11247360D02*
X15205896Y-11256884D01*
X15205896Y-11256884D02*
X15186848Y-11256884D01*
X15186848Y-11256884D02*
X15167801Y-11247360D01*
X15167801Y-11247360D02*
X15158277Y-11237836D01*
X15158277Y-11237836D02*
X15148753Y-11218788D01*
X15148753Y-11218788D02*
X15139229Y-11180693D01*
X15139229Y-11180693D02*
X15139229Y-11133074D01*
X15139229Y-11133074D02*
X15148753Y-11094979D01*
X15148753Y-11094979D02*
X15158277Y-11075931D01*
X15158277Y-11075931D02*
X15167801Y-11066408D01*
X15167801Y-11066408D02*
X15186848Y-11056884D01*
X15329706Y-11075931D02*
X15339229Y-11066408D01*
X15339229Y-11066408D02*
X15358277Y-11056884D01*
X15358277Y-11056884D02*
X15405896Y-11056884D01*
X15405896Y-11056884D02*
X15424944Y-11066408D01*
X15424944Y-11066408D02*
X15434467Y-11075931D01*
X15434467Y-11075931D02*
X15443991Y-11094979D01*
X15443991Y-11094979D02*
X15443991Y-11114027D01*
X15443991Y-11114027D02*
X15434467Y-11142598D01*
X15434467Y-11142598D02*
X15320182Y-11256884D01*
X15320182Y-11256884D02*
X15443991Y-11256884D01*
X15510658Y-11056884D02*
X15643991Y-11056884D01*
X15643991Y-11056884D02*
X15558277Y-11256884D01*
X15805896Y-11056884D02*
X15767801Y-11056884D01*
X15767801Y-11056884D02*
X15748753Y-11066408D01*
X15748753Y-11066408D02*
X15739229Y-11075931D01*
X15739229Y-11075931D02*
X15720182Y-11104503D01*
X15720182Y-11104503D02*
X15710658Y-11142598D01*
X15710658Y-11142598D02*
X15710658Y-11218788D01*
X15710658Y-11218788D02*
X15720182Y-11237836D01*
X15720182Y-11237836D02*
X15729706Y-11247360D01*
X15729706Y-11247360D02*
X15748753Y-11256884D01*
X15748753Y-11256884D02*
X15786848Y-11256884D01*
X15786848Y-11256884D02*
X15805896Y-11247360D01*
X15805896Y-11247360D02*
X15815420Y-11237836D01*
X15815420Y-11237836D02*
X15824944Y-11218788D01*
X15824944Y-11218788D02*
X15824944Y-11171170D01*
X15824944Y-11171170D02*
X15815420Y-11152122D01*
X15815420Y-11152122D02*
X15805896Y-11142598D01*
X15805896Y-11142598D02*
X15786848Y-11133074D01*
X15786848Y-11133074D02*
X15748753Y-11133074D01*
X15748753Y-11133074D02*
X15729706Y-11142598D01*
X15729706Y-11142598D02*
X15720182Y-11152122D01*
X15720182Y-11152122D02*
X15710658Y-11171170D01*
X15901134Y-11056884D02*
X15901134Y-11094979D01*
X15977325Y-11056884D02*
X15977325Y-11094979D01*
X16272563Y-11333074D02*
X16263039Y-11323550D01*
X16263039Y-11323550D02*
X16243991Y-11294979D01*
X16243991Y-11294979D02*
X16234468Y-11275931D01*
X16234468Y-11275931D02*
X16224944Y-11247360D01*
X16224944Y-11247360D02*
X16215420Y-11199741D01*
X16215420Y-11199741D02*
X16215420Y-11161646D01*
X16215420Y-11161646D02*
X16224944Y-11114027D01*
X16224944Y-11114027D02*
X16234468Y-11085455D01*
X16234468Y-11085455D02*
X16243991Y-11066408D01*
X16243991Y-11066408D02*
X16263039Y-11037836D01*
X16263039Y-11037836D02*
X16272563Y-11028312D01*
X16339229Y-11075931D02*
X16348753Y-11066408D01*
X16348753Y-11066408D02*
X16367801Y-11056884D01*
X16367801Y-11056884D02*
X16415420Y-11056884D01*
X16415420Y-11056884D02*
X16434468Y-11066408D01*
X16434468Y-11066408D02*
X16443991Y-11075931D01*
X16443991Y-11075931D02*
X16453515Y-11094979D01*
X16453515Y-11094979D02*
X16453515Y-11114027D01*
X16453515Y-11114027D02*
X16443991Y-11142598D01*
X16443991Y-11142598D02*
X16329706Y-11256884D01*
X16329706Y-11256884D02*
X16453515Y-11256884D01*
X16691610Y-11256884D02*
X16691610Y-11056884D01*
X16777325Y-11256884D02*
X16777325Y-11152122D01*
X16777325Y-11152122D02*
X16767801Y-11133074D01*
X16767801Y-11133074D02*
X16748753Y-11123550D01*
X16748753Y-11123550D02*
X16720182Y-11123550D01*
X16720182Y-11123550D02*
X16701134Y-11133074D01*
X16701134Y-11133074D02*
X16691610Y-11142598D01*
X16901134Y-11256884D02*
X16882087Y-11247360D01*
X16882087Y-11247360D02*
X16872563Y-11237836D01*
X16872563Y-11237836D02*
X16863039Y-11218788D01*
X16863039Y-11218788D02*
X16863039Y-11161646D01*
X16863039Y-11161646D02*
X16872563Y-11142598D01*
X16872563Y-11142598D02*
X16882087Y-11133074D01*
X16882087Y-11133074D02*
X16901134Y-11123550D01*
X16901134Y-11123550D02*
X16929706Y-11123550D01*
X16929706Y-11123550D02*
X16948753Y-11133074D01*
X16948753Y-11133074D02*
X16958277Y-11142598D01*
X16958277Y-11142598D02*
X16967801Y-11161646D01*
X16967801Y-11161646D02*
X16967801Y-11218788D01*
X16967801Y-11218788D02*
X16958277Y-11237836D01*
X16958277Y-11237836D02*
X16948753Y-11247360D01*
X16948753Y-11247360D02*
X16929706Y-11256884D01*
X16929706Y-11256884D02*
X16901134Y-11256884D01*
X17082087Y-11256884D02*
X17063039Y-11247360D01*
X17063039Y-11247360D02*
X17053515Y-11228312D01*
X17053515Y-11228312D02*
X17053515Y-11056884D01*
X17234468Y-11247360D02*
X17215420Y-11256884D01*
X17215420Y-11256884D02*
X17177325Y-11256884D01*
X17177325Y-11256884D02*
X17158277Y-11247360D01*
X17158277Y-11247360D02*
X17148753Y-11228312D01*
X17148753Y-11228312D02*
X17148753Y-11152122D01*
X17148753Y-11152122D02*
X17158277Y-11133074D01*
X17158277Y-11133074D02*
X17177325Y-11123550D01*
X17177325Y-11123550D02*
X17215420Y-11123550D01*
X17215420Y-11123550D02*
X17234468Y-11133074D01*
X17234468Y-11133074D02*
X17243992Y-11152122D01*
X17243992Y-11152122D02*
X17243992Y-11171170D01*
X17243992Y-11171170D02*
X17148753Y-11190217D01*
X17320182Y-11247360D02*
X17339230Y-11256884D01*
X17339230Y-11256884D02*
X17377325Y-11256884D01*
X17377325Y-11256884D02*
X17396373Y-11247360D01*
X17396373Y-11247360D02*
X17405896Y-11228312D01*
X17405896Y-11228312D02*
X17405896Y-11218788D01*
X17405896Y-11218788D02*
X17396373Y-11199741D01*
X17396373Y-11199741D02*
X17377325Y-11190217D01*
X17377325Y-11190217D02*
X17348753Y-11190217D01*
X17348753Y-11190217D02*
X17329706Y-11180693D01*
X17329706Y-11180693D02*
X17320182Y-11161646D01*
X17320182Y-11161646D02*
X17320182Y-11152122D01*
X17320182Y-11152122D02*
X17329706Y-11133074D01*
X17329706Y-11133074D02*
X17348753Y-11123550D01*
X17348753Y-11123550D02*
X17377325Y-11123550D01*
X17377325Y-11123550D02*
X17396373Y-11133074D01*
X17472563Y-11333074D02*
X17482087Y-11323550D01*
X17482087Y-11323550D02*
X17501134Y-11294979D01*
X17501134Y-11294979D02*
X17510658Y-11275931D01*
X17510658Y-11275931D02*
X17520182Y-11247360D01*
X17520182Y-11247360D02*
X17529706Y-11199741D01*
X17529706Y-11199741D02*
X17529706Y-11161646D01*
X17529706Y-11161646D02*
X17520182Y-11114027D01*
X17520182Y-11114027D02*
X17510658Y-11085455D01*
X17510658Y-11085455D02*
X17501134Y-11066408D01*
X17501134Y-11066408D02*
X17482087Y-11037836D01*
X17482087Y-11037836D02*
X17472563Y-11028312D01*
D12*
X12685784Y-11457684D02*
X12685784Y-11401115D01*
X12629215Y-11401115D01*
X12629215Y-11457684D01*
X12685784Y-11457684D01*
D11*
X12996372Y-11320884D02*
X13015420Y-11320884D01*
X13015420Y-11320884D02*
X13034467Y-11330408D01*
X13034467Y-11330408D02*
X13043991Y-11339931D01*
X13043991Y-11339931D02*
X13053515Y-11358979D01*
X13053515Y-11358979D02*
X13063039Y-11397074D01*
X13063039Y-11397074D02*
X13063039Y-11444693D01*
X13063039Y-11444693D02*
X13053515Y-11482788D01*
X13053515Y-11482788D02*
X13043991Y-11501836D01*
X13043991Y-11501836D02*
X13034467Y-11511360D01*
X13034467Y-11511360D02*
X13015420Y-11520884D01*
X13015420Y-11520884D02*
X12996372Y-11520884D01*
X12996372Y-11520884D02*
X12977324Y-11511360D01*
X12977324Y-11511360D02*
X12967801Y-11501836D01*
X12967801Y-11501836D02*
X12958277Y-11482788D01*
X12958277Y-11482788D02*
X12948753Y-11444693D01*
X12948753Y-11444693D02*
X12948753Y-11397074D01*
X12948753Y-11397074D02*
X12958277Y-11358979D01*
X12958277Y-11358979D02*
X12967801Y-11339931D01*
X12967801Y-11339931D02*
X12977324Y-11330408D01*
X12977324Y-11330408D02*
X12996372Y-11320884D01*
X13148753Y-11501836D02*
X13158277Y-11511360D01*
X13158277Y-11511360D02*
X13148753Y-11520884D01*
X13148753Y-11520884D02*
X13139229Y-11511360D01*
X13139229Y-11511360D02*
X13148753Y-11501836D01*
X13148753Y-11501836D02*
X13148753Y-11520884D01*
X13272562Y-11406598D02*
X13253515Y-11397074D01*
X13253515Y-11397074D02*
X13243991Y-11387550D01*
X13243991Y-11387550D02*
X13234467Y-11368503D01*
X13234467Y-11368503D02*
X13234467Y-11358979D01*
X13234467Y-11358979D02*
X13243991Y-11339931D01*
X13243991Y-11339931D02*
X13253515Y-11330408D01*
X13253515Y-11330408D02*
X13272562Y-11320884D01*
X13272562Y-11320884D02*
X13310658Y-11320884D01*
X13310658Y-11320884D02*
X13329705Y-11330408D01*
X13329705Y-11330408D02*
X13339229Y-11339931D01*
X13339229Y-11339931D02*
X13348753Y-11358979D01*
X13348753Y-11358979D02*
X13348753Y-11368503D01*
X13348753Y-11368503D02*
X13339229Y-11387550D01*
X13339229Y-11387550D02*
X13329705Y-11397074D01*
X13329705Y-11397074D02*
X13310658Y-11406598D01*
X13310658Y-11406598D02*
X13272562Y-11406598D01*
X13272562Y-11406598D02*
X13253515Y-11416122D01*
X13253515Y-11416122D02*
X13243991Y-11425646D01*
X13243991Y-11425646D02*
X13234467Y-11444693D01*
X13234467Y-11444693D02*
X13234467Y-11482788D01*
X13234467Y-11482788D02*
X13243991Y-11501836D01*
X13243991Y-11501836D02*
X13253515Y-11511360D01*
X13253515Y-11511360D02*
X13272562Y-11520884D01*
X13272562Y-11520884D02*
X13310658Y-11520884D01*
X13310658Y-11520884D02*
X13329705Y-11511360D01*
X13329705Y-11511360D02*
X13339229Y-11501836D01*
X13339229Y-11501836D02*
X13348753Y-11482788D01*
X13348753Y-11482788D02*
X13348753Y-11444693D01*
X13348753Y-11444693D02*
X13339229Y-11425646D01*
X13339229Y-11425646D02*
X13329705Y-11416122D01*
X13329705Y-11416122D02*
X13310658Y-11406598D01*
X13472562Y-11320884D02*
X13491610Y-11320884D01*
X13491610Y-11320884D02*
X13510658Y-11330408D01*
X13510658Y-11330408D02*
X13520182Y-11339931D01*
X13520182Y-11339931D02*
X13529705Y-11358979D01*
X13529705Y-11358979D02*
X13539229Y-11397074D01*
X13539229Y-11397074D02*
X13539229Y-11444693D01*
X13539229Y-11444693D02*
X13529705Y-11482788D01*
X13529705Y-11482788D02*
X13520182Y-11501836D01*
X13520182Y-11501836D02*
X13510658Y-11511360D01*
X13510658Y-11511360D02*
X13491610Y-11520884D01*
X13491610Y-11520884D02*
X13472562Y-11520884D01*
X13472562Y-11520884D02*
X13453515Y-11511360D01*
X13453515Y-11511360D02*
X13443991Y-11501836D01*
X13443991Y-11501836D02*
X13434467Y-11482788D01*
X13434467Y-11482788D02*
X13424943Y-11444693D01*
X13424943Y-11444693D02*
X13424943Y-11397074D01*
X13424943Y-11397074D02*
X13434467Y-11358979D01*
X13434467Y-11358979D02*
X13443991Y-11339931D01*
X13443991Y-11339931D02*
X13453515Y-11330408D01*
X13453515Y-11330408D02*
X13472562Y-11320884D01*
X13663039Y-11320884D02*
X13682086Y-11320884D01*
X13682086Y-11320884D02*
X13701134Y-11330408D01*
X13701134Y-11330408D02*
X13710658Y-11339931D01*
X13710658Y-11339931D02*
X13720182Y-11358979D01*
X13720182Y-11358979D02*
X13729705Y-11397074D01*
X13729705Y-11397074D02*
X13729705Y-11444693D01*
X13729705Y-11444693D02*
X13720182Y-11482788D01*
X13720182Y-11482788D02*
X13710658Y-11501836D01*
X13710658Y-11501836D02*
X13701134Y-11511360D01*
X13701134Y-11511360D02*
X13682086Y-11520884D01*
X13682086Y-11520884D02*
X13663039Y-11520884D01*
X13663039Y-11520884D02*
X13643991Y-11511360D01*
X13643991Y-11511360D02*
X13634467Y-11501836D01*
X13634467Y-11501836D02*
X13624943Y-11482788D01*
X13624943Y-11482788D02*
X13615420Y-11444693D01*
X13615420Y-11444693D02*
X13615420Y-11397074D01*
X13615420Y-11397074D02*
X13624943Y-11358979D01*
X13624943Y-11358979D02*
X13634467Y-11339931D01*
X13634467Y-11339931D02*
X13643991Y-11330408D01*
X13643991Y-11330408D02*
X13663039Y-11320884D01*
X13815420Y-11520884D02*
X13815420Y-11387550D01*
X13815420Y-11406598D02*
X13824943Y-11397074D01*
X13824943Y-11397074D02*
X13843991Y-11387550D01*
X13843991Y-11387550D02*
X13872563Y-11387550D01*
X13872563Y-11387550D02*
X13891610Y-11397074D01*
X13891610Y-11397074D02*
X13901134Y-11416122D01*
X13901134Y-11416122D02*
X13901134Y-11520884D01*
X13901134Y-11416122D02*
X13910658Y-11397074D01*
X13910658Y-11397074D02*
X13929705Y-11387550D01*
X13929705Y-11387550D02*
X13958277Y-11387550D01*
X13958277Y-11387550D02*
X13977324Y-11397074D01*
X13977324Y-11397074D02*
X13986848Y-11416122D01*
X13986848Y-11416122D02*
X13986848Y-11520884D01*
X14082086Y-11520884D02*
X14082086Y-11387550D01*
X14082086Y-11406598D02*
X14091610Y-11397074D01*
X14091610Y-11397074D02*
X14110658Y-11387550D01*
X14110658Y-11387550D02*
X14139229Y-11387550D01*
X14139229Y-11387550D02*
X14158277Y-11397074D01*
X14158277Y-11397074D02*
X14167801Y-11416122D01*
X14167801Y-11416122D02*
X14167801Y-11520884D01*
X14167801Y-11416122D02*
X14177324Y-11397074D01*
X14177324Y-11397074D02*
X14196372Y-11387550D01*
X14196372Y-11387550D02*
X14224943Y-11387550D01*
X14224943Y-11387550D02*
X14243991Y-11397074D01*
X14243991Y-11397074D02*
X14253515Y-11416122D01*
X14253515Y-11416122D02*
X14253515Y-11520884D01*
X14643991Y-11311360D02*
X14472563Y-11568503D01*
X14901134Y-11320884D02*
X14920182Y-11320884D01*
X14920182Y-11320884D02*
X14939229Y-11330408D01*
X14939229Y-11330408D02*
X14948753Y-11339931D01*
X14948753Y-11339931D02*
X14958277Y-11358979D01*
X14958277Y-11358979D02*
X14967801Y-11397074D01*
X14967801Y-11397074D02*
X14967801Y-11444693D01*
X14967801Y-11444693D02*
X14958277Y-11482788D01*
X14958277Y-11482788D02*
X14948753Y-11501836D01*
X14948753Y-11501836D02*
X14939229Y-11511360D01*
X14939229Y-11511360D02*
X14920182Y-11520884D01*
X14920182Y-11520884D02*
X14901134Y-11520884D01*
X14901134Y-11520884D02*
X14882086Y-11511360D01*
X14882086Y-11511360D02*
X14872563Y-11501836D01*
X14872563Y-11501836D02*
X14863039Y-11482788D01*
X14863039Y-11482788D02*
X14853515Y-11444693D01*
X14853515Y-11444693D02*
X14853515Y-11397074D01*
X14853515Y-11397074D02*
X14863039Y-11358979D01*
X14863039Y-11358979D02*
X14872563Y-11339931D01*
X14872563Y-11339931D02*
X14882086Y-11330408D01*
X14882086Y-11330408D02*
X14901134Y-11320884D01*
X15053515Y-11501836D02*
X15063039Y-11511360D01*
X15063039Y-11511360D02*
X15053515Y-11520884D01*
X15053515Y-11520884D02*
X15043991Y-11511360D01*
X15043991Y-11511360D02*
X15053515Y-11501836D01*
X15053515Y-11501836D02*
X15053515Y-11520884D01*
X15186848Y-11320884D02*
X15205896Y-11320884D01*
X15205896Y-11320884D02*
X15224944Y-11330408D01*
X15224944Y-11330408D02*
X15234467Y-11339931D01*
X15234467Y-11339931D02*
X15243991Y-11358979D01*
X15243991Y-11358979D02*
X15253515Y-11397074D01*
X15253515Y-11397074D02*
X15253515Y-11444693D01*
X15253515Y-11444693D02*
X15243991Y-11482788D01*
X15243991Y-11482788D02*
X15234467Y-11501836D01*
X15234467Y-11501836D02*
X15224944Y-11511360D01*
X15224944Y-11511360D02*
X15205896Y-11520884D01*
X15205896Y-11520884D02*
X15186848Y-11520884D01*
X15186848Y-11520884D02*
X15167801Y-11511360D01*
X15167801Y-11511360D02*
X15158277Y-11501836D01*
X15158277Y-11501836D02*
X15148753Y-11482788D01*
X15148753Y-11482788D02*
X15139229Y-11444693D01*
X15139229Y-11444693D02*
X15139229Y-11397074D01*
X15139229Y-11397074D02*
X15148753Y-11358979D01*
X15148753Y-11358979D02*
X15158277Y-11339931D01*
X15158277Y-11339931D02*
X15167801Y-11330408D01*
X15167801Y-11330408D02*
X15186848Y-11320884D01*
X15320182Y-11320884D02*
X15443991Y-11320884D01*
X15443991Y-11320884D02*
X15377325Y-11397074D01*
X15377325Y-11397074D02*
X15405896Y-11397074D01*
X15405896Y-11397074D02*
X15424944Y-11406598D01*
X15424944Y-11406598D02*
X15434467Y-11416122D01*
X15434467Y-11416122D02*
X15443991Y-11435169D01*
X15443991Y-11435169D02*
X15443991Y-11482788D01*
X15443991Y-11482788D02*
X15434467Y-11501836D01*
X15434467Y-11501836D02*
X15424944Y-11511360D01*
X15424944Y-11511360D02*
X15405896Y-11520884D01*
X15405896Y-11520884D02*
X15348753Y-11520884D01*
X15348753Y-11520884D02*
X15329706Y-11511360D01*
X15329706Y-11511360D02*
X15320182Y-11501836D01*
X15634467Y-11520884D02*
X15520182Y-11520884D01*
X15577325Y-11520884D02*
X15577325Y-11320884D01*
X15577325Y-11320884D02*
X15558277Y-11349455D01*
X15558277Y-11349455D02*
X15539229Y-11368503D01*
X15539229Y-11368503D02*
X15520182Y-11378027D01*
X15815420Y-11320884D02*
X15720182Y-11320884D01*
X15720182Y-11320884D02*
X15710658Y-11416122D01*
X15710658Y-11416122D02*
X15720182Y-11406598D01*
X15720182Y-11406598D02*
X15739229Y-11397074D01*
X15739229Y-11397074D02*
X15786848Y-11397074D01*
X15786848Y-11397074D02*
X15805896Y-11406598D01*
X15805896Y-11406598D02*
X15815420Y-11416122D01*
X15815420Y-11416122D02*
X15824944Y-11435169D01*
X15824944Y-11435169D02*
X15824944Y-11482788D01*
X15824944Y-11482788D02*
X15815420Y-11501836D01*
X15815420Y-11501836D02*
X15805896Y-11511360D01*
X15805896Y-11511360D02*
X15786848Y-11520884D01*
X15786848Y-11520884D02*
X15739229Y-11520884D01*
X15739229Y-11520884D02*
X15720182Y-11511360D01*
X15720182Y-11511360D02*
X15710658Y-11501836D01*
X15901134Y-11320884D02*
X15901134Y-11358979D01*
X15977325Y-11320884D02*
X15977325Y-11358979D01*
X16272563Y-11597074D02*
X16263039Y-11587550D01*
X16263039Y-11587550D02*
X16243991Y-11558979D01*
X16243991Y-11558979D02*
X16234468Y-11539931D01*
X16234468Y-11539931D02*
X16224944Y-11511360D01*
X16224944Y-11511360D02*
X16215420Y-11463741D01*
X16215420Y-11463741D02*
X16215420Y-11425646D01*
X16215420Y-11425646D02*
X16224944Y-11378027D01*
X16224944Y-11378027D02*
X16234468Y-11349455D01*
X16234468Y-11349455D02*
X16243991Y-11330408D01*
X16243991Y-11330408D02*
X16263039Y-11301836D01*
X16263039Y-11301836D02*
X16272563Y-11292312D01*
X16329706Y-11320884D02*
X16453515Y-11320884D01*
X16453515Y-11320884D02*
X16386848Y-11397074D01*
X16386848Y-11397074D02*
X16415420Y-11397074D01*
X16415420Y-11397074D02*
X16434468Y-11406598D01*
X16434468Y-11406598D02*
X16443991Y-11416122D01*
X16443991Y-11416122D02*
X16453515Y-11435169D01*
X16453515Y-11435169D02*
X16453515Y-11482788D01*
X16453515Y-11482788D02*
X16443991Y-11501836D01*
X16443991Y-11501836D02*
X16434468Y-11511360D01*
X16434468Y-11511360D02*
X16415420Y-11520884D01*
X16415420Y-11520884D02*
X16358277Y-11520884D01*
X16358277Y-11520884D02*
X16339229Y-11511360D01*
X16339229Y-11511360D02*
X16329706Y-11501836D01*
X16691610Y-11520884D02*
X16691610Y-11320884D01*
X16777325Y-11520884D02*
X16777325Y-11416122D01*
X16777325Y-11416122D02*
X16767801Y-11397074D01*
X16767801Y-11397074D02*
X16748753Y-11387550D01*
X16748753Y-11387550D02*
X16720182Y-11387550D01*
X16720182Y-11387550D02*
X16701134Y-11397074D01*
X16701134Y-11397074D02*
X16691610Y-11406598D01*
X16901134Y-11520884D02*
X16882087Y-11511360D01*
X16882087Y-11511360D02*
X16872563Y-11501836D01*
X16872563Y-11501836D02*
X16863039Y-11482788D01*
X16863039Y-11482788D02*
X16863039Y-11425646D01*
X16863039Y-11425646D02*
X16872563Y-11406598D01*
X16872563Y-11406598D02*
X16882087Y-11397074D01*
X16882087Y-11397074D02*
X16901134Y-11387550D01*
X16901134Y-11387550D02*
X16929706Y-11387550D01*
X16929706Y-11387550D02*
X16948753Y-11397074D01*
X16948753Y-11397074D02*
X16958277Y-11406598D01*
X16958277Y-11406598D02*
X16967801Y-11425646D01*
X16967801Y-11425646D02*
X16967801Y-11482788D01*
X16967801Y-11482788D02*
X16958277Y-11501836D01*
X16958277Y-11501836D02*
X16948753Y-11511360D01*
X16948753Y-11511360D02*
X16929706Y-11520884D01*
X16929706Y-11520884D02*
X16901134Y-11520884D01*
X17082087Y-11520884D02*
X17063039Y-11511360D01*
X17063039Y-11511360D02*
X17053515Y-11492312D01*
X17053515Y-11492312D02*
X17053515Y-11320884D01*
X17234468Y-11511360D02*
X17215420Y-11520884D01*
X17215420Y-11520884D02*
X17177325Y-11520884D01*
X17177325Y-11520884D02*
X17158277Y-11511360D01*
X17158277Y-11511360D02*
X17148753Y-11492312D01*
X17148753Y-11492312D02*
X17148753Y-11416122D01*
X17148753Y-11416122D02*
X17158277Y-11397074D01*
X17158277Y-11397074D02*
X17177325Y-11387550D01*
X17177325Y-11387550D02*
X17215420Y-11387550D01*
X17215420Y-11387550D02*
X17234468Y-11397074D01*
X17234468Y-11397074D02*
X17243992Y-11416122D01*
X17243992Y-11416122D02*
X17243992Y-11435169D01*
X17243992Y-11435169D02*
X17148753Y-11454217D01*
X17320182Y-11511360D02*
X17339230Y-11520884D01*
X17339230Y-11520884D02*
X17377325Y-11520884D01*
X17377325Y-11520884D02*
X17396373Y-11511360D01*
X17396373Y-11511360D02*
X17405896Y-11492312D01*
X17405896Y-11492312D02*
X17405896Y-11482788D01*
X17405896Y-11482788D02*
X17396373Y-11463741D01*
X17396373Y-11463741D02*
X17377325Y-11454217D01*
X17377325Y-11454217D02*
X17348753Y-11454217D01*
X17348753Y-11454217D02*
X17329706Y-11444693D01*
X17329706Y-11444693D02*
X17320182Y-11425646D01*
X17320182Y-11425646D02*
X17320182Y-11416122D01*
X17320182Y-11416122D02*
X17329706Y-11397074D01*
X17329706Y-11397074D02*
X17348753Y-11387550D01*
X17348753Y-11387550D02*
X17377325Y-11387550D01*
X17377325Y-11387550D02*
X17396373Y-11397074D01*
X17472563Y-11597074D02*
X17482087Y-11587550D01*
X17482087Y-11587550D02*
X17501134Y-11558979D01*
X17501134Y-11558979D02*
X17510658Y-11539931D01*
X17510658Y-11539931D02*
X17520182Y-11511360D01*
X17520182Y-11511360D02*
X17529706Y-11463741D01*
X17529706Y-11463741D02*
X17529706Y-11425646D01*
X17529706Y-11425646D02*
X17520182Y-11378027D01*
X17520182Y-11378027D02*
X17510658Y-11349455D01*
X17510658Y-11349455D02*
X17501134Y-11330408D01*
X17501134Y-11330408D02*
X17482087Y-11301836D01*
X17482087Y-11301836D02*
X17472563Y-11292312D01*
M02*
