%TF.GenerationSoftware,KiCad,Pcbnew,9.0.1-9.0.1-0~ubuntu24.04.1*%
%TF.CreationDate,2025-05-19T08:09:31-04:00*%
%TF.ProjectId,kmcddm_v1a,6b6d6364-646d-45f7-9631-612e6b696361,rev?*%
%TF.SameCoordinates,Original*%
%TF.FileFunction,Copper,L1,Top*%
%TF.FilePolarity,Positive*%
%FSLAX46Y46*%
G04 Gerber Fmt 4.6, Leading zero omitted, Abs format (unit mm)*
G04 Created by KiCad (PCBNEW 9.0.1-9.0.1-0~ubuntu24.04.1) date 2025-05-19 08:09:31*
%MOMM*%
%LPD*%
G01*
G04 APERTURE LIST*
G04 Aperture macros list*
%AMRoundRect*
0 Rectangle with rounded corners*
0 $1 Rounding radius*
0 $2 $3 $4 $5 $6 $7 $8 $9 X,Y pos of 4 corners*
0 Add a 4 corners polygon primitive as box body*
4,1,4,$2,$3,$4,$5,$6,$7,$8,$9,$2,$3,0*
0 Add four circle primitives for the rounded corners*
1,1,$1+$1,$2,$3*
1,1,$1+$1,$4,$5*
1,1,$1+$1,$6,$7*
1,1,$1+$1,$8,$9*
0 Add four rect primitives between the rounded corners*
20,1,$1+$1,$2,$3,$4,$5,0*
20,1,$1+$1,$4,$5,$6,$7,0*
20,1,$1+$1,$6,$7,$8,$9,0*
20,1,$1+$1,$8,$9,$2,$3,0*%
G04 Aperture macros list end*
%TA.AperFunction,SMDPad,CuDef*%
%ADD10RoundRect,0.250000X-0.550000X1.050000X-0.550000X-1.050000X0.550000X-1.050000X0.550000X1.050000X0*%
%TD*%
%TA.AperFunction,SMDPad,CuDef*%
%ADD11RoundRect,0.237500X-0.237500X0.250000X-0.237500X-0.250000X0.237500X-0.250000X0.237500X0.250000X0*%
%TD*%
%TA.AperFunction,SMDPad,CuDef*%
%ADD12RoundRect,0.250001X0.462499X0.624999X-0.462499X0.624999X-0.462499X-0.624999X0.462499X-0.624999X0*%
%TD*%
%TA.AperFunction,SMDPad,CuDef*%
%ADD13RoundRect,0.160000X-0.160000X0.197500X-0.160000X-0.197500X0.160000X-0.197500X0.160000X0.197500X0*%
%TD*%
%TA.AperFunction,ComponentPad*%
%ADD14R,1.350000X1.350000*%
%TD*%
%TA.AperFunction,ComponentPad*%
%ADD15C,1.350000*%
%TD*%
%TA.AperFunction,SMDPad,CuDef*%
%ADD16RoundRect,0.250000X-0.650000X1.000000X-0.650000X-1.000000X0.650000X-1.000000X0.650000X1.000000X0*%
%TD*%
%TA.AperFunction,SMDPad,CuDef*%
%ADD17RoundRect,0.250000X-0.650000X0.412500X-0.650000X-0.412500X0.650000X-0.412500X0.650000X0.412500X0*%
%TD*%
%TA.AperFunction,SMDPad,CuDef*%
%ADD18RoundRect,0.237500X-0.237500X0.300000X-0.237500X-0.300000X0.237500X-0.300000X0.237500X0.300000X0*%
%TD*%
%TA.AperFunction,ComponentPad*%
%ADD19RoundRect,0.249200X0.450800X-0.450800X0.450800X0.450800X-0.450800X0.450800X-0.450800X-0.450800X0*%
%TD*%
%TA.AperFunction,ComponentPad*%
%ADD20C,1.400000*%
%TD*%
%TA.AperFunction,SMDPad,CuDef*%
%ADD21RoundRect,0.250000X-0.400000X-0.750000X0.400000X-0.750000X0.400000X0.750000X-0.400000X0.750000X0*%
%TD*%
%TA.AperFunction,SMDPad,CuDef*%
%ADD22RoundRect,0.250000X-0.750000X-0.750000X0.750000X-0.750000X0.750000X0.750000X-0.750000X0.750000X0*%
%TD*%
%TA.AperFunction,ViaPad*%
%ADD23C,0.500000*%
%TD*%
%TA.AperFunction,ViaPad*%
%ADD24C,0.600000*%
%TD*%
%TA.AperFunction,Conductor*%
%ADD25C,0.300000*%
%TD*%
%TA.AperFunction,Conductor*%
%ADD26C,0.600000*%
%TD*%
%TA.AperFunction,Conductor*%
%ADD27C,0.400000*%
%TD*%
G04 APERTURE END LIST*
D10*
%TO.P,C6,1*%
%TO.N,Net-(C6-Pad1)*%
X142367000Y-93799001D03*
%TO.P,C6,2*%
%TO.N,-BATT*%
X142367000Y-97399001D03*
%TD*%
D11*
%TO.P,R14,1*%
%TO.N,Net-(C7-Pad2)*%
X139192000Y-96464501D03*
%TO.P,R14,2*%
%TO.N,-BATT*%
X139192000Y-98289501D03*
%TD*%
D12*
%TO.P,L1,1,1*%
%TO.N,Net-(C6-Pad1)*%
X142330500Y-90900001D03*
%TO.P,L1,2,2*%
%TO.N,12V1*%
X139355500Y-90900001D03*
%TD*%
D13*
%TO.P,R15,1*%
%TO.N,GND*%
X137160000Y-96398501D03*
%TO.P,R15,2*%
%TO.N,-BATT*%
X137160000Y-97593501D03*
%TD*%
D14*
%TO.P,J1,1,Pin_1*%
%TO.N,+BATT*%
X149479000Y-90424000D03*
D15*
%TO.P,J1,2,Pin_2*%
%TO.N,Net-(D3-COM)*%
X149479000Y-92424000D03*
%TO.P,J1,3,Pin_3*%
%TO.N,-BATT*%
X149479000Y-94424000D03*
%TD*%
D16*
%TO.P,D4,1,K*%
%TO.N,+BATT*%
X146558000Y-93599000D03*
%TO.P,D4,2,A*%
%TO.N,-BATT*%
X146558000Y-97599002D03*
%TD*%
D17*
%TO.P,C8,1*%
%TO.N,12V1*%
X137287000Y-90639500D03*
%TO.P,C8,2*%
%TO.N,GND*%
X137287000Y-93764500D03*
%TD*%
D18*
%TO.P,C7,1*%
%TO.N,12V1*%
X139192000Y-93085500D03*
%TO.P,C7,2*%
%TO.N,Net-(C7-Pad2)*%
X139192000Y-94810502D03*
%TD*%
D19*
%TO.P,D1,1,K*%
%TO.N,Net-(D1-K)*%
X128516000Y-95782499D03*
D20*
%TO.P,D1,2,A*%
%TO.N,Net-(D1-A)*%
X128516000Y-93222500D03*
%TD*%
D12*
%TO.P,F1,1*%
%TO.N,+BATT*%
X147283500Y-90900001D03*
%TO.P,F1,2*%
%TO.N,Net-(C6-Pad1)*%
X144308500Y-90900001D03*
%TD*%
D21*
%TO.P,RV2,1,1*%
%TO.N,12V1*%
X134500000Y-92488000D03*
D22*
%TO.P,RV2,2,2*%
%TO.N,Net-(C2-Pad1)*%
X133350000Y-96488001D03*
D21*
%TO.P,RV2,3,3*%
%TO.N,GND*%
X132200000Y-92488000D03*
%TD*%
D23*
%TO.N,GND*%
X132461000Y-94107000D03*
X143383000Y-89662000D03*
X131632217Y-96054094D03*
X151003000Y-89789000D03*
X127889000Y-92075000D03*
X128270000Y-94488000D03*
X131407036Y-94128918D03*
X135890000Y-98171000D03*
X140208000Y-94615000D03*
X130556000Y-98552000D03*
X141097000Y-89535000D03*
X139319000Y-99314000D03*
X144526000Y-92456000D03*
X129667000Y-92329000D03*
X147955000Y-96393000D03*
X141097000Y-95250000D03*
X148590000Y-91567000D03*
X132334000Y-90932000D03*
X144526000Y-94234000D03*
X143891000Y-96647000D03*
X145542000Y-91821000D03*
X137748649Y-89513978D03*
X130048000Y-89662000D03*
X150241000Y-93472000D03*
X148209000Y-89662000D03*
X132461000Y-92329000D03*
X129286000Y-94488000D03*
X136685147Y-94141187D03*
X132334000Y-89535000D03*
X134112000Y-98044000D03*
X137795000Y-99060000D03*
X147828000Y-95123000D03*
X143510000Y-95631000D03*
X148336000Y-98806000D03*
X143764000Y-98425000D03*
X136779000Y-91821000D03*
X129794000Y-96393000D03*
X151130000Y-96774000D03*
X127762000Y-97028000D03*
X134112000Y-94107000D03*
X146177000Y-89789000D03*
X149733000Y-95758000D03*
D24*
%TO.N,Net-(U2B-+)*%
X135636000Y-94234000D03*
X138176000Y-91948000D03*
%TO.N,Net-(C2-Pad1)*%
X136334500Y-97218500D03*
%TO.N,/LDR_SENS*%
X140970000Y-96647000D03*
X136233999Y-95593999D03*
%TO.N,-BATT*%
X148082000Y-92363498D03*
%TO.N,12V1*%
X133863000Y-89729498D03*
X141097000Y-91440000D03*
X138049000Y-90297000D03*
X135838000Y-90339205D03*
X137287000Y-90297000D03*
%TO.N,+BATT*%
X147701000Y-94234000D03*
%TD*%
D25*
%TO.N,Net-(U2B-+)*%
X135636000Y-93091000D02*
X135636000Y-94234000D01*
X137541000Y-92583000D02*
X136144000Y-92583000D01*
X136144000Y-92583000D02*
X135636000Y-93091000D01*
X138176000Y-91948000D02*
X137541000Y-92583000D01*
D26*
%TO.N,Net-(C2-Pad1)*%
X136334500Y-97218500D02*
X135699500Y-97218500D01*
X133381999Y-96520000D02*
X133350000Y-96488001D01*
X135001000Y-96520000D02*
X133381999Y-96520000D01*
X135699500Y-97218500D02*
X135001000Y-96520000D01*
D27*
%TO.N,/LDR_SENS*%
X140589000Y-96647000D02*
X140970000Y-96647000D01*
X138049000Y-97028000D02*
X138374001Y-97353001D01*
X136233999Y-95593999D02*
X137757999Y-95593999D01*
X139882999Y-97353001D02*
X140589000Y-96647000D01*
X138049000Y-95885000D02*
X138049000Y-97028000D01*
X138374001Y-97353001D02*
X139882999Y-97353001D01*
X137757999Y-95593999D02*
X138049000Y-95885000D01*
D26*
%TO.N,-BATT*%
X148717000Y-95186000D02*
X149479000Y-94424000D01*
X146558000Y-97599002D02*
X148018998Y-97599002D01*
X148717000Y-96901000D02*
X148717000Y-95186000D01*
X148082000Y-93027000D02*
X148082000Y-92363498D01*
X146558000Y-97599002D02*
X142567001Y-97599002D01*
X148018998Y-97599002D02*
X148717000Y-96901000D01*
X140769999Y-97599002D02*
X140079500Y-98289501D01*
X137856000Y-98289501D02*
X137160000Y-97593501D01*
X149479000Y-94424000D02*
X148082000Y-93027000D01*
X142367000Y-97399001D02*
X142166999Y-97599002D01*
X142567001Y-97599002D02*
X142367000Y-97399001D01*
X139192000Y-98289501D02*
X137856000Y-98289501D01*
X142166999Y-97599002D02*
X140769999Y-97599002D01*
X140079500Y-98289501D02*
X139192000Y-98289501D01*
%TO.N,12V1*%
X138049000Y-90297000D02*
X138060000Y-90286000D01*
X135838000Y-90339205D02*
X134527293Y-90339205D01*
X138106075Y-90286000D02*
X138117075Y-90297000D01*
X141097000Y-91440000D02*
X139895499Y-91440000D01*
X139355500Y-92922000D02*
X139192000Y-93085500D01*
X134527293Y-90339205D02*
X134500000Y-90366498D01*
X133863000Y-89729498D02*
X134500000Y-90366498D01*
X138060000Y-90286000D02*
X138106075Y-90286000D01*
X134500000Y-90366498D02*
X134500000Y-90639500D01*
X134500000Y-90639500D02*
X134500000Y-92488000D01*
X139355500Y-90900001D02*
X139355500Y-92922000D01*
X138049000Y-90297000D02*
X136944500Y-90297000D01*
X139065000Y-90297000D02*
X139133499Y-90365499D01*
X138117075Y-90297000D02*
X139065000Y-90297000D01*
X139133499Y-90678000D02*
X139355500Y-90900001D01*
X139895499Y-91440000D02*
X139355500Y-90900001D01*
X139133499Y-90365499D02*
X139133499Y-90678000D01*
%TO.N,Net-(C7-Pad2)*%
X139192000Y-96464501D02*
X139192000Y-94810502D01*
%TO.N,+BATT*%
X147759501Y-90424000D02*
X147283500Y-90900001D01*
X147701000Y-94234000D02*
X147193000Y-94234000D01*
X146558000Y-91625501D02*
X146558000Y-93599000D01*
X147283500Y-90900001D02*
X146558000Y-91625501D01*
X149479000Y-90424000D02*
X147759501Y-90424000D01*
X147193000Y-94234000D02*
X146558000Y-93599000D01*
%TO.N,Net-(C6-Pad1)*%
X142330500Y-90900001D02*
X144308500Y-90900001D01*
X142367000Y-93799001D02*
X142367000Y-90936501D01*
X142367000Y-90936501D02*
X142330500Y-90900001D01*
%TD*%
%TA.AperFunction,Conductor*%
%TO.N,12V1*%
G36*
X139363607Y-90907451D02*
G01*
X139363936Y-90907780D01*
X140043473Y-91614950D01*
X140046735Y-91623290D01*
X140045691Y-91627893D01*
X139658616Y-92480636D01*
X139652076Y-92486753D01*
X139647962Y-92487500D01*
X139063038Y-92487500D01*
X139054765Y-92484073D01*
X139052384Y-92480636D01*
X138665308Y-91627893D01*
X138665009Y-91618943D01*
X138667523Y-91614954D01*
X139347064Y-90907779D01*
X139355267Y-90904189D01*
X139363607Y-90907451D01*
G37*
%TD.AperFunction*%
%TD*%
%TA.AperFunction,Conductor*%
%TO.N,Net-(C2-Pad1)*%
G36*
X134322955Y-95625061D02*
G01*
X135449899Y-96546462D01*
X135454135Y-96554352D01*
X135451551Y-96562926D01*
X135450766Y-96563793D01*
X135036719Y-96977840D01*
X135034342Y-96979673D01*
X134204074Y-97464068D01*
X134195201Y-97465277D01*
X134189318Y-97461602D01*
X133356775Y-96495972D01*
X133353968Y-96487468D01*
X133357813Y-96479632D01*
X134307726Y-95625419D01*
X134316169Y-95622435D01*
X134322955Y-95625061D01*
G37*
%TD.AperFunction*%
%TD*%
%TA.AperFunction,Conductor*%
%TO.N,-BATT*%
G36*
X148753371Y-93270567D02*
G01*
X149842690Y-93856667D01*
X149848351Y-93863604D01*
X149847449Y-93872514D01*
X149846884Y-93873456D01*
X149481007Y-94422755D01*
X149477755Y-94426007D01*
X148928456Y-94791884D01*
X148919671Y-94793618D01*
X148912232Y-94788632D01*
X148911667Y-94787690D01*
X148717066Y-94426007D01*
X148325567Y-93698371D01*
X148324666Y-93689462D01*
X148327596Y-93684557D01*
X148739556Y-93272597D01*
X148747828Y-93269171D01*
X148753371Y-93270567D01*
G37*
%TD.AperFunction*%
%TD*%
%TA.AperFunction,Conductor*%
%TO.N,12V1*%
G36*
X138893822Y-90028371D02*
G01*
X138896621Y-90031844D01*
X139147624Y-90506375D01*
X139351104Y-90891060D01*
X139351943Y-90899976D01*
X139346938Y-90906468D01*
X138651387Y-91338776D01*
X138642552Y-91340233D01*
X138636452Y-91336596D01*
X137901244Y-90506375D01*
X137898324Y-90497909D01*
X137901729Y-90490346D01*
X138315185Y-90076890D01*
X138322463Y-90073507D01*
X138885290Y-90025657D01*
X138893822Y-90028371D01*
G37*
%TD.AperFunction*%
%TD*%
%TA.AperFunction,Conductor*%
%TO.N,+BATT*%
G36*
X146478988Y-91297232D02*
G01*
X146480868Y-91298758D01*
X146894184Y-91712074D01*
X146895539Y-91713699D01*
X147380145Y-92415516D01*
X147382026Y-92424271D01*
X147380090Y-92428891D01*
X146566807Y-93586168D01*
X146559246Y-93590967D01*
X146550507Y-93589014D01*
X146547700Y-93586223D01*
X145730211Y-92437148D01*
X145728208Y-92428421D01*
X145729944Y-92423977D01*
X146462797Y-91300636D01*
X146470186Y-91295582D01*
X146478988Y-91297232D01*
G37*
%TD.AperFunction*%
%TD*%
%TA.AperFunction,Conductor*%
%TO.N,/LDR_SENS*%
G36*
X140809120Y-96406166D02*
G01*
X140967981Y-96642243D01*
X140969757Y-96651020D01*
X140969745Y-96651079D01*
X140913371Y-96931780D01*
X140908382Y-96939216D01*
X140901828Y-96941176D01*
X140584444Y-96939230D01*
X140576243Y-96935803D01*
X140308172Y-96667732D01*
X140304745Y-96659459D01*
X140308172Y-96651186D01*
X140311117Y-96649043D01*
X140794091Y-96402278D01*
X140803016Y-96401567D01*
X140809120Y-96406166D01*
G37*
%TD.AperFunction*%
%TD*%
%TA.AperFunction,Conductor*%
%TO.N,+BATT*%
G36*
X148810240Y-89755231D02*
G01*
X149471708Y-90415721D01*
X149475141Y-90423991D01*
X149471720Y-90432267D01*
X149471708Y-90432279D01*
X148810240Y-91092768D01*
X148801964Y-91096189D01*
X148796291Y-91094717D01*
X148135018Y-90727343D01*
X148129450Y-90720329D01*
X148129000Y-90717115D01*
X148129000Y-90130884D01*
X148129641Y-90129335D01*
X148129450Y-90127669D01*
X148131293Y-90125346D01*
X148132427Y-90122611D01*
X148135014Y-90120658D01*
X148147050Y-90113971D01*
X148152732Y-90112500D01*
X148268310Y-90112500D01*
X148268310Y-90112499D01*
X148325597Y-90097149D01*
X148382884Y-90081800D01*
X148382888Y-90081798D01*
X148417128Y-90062029D01*
X148485613Y-90022489D01*
X148569489Y-89938613D01*
X148618302Y-89854066D01*
X148622744Y-89849697D01*
X148796292Y-89753281D01*
X148805187Y-89752260D01*
X148810240Y-89755231D01*
G37*
%TD.AperFunction*%
%TD*%
%TA.AperFunction,Conductor*%
%TO.N,12V1*%
G36*
X134800435Y-90841427D02*
G01*
X134802982Y-90845248D01*
X135128448Y-91636200D01*
X135128427Y-91645155D01*
X135127009Y-91647643D01*
X134509381Y-92476412D01*
X134501690Y-92480998D01*
X134493009Y-92478802D01*
X134490619Y-92476412D01*
X133872990Y-91647643D01*
X133870794Y-91638962D01*
X133871549Y-91636207D01*
X134197018Y-90845248D01*
X134203335Y-90838901D01*
X134207838Y-90838000D01*
X134792162Y-90838000D01*
X134800435Y-90841427D01*
G37*
%TD.AperFunction*%
%TD*%
%TA.AperFunction,Conductor*%
%TO.N,Net-(U2B-+)*%
G36*
X135785306Y-93643191D02*
G01*
X135788331Y-93648422D01*
X135926994Y-94163435D01*
X135925836Y-94172315D01*
X135918738Y-94177775D01*
X135918016Y-94177945D01*
X135638320Y-94234530D01*
X135633680Y-94234530D01*
X135353983Y-94177945D01*
X135346554Y-94172945D01*
X135344835Y-94164157D01*
X135345005Y-94163435D01*
X135483669Y-93648422D01*
X135489129Y-93641324D01*
X135494967Y-93639764D01*
X135777033Y-93639764D01*
X135785306Y-93643191D01*
G37*
%TD.AperFunction*%
%TD*%
%TA.AperFunction,Conductor*%
%TO.N,Net-(C6-Pad1)*%
G36*
X143033430Y-90191929D02*
G01*
X143749556Y-90596642D01*
X143755072Y-90603695D01*
X143755499Y-90606827D01*
X143755499Y-91193174D01*
X143752072Y-91201447D01*
X143749555Y-91203360D01*
X143033430Y-91608072D01*
X143024542Y-91609159D01*
X143019305Y-91606062D01*
X142615923Y-91193174D01*
X142337486Y-90908175D01*
X142334157Y-90899865D01*
X142337486Y-90891826D01*
X143019305Y-90193938D01*
X143027538Y-90190416D01*
X143033430Y-90191929D01*
G37*
%TD.AperFunction*%
%TD*%
%TA.AperFunction,Conductor*%
%TO.N,Net-(C6-Pad1)*%
G36*
X143619694Y-90193939D02*
G01*
X144301512Y-90891825D01*
X144304842Y-90900137D01*
X144301512Y-90908177D01*
X143619694Y-91606062D01*
X143611461Y-91609585D01*
X143605569Y-91608072D01*
X142889445Y-91203360D01*
X142883928Y-91196306D01*
X142883501Y-91193174D01*
X142883501Y-90606827D01*
X142886928Y-90598554D01*
X142889440Y-90596644D01*
X143605570Y-90191928D01*
X143614457Y-90190842D01*
X143619694Y-90193939D01*
G37*
%TD.AperFunction*%
%TD*%
%TA.AperFunction,Conductor*%
%TO.N,12V1*%
G36*
X137941996Y-89977109D02*
G01*
X138838056Y-89996749D01*
X138846252Y-90000356D01*
X138849500Y-90008446D01*
X138849500Y-90591278D01*
X138846073Y-90599551D01*
X138844984Y-90600513D01*
X138178841Y-91118738D01*
X138170207Y-91121113D01*
X138166052Y-91119773D01*
X137299597Y-90646920D01*
X137293977Y-90639949D01*
X137294932Y-90631045D01*
X137296853Y-90628454D01*
X137933456Y-89980605D01*
X137941697Y-89977107D01*
X137941996Y-89977109D01*
G37*
%TD.AperFunction*%
%TD*%
%TA.AperFunction,Conductor*%
%TO.N,Net-(C6-Pad1)*%
G36*
X142668068Y-91702428D02*
G01*
X142670243Y-91705435D01*
X143144867Y-92647174D01*
X143145530Y-92656105D01*
X143144089Y-92659026D01*
X142376670Y-93785802D01*
X142369181Y-93790711D01*
X142360414Y-93788886D01*
X142357330Y-93785802D01*
X141589910Y-92659026D01*
X141588085Y-92650259D01*
X141589130Y-92647177D01*
X142063757Y-91705434D01*
X142070541Y-91699590D01*
X142074205Y-91699001D01*
X142659795Y-91699001D01*
X142668068Y-91702428D01*
G37*
%TD.AperFunction*%
%TD*%
%TA.AperFunction,Conductor*%
%TO.N,Net-(C6-Pad1)*%
G36*
X142338607Y-90907451D02*
G01*
X142338936Y-90907780D01*
X143018680Y-91615166D01*
X143021942Y-91623506D01*
X143021063Y-91627728D01*
X142669984Y-92480255D01*
X142663665Y-92486600D01*
X142659165Y-92487500D01*
X142074256Y-92487500D01*
X142065983Y-92484073D01*
X142063775Y-92480999D01*
X142063406Y-92480255D01*
X141640685Y-91628041D01*
X141640079Y-91619109D01*
X141642729Y-91614740D01*
X142322064Y-90907779D01*
X142330267Y-90904189D01*
X142338607Y-90907451D01*
G37*
%TD.AperFunction*%
%TD*%
%TA.AperFunction,Conductor*%
%TO.N,-BATT*%
G36*
X143174625Y-96698622D02*
G01*
X143962366Y-97295491D01*
X143966890Y-97303217D01*
X143967000Y-97304815D01*
X143967000Y-97891821D01*
X143963573Y-97900094D01*
X143960598Y-97902253D01*
X143820835Y-97973232D01*
X143815537Y-97974500D01*
X143704688Y-97974500D01*
X143590115Y-98005199D01*
X143590111Y-98005201D01*
X143487390Y-98064508D01*
X143487385Y-98064512D01*
X143403512Y-98148385D01*
X143403508Y-98148390D01*
X143375201Y-98197419D01*
X143370367Y-98202001D01*
X143175070Y-98301183D01*
X143166142Y-98301874D01*
X143161005Y-98298499D01*
X142373757Y-97407778D01*
X142370846Y-97399310D01*
X142374775Y-97391265D01*
X143159823Y-96699171D01*
X143168295Y-96696271D01*
X143174625Y-96698622D01*
G37*
%TD.AperFunction*%
%TD*%
%TA.AperFunction,Conductor*%
%TO.N,+BATT*%
G36*
X147460931Y-93081612D02*
G01*
X147462106Y-93084371D01*
X147700563Y-93932445D01*
X147701000Y-93935612D01*
X147701000Y-94528217D01*
X147697573Y-94536490D01*
X147696406Y-94537512D01*
X147394448Y-94768382D01*
X147385795Y-94770684D01*
X147378047Y-94766193D01*
X147377772Y-94765819D01*
X147214704Y-94534000D01*
X146564305Y-93609385D01*
X146562349Y-93600648D01*
X146567144Y-93593085D01*
X146567929Y-93592580D01*
X147444918Y-93077449D01*
X147453786Y-93076214D01*
X147460931Y-93081612D01*
G37*
%TD.AperFunction*%
%TD*%
%TA.AperFunction,Conductor*%
%TO.N,-BATT*%
G36*
X149096157Y-94347426D02*
G01*
X149474229Y-94422058D01*
X149481682Y-94427022D01*
X149481697Y-94427044D01*
X149846937Y-94974637D01*
X149848676Y-94983421D01*
X149843695Y-94990863D01*
X149842840Y-94991382D01*
X149019632Y-95443952D01*
X149013995Y-95445399D01*
X148433442Y-95445399D01*
X148425169Y-95441972D01*
X148421742Y-95433699D01*
X148422388Y-95429865D01*
X148813635Y-94301927D01*
X148819583Y-94295235D01*
X148826954Y-94294285D01*
X149096157Y-94347426D01*
G37*
%TD.AperFunction*%
%TD*%
%TA.AperFunction,Conductor*%
%TO.N,-BATT*%
G36*
X145664782Y-96705776D02*
G01*
X146550712Y-97590724D01*
X146554143Y-97598996D01*
X146550721Y-97607271D01*
X146550712Y-97607280D01*
X145664782Y-98492227D01*
X145656507Y-98495649D01*
X145650023Y-98493684D01*
X144763210Y-97902475D01*
X144758227Y-97895035D01*
X144758000Y-97892740D01*
X144758000Y-97305263D01*
X144761427Y-97296990D01*
X144763205Y-97295531D01*
X145650025Y-96704318D01*
X145658808Y-96702581D01*
X145664782Y-96705776D01*
G37*
%TD.AperFunction*%
%TD*%
%TA.AperFunction,Conductor*%
%TO.N,-BATT*%
G36*
X138864564Y-97823372D02*
G01*
X138868335Y-97826809D01*
X139188284Y-98282781D01*
X139190231Y-98291521D01*
X139188284Y-98296221D01*
X138868335Y-98752192D01*
X138860778Y-98756996D01*
X138855681Y-98756760D01*
X138250623Y-98591851D01*
X138243543Y-98586369D01*
X138242000Y-98580563D01*
X138242000Y-97998438D01*
X138245427Y-97990165D01*
X138250620Y-97987151D01*
X138855683Y-97822241D01*
X138864564Y-97823372D01*
G37*
%TD.AperFunction*%
%TD*%
%TA.AperFunction,Conductor*%
%TO.N,-BATT*%
G36*
X147459493Y-96572680D02*
G01*
X147460022Y-96573167D01*
X148046529Y-97147114D01*
X148046619Y-97147203D01*
X148461594Y-97562178D01*
X148465021Y-97570451D01*
X148461594Y-97578724D01*
X148460628Y-97579589D01*
X147465612Y-98375287D01*
X147457011Y-98377777D01*
X147450637Y-98374985D01*
X146566106Y-97607357D01*
X146562104Y-97599347D01*
X146564918Y-97590877D01*
X147442993Y-96573888D01*
X147450992Y-96569867D01*
X147459493Y-96572680D01*
G37*
%TD.AperFunction*%
%TD*%
%TA.AperFunction,Conductor*%
%TO.N,12V1*%
G36*
X139652261Y-92076427D02*
G01*
X139655686Y-92084511D01*
X139666894Y-92778939D01*
X139663602Y-92787267D01*
X139661459Y-92789011D01*
X139200516Y-93081103D01*
X139191693Y-93082637D01*
X139185404Y-93078874D01*
X138791571Y-92623538D01*
X138788751Y-92615039D01*
X138789928Y-92610707D01*
X139052280Y-92079518D01*
X139059016Y-92073619D01*
X139062770Y-92073000D01*
X139643988Y-92073000D01*
X139652261Y-92076427D01*
G37*
%TD.AperFunction*%
%TD*%
%TA.AperFunction,Conductor*%
%TO.N,+BATT*%
G36*
X146582858Y-90728250D02*
G01*
X147277632Y-90897571D01*
X147284858Y-90902858D01*
X147285732Y-90904612D01*
X147628571Y-91766260D01*
X147628446Y-91775213D01*
X147624260Y-91780273D01*
X147063496Y-92159950D01*
X146875281Y-92287386D01*
X146860972Y-92297074D01*
X146854412Y-92299086D01*
X146272256Y-92299086D01*
X146263983Y-92295659D01*
X146260556Y-92287386D01*
X146260781Y-92285104D01*
X146568618Y-90737336D01*
X146573593Y-90729890D01*
X146582375Y-90728143D01*
X146582858Y-90728250D01*
G37*
%TD.AperFunction*%
%TD*%
%TA.AperFunction,Conductor*%
%TO.N,Net-(C7-Pad2)*%
G36*
X139491160Y-95505428D02*
G01*
X139494231Y-95510837D01*
X139647012Y-96116053D01*
X139645714Y-96124914D01*
X139642677Y-96128285D01*
X139199009Y-96460256D01*
X139190332Y-96462469D01*
X139184991Y-96460256D01*
X138741322Y-96128285D01*
X138736750Y-96120585D01*
X138736986Y-96116056D01*
X138889769Y-95510836D01*
X138895116Y-95503655D01*
X138901113Y-95502001D01*
X139482887Y-95502001D01*
X139491160Y-95505428D01*
G37*
%TD.AperFunction*%
%TD*%
%TA.AperFunction,Conductor*%
%TO.N,/LDR_SENS*%
G36*
X136818562Y-95392297D02*
G01*
X136826116Y-95397105D01*
X136828235Y-95403820D01*
X136828235Y-95784177D01*
X136824808Y-95792450D01*
X136818562Y-95795700D01*
X136303759Y-95886258D01*
X136295017Y-95884316D01*
X136290264Y-95877055D01*
X136273461Y-95793999D01*
X136233468Y-95596317D01*
X136233468Y-95591679D01*
X136271474Y-95403820D01*
X136290264Y-95310941D01*
X136295264Y-95303513D01*
X136303759Y-95301739D01*
X136818562Y-95392297D01*
G37*
%TD.AperFunction*%
%TD*%
%TA.AperFunction,Conductor*%
%TO.N,-BATT*%
G36*
X139529571Y-97825083D02*
G01*
X139910080Y-98032367D01*
X139912756Y-98034368D01*
X140322844Y-98444456D01*
X140326271Y-98452729D01*
X140322844Y-98461002D01*
X140318576Y-98463722D01*
X139543085Y-98746235D01*
X139534138Y-98745847D01*
X139529714Y-98742254D01*
X139196370Y-98296989D01*
X139194155Y-98288312D01*
X139196150Y-98283269D01*
X139514390Y-97828645D01*
X139521941Y-97823835D01*
X139529571Y-97825083D01*
G37*
%TD.AperFunction*%
%TD*%
%TA.AperFunction,Conductor*%
%TO.N,-BATT*%
G36*
X141573846Y-96699432D02*
G01*
X141659167Y-96774543D01*
X142358917Y-97390556D01*
X142362862Y-97398594D01*
X142359968Y-97407068D01*
X142359961Y-97407076D01*
X141574553Y-98297646D01*
X141566511Y-98301584D01*
X141558254Y-98298867D01*
X140980397Y-97813579D01*
X140979648Y-97812892D01*
X140565690Y-97398934D01*
X140562263Y-97390661D01*
X140565690Y-97382388D01*
X140567322Y-97381028D01*
X140903835Y-97149559D01*
X140910466Y-97147500D01*
X141035893Y-97147500D01*
X141035893Y-97147499D01*
X141099539Y-97130446D01*
X141163184Y-97113393D01*
X141163188Y-97113391D01*
X141201228Y-97091428D01*
X141277314Y-97047500D01*
X141370500Y-96954314D01*
X141436392Y-96840186D01*
X141453981Y-96774541D01*
X141458647Y-96767935D01*
X141559485Y-96698573D01*
X141568243Y-96696709D01*
X141573846Y-96699432D01*
G37*
%TD.AperFunction*%
%TD*%
%TA.AperFunction,Conductor*%
%TO.N,Net-(U2B-+)*%
G36*
X137936317Y-91787830D02*
G01*
X137936947Y-91788221D01*
X138174734Y-91945984D01*
X138178015Y-91949265D01*
X138335778Y-92187052D01*
X138337497Y-92195840D01*
X138332497Y-92203269D01*
X138331867Y-92203660D01*
X137869648Y-92469780D01*
X137860768Y-92470938D01*
X137855537Y-92467913D01*
X137656086Y-92268462D01*
X137652659Y-92260189D01*
X137654218Y-92254354D01*
X137920339Y-91792131D01*
X137927437Y-91786672D01*
X137936317Y-91787830D01*
G37*
%TD.AperFunction*%
%TD*%
%TA.AperFunction,Conductor*%
%TO.N,Net-(C7-Pad2)*%
G36*
X139199615Y-94816033D02*
G01*
X139625008Y-95180880D01*
X139643420Y-95196671D01*
X139647469Y-95204658D01*
X139647147Y-95208416D01*
X139494231Y-95814166D01*
X139488884Y-95821348D01*
X139482887Y-95823002D01*
X138901113Y-95823002D01*
X138892840Y-95819575D01*
X138889769Y-95814166D01*
X138736852Y-95208413D01*
X138738150Y-95199555D01*
X138740576Y-95196673D01*
X139184384Y-94816033D01*
X139192894Y-94813249D01*
X139199615Y-94816033D01*
G37*
%TD.AperFunction*%
%TD*%
%TA.AperFunction,Conductor*%
%TO.N,12V1*%
G36*
X140074886Y-90415387D02*
G01*
X140777182Y-91136593D01*
X140780500Y-91144755D01*
X140780500Y-91728717D01*
X140777073Y-91736990D01*
X140769225Y-91740409D01*
X139825328Y-91774733D01*
X139816936Y-91771609D01*
X139814564Y-91768518D01*
X139359373Y-90909202D01*
X139358530Y-90900288D01*
X139363073Y-90894092D01*
X140059868Y-90413916D01*
X140068624Y-90412044D01*
X140074886Y-90415387D01*
G37*
%TD.AperFunction*%
%TD*%
%TA.AperFunction,Conductor*%
%TO.N,+BATT*%
G36*
X147975599Y-90048616D02*
G01*
X147980250Y-90050123D01*
X148035111Y-90081798D01*
X148035115Y-90081800D01*
X148125476Y-90106011D01*
X148149688Y-90112499D01*
X148149690Y-90112500D01*
X148149691Y-90112500D01*
X148268311Y-90112500D01*
X148268311Y-90112499D01*
X148357319Y-90088649D01*
X148361532Y-90088312D01*
X148697997Y-90122919D01*
X148705875Y-90127175D01*
X148708499Y-90134558D01*
X148708499Y-90719038D01*
X148705072Y-90727311D01*
X148704932Y-90727449D01*
X148003025Y-91406185D01*
X147994696Y-91409472D01*
X147988063Y-91407274D01*
X147290786Y-90905958D01*
X147286069Y-90898346D01*
X147287276Y-90890983D01*
X147742308Y-90031967D01*
X147749208Y-90026263D01*
X147753839Y-90025807D01*
X147975599Y-90048616D01*
G37*
%TD.AperFunction*%
%TD*%
%TA.AperFunction,Conductor*%
%TO.N,GND*%
G36*
X133362890Y-89419407D02*
G01*
X133398854Y-89468907D01*
X133398854Y-89530093D01*
X133396739Y-89535823D01*
X133396608Y-89536312D01*
X133362500Y-89663606D01*
X133362500Y-89795390D01*
X133383245Y-89872813D01*
X133396609Y-89922688D01*
X133462496Y-90036807D01*
X133462498Y-90036809D01*
X133462500Y-90036812D01*
X133970505Y-90544817D01*
X133974130Y-90551932D01*
X133980593Y-90556628D01*
X133987756Y-90578676D01*
X133998281Y-90599332D01*
X133999500Y-90614819D01*
X133999500Y-90765650D01*
X133992052Y-90803322D01*
X133681510Y-91558003D01*
X133673354Y-91581900D01*
X133672604Y-91584640D01*
X133667949Y-91604140D01*
X133667805Y-91604105D01*
X133664641Y-91618183D01*
X133652354Y-91653300D01*
X133652353Y-91653304D01*
X133652353Y-91653306D01*
X133649500Y-91683725D01*
X133649500Y-93292274D01*
X133652353Y-93322694D01*
X133652355Y-93322703D01*
X133697207Y-93450883D01*
X133777845Y-93560144D01*
X133777847Y-93560146D01*
X133777850Y-93560150D01*
X133777853Y-93560152D01*
X133777855Y-93560154D01*
X133887116Y-93640792D01*
X133887117Y-93640792D01*
X133887118Y-93640793D01*
X134015301Y-93685646D01*
X134045725Y-93688499D01*
X134045727Y-93688500D01*
X134045734Y-93688500D01*
X134954273Y-93688500D01*
X134954273Y-93688499D01*
X134984699Y-93685646D01*
X135112484Y-93640931D01*
X135173654Y-93639559D01*
X135223949Y-93674403D01*
X135244157Y-93732154D01*
X135240778Y-93760114D01*
X135146575Y-94109997D01*
X135144970Y-94116356D01*
X135144804Y-94117060D01*
X135144700Y-94122558D01*
X135141345Y-94146291D01*
X135135500Y-94168104D01*
X135135500Y-94168108D01*
X135135500Y-94299892D01*
X135159991Y-94391295D01*
X135169609Y-94427190D01*
X135235496Y-94541309D01*
X135235498Y-94541311D01*
X135235500Y-94541314D01*
X135328686Y-94634500D01*
X135328688Y-94634501D01*
X135328690Y-94634503D01*
X135442810Y-94700390D01*
X135442808Y-94700390D01*
X135442812Y-94700391D01*
X135442814Y-94700392D01*
X135570108Y-94734500D01*
X135570110Y-94734500D01*
X135701890Y-94734500D01*
X135701892Y-94734500D01*
X135829186Y-94700392D01*
X135829188Y-94700390D01*
X135829190Y-94700390D01*
X135943309Y-94634503D01*
X135943309Y-94634502D01*
X135943314Y-94634500D01*
X136036500Y-94541314D01*
X136097002Y-94436520D01*
X136142472Y-94395580D01*
X136203322Y-94389184D01*
X136256310Y-94419777D01*
X136262394Y-94427232D01*
X136315207Y-94498790D01*
X136315209Y-94498792D01*
X136424352Y-94579345D01*
X136552398Y-94624149D01*
X136582789Y-94626999D01*
X137086998Y-94626999D01*
X137087000Y-94626998D01*
X137087000Y-93863500D01*
X137105907Y-93805309D01*
X137155407Y-93769345D01*
X137186000Y-93764500D01*
X137286999Y-93764500D01*
X137287000Y-93764499D01*
X137287000Y-93663500D01*
X137305907Y-93605309D01*
X137355407Y-93569345D01*
X137386000Y-93564500D01*
X138386998Y-93564500D01*
X138398630Y-93552868D01*
X138453146Y-93525090D01*
X138513578Y-93534661D01*
X138556843Y-93577925D01*
X138562077Y-93590170D01*
X138562883Y-93592475D01*
X138562884Y-93592476D01*
X138641285Y-93698706D01*
X138641289Y-93698711D01*
X138641292Y-93698713D01*
X138641293Y-93698714D01*
X138747523Y-93777115D01*
X138747524Y-93777115D01*
X138747525Y-93777116D01*
X138872151Y-93820725D01*
X138899441Y-93823284D01*
X138901733Y-93823499D01*
X138901738Y-93823500D01*
X138901744Y-93823500D01*
X139482262Y-93823500D01*
X139482265Y-93823499D01*
X139511849Y-93820725D01*
X139636475Y-93777116D01*
X139742711Y-93698711D01*
X139821116Y-93592475D01*
X139864725Y-93467849D01*
X139867500Y-93438256D01*
X139867500Y-92811288D01*
X139869102Y-92793550D01*
X139870201Y-92787514D01*
X139872367Y-92775623D01*
X139868538Y-92538395D01*
X139877377Y-92495879D01*
X139909784Y-92424485D01*
X140090853Y-92025580D01*
X140132122Y-91980408D01*
X140177400Y-91967565D01*
X140776693Y-91945773D01*
X140789043Y-91942964D01*
X140810994Y-91940500D01*
X141162890Y-91940500D01*
X141162892Y-91940500D01*
X141290186Y-91906392D01*
X141400336Y-91842796D01*
X141418640Y-91838905D01*
X141435403Y-91830591D01*
X141447840Y-91832698D01*
X141460182Y-91830075D01*
X141477278Y-91837686D01*
X141495728Y-91840813D01*
X141504552Y-91849829D01*
X141516078Y-91854961D01*
X141538523Y-91884539D01*
X141559977Y-91927792D01*
X141618132Y-92045034D01*
X141627052Y-92105566D01*
X141617850Y-92133582D01*
X141420411Y-92525338D01*
X141416804Y-92531205D01*
X141413796Y-92536895D01*
X141409556Y-92546877D01*
X141405616Y-92554696D01*
X141394521Y-92581167D01*
X141394514Y-92581184D01*
X141393465Y-92584277D01*
X141388648Y-92600703D01*
X141387726Y-92606716D01*
X141383317Y-92624393D01*
X141369355Y-92664301D01*
X141369353Y-92664306D01*
X141366500Y-92694726D01*
X141366500Y-94903275D01*
X141369353Y-94933695D01*
X141369355Y-94933704D01*
X141414207Y-95061884D01*
X141494845Y-95171145D01*
X141494847Y-95171147D01*
X141494850Y-95171151D01*
X141494853Y-95171153D01*
X141494855Y-95171155D01*
X141604116Y-95251793D01*
X141604117Y-95251793D01*
X141604118Y-95251794D01*
X141732301Y-95296647D01*
X141762725Y-95299500D01*
X141762727Y-95299501D01*
X141762734Y-95299501D01*
X142971273Y-95299501D01*
X142971273Y-95299500D01*
X143001699Y-95296647D01*
X143129882Y-95251794D01*
X143239150Y-95171151D01*
X143319793Y-95061883D01*
X143364646Y-94933700D01*
X143367499Y-94903274D01*
X143367500Y-94903274D01*
X143367500Y-92694728D01*
X143367499Y-92694726D01*
X143366752Y-92686756D01*
X143364646Y-92664302D01*
X143336345Y-92583424D01*
X143328378Y-92554687D01*
X143321550Y-92541140D01*
X143319794Y-92536121D01*
X143317196Y-92531207D01*
X143313584Y-92525334D01*
X143091848Y-92085372D01*
X143082544Y-92024899D01*
X143088712Y-92003125D01*
X143177791Y-91786814D01*
X143179045Y-91785339D01*
X143179266Y-91783416D01*
X143198750Y-91762173D01*
X143217432Y-91740209D01*
X143220587Y-91738346D01*
X143270792Y-91709973D01*
X143330754Y-91697805D01*
X143368205Y-91709974D01*
X143443140Y-91752323D01*
X143474083Y-91779719D01*
X143511628Y-91830591D01*
X143523850Y-91847151D01*
X143633114Y-91927792D01*
X143633116Y-91927792D01*
X143633118Y-91927794D01*
X143761302Y-91972647D01*
X143791735Y-91975501D01*
X144825264Y-91975500D01*
X144825265Y-91975500D01*
X144831350Y-91974929D01*
X144855698Y-91972647D01*
X144983882Y-91927794D01*
X145093150Y-91847151D01*
X145168625Y-91744886D01*
X145173791Y-91737886D01*
X145173791Y-91737885D01*
X145173793Y-91737883D01*
X145218646Y-91609699D01*
X145221500Y-91579266D01*
X145221499Y-90220737D01*
X145218646Y-90190303D01*
X145173793Y-90062119D01*
X145173791Y-90062117D01*
X145173791Y-90062115D01*
X145093154Y-89952856D01*
X145093152Y-89952854D01*
X145093150Y-89952851D01*
X145093145Y-89952847D01*
X145093144Y-89952846D01*
X144983885Y-89872209D01*
X144962039Y-89864565D01*
X144855698Y-89827355D01*
X144855696Y-89827354D01*
X144855694Y-89827354D01*
X144825272Y-89824501D01*
X143791734Y-89824501D01*
X143761305Y-89827354D01*
X143633114Y-89872209D01*
X143523855Y-89952846D01*
X143523849Y-89952852D01*
X143474087Y-90020277D01*
X143443141Y-90047676D01*
X143368208Y-90090024D01*
X143308245Y-90102194D01*
X143270790Y-90090025D01*
X143270788Y-90090024D01*
X143195857Y-90047677D01*
X143164913Y-90020278D01*
X143115150Y-89952851D01*
X143115147Y-89952849D01*
X143115146Y-89952847D01*
X143005885Y-89872209D01*
X142984039Y-89864565D01*
X142877698Y-89827355D01*
X142877696Y-89827354D01*
X142877694Y-89827354D01*
X142847272Y-89824501D01*
X141813734Y-89824501D01*
X141783305Y-89827354D01*
X141655114Y-89872209D01*
X141545855Y-89952846D01*
X141545845Y-89952856D01*
X141465208Y-90062115D01*
X141420353Y-90190306D01*
X141417500Y-90220727D01*
X141417500Y-90878702D01*
X141398593Y-90936893D01*
X141349093Y-90972857D01*
X141292877Y-90974329D01*
X141282927Y-90971663D01*
X141162892Y-90939500D01*
X141162890Y-90939500D01*
X140913873Y-90939500D01*
X140855682Y-90920593D01*
X140842946Y-90909568D01*
X140296572Y-90348482D01*
X140269521Y-90293601D01*
X140268499Y-90279414D01*
X140268499Y-90220735D01*
X140265646Y-90190306D01*
X140265646Y-90190303D01*
X140220793Y-90062119D01*
X140220791Y-90062117D01*
X140220791Y-90062115D01*
X140140154Y-89952856D01*
X140140152Y-89952854D01*
X140140150Y-89952851D01*
X140140145Y-89952847D01*
X140140144Y-89952846D01*
X140030885Y-89872209D01*
X140009039Y-89864565D01*
X139902698Y-89827355D01*
X139902696Y-89827354D01*
X139902694Y-89827354D01*
X139872273Y-89824501D01*
X139872265Y-89824501D01*
X139248429Y-89824501D01*
X139222807Y-89821128D01*
X139130892Y-89796500D01*
X139130891Y-89796500D01*
X138876859Y-89796500D01*
X138855430Y-89794152D01*
X138842559Y-89791298D01*
X138842556Y-89791297D01*
X138842552Y-89791297D01*
X137946483Y-89771657D01*
X137943474Y-89771615D01*
X137943406Y-89771614D01*
X137943371Y-89771614D01*
X137943072Y-89771612D01*
X137943071Y-89771612D01*
X137943068Y-89771612D01*
X137928238Y-89774578D01*
X137908827Y-89776500D01*
X136582725Y-89776500D01*
X136552305Y-89779353D01*
X136552296Y-89779355D01*
X136424116Y-89824207D01*
X136314855Y-89904845D01*
X136314847Y-89904853D01*
X136296794Y-89929314D01*
X136247026Y-89964905D01*
X136185842Y-89964447D01*
X136150497Y-89942605D01*
X136150460Y-89942654D01*
X136149978Y-89942284D01*
X136147138Y-89940529D01*
X136145314Y-89938705D01*
X136145311Y-89938703D01*
X136145309Y-89938701D01*
X136031189Y-89872814D01*
X136031191Y-89872814D01*
X135963329Y-89854631D01*
X135903892Y-89838705D01*
X135903890Y-89838705D01*
X134721029Y-89838705D01*
X134662838Y-89819798D01*
X134651025Y-89809709D01*
X134410820Y-89569504D01*
X134383043Y-89514987D01*
X134392614Y-89454555D01*
X134435879Y-89411290D01*
X134480824Y-89400500D01*
X148626094Y-89400500D01*
X148684285Y-89419407D01*
X148720249Y-89468907D01*
X148720249Y-89530093D01*
X148684285Y-89579593D01*
X148674173Y-89586041D01*
X148522947Y-89670055D01*
X148522934Y-89670064D01*
X148478646Y-89703184D01*
X148474197Y-89707560D01*
X148474188Y-89707570D01*
X148440334Y-89751315D01*
X148440333Y-89751315D01*
X148411564Y-89801145D01*
X148395832Y-89821648D01*
X148368647Y-89848833D01*
X148348144Y-89864565D01*
X148314855Y-89883785D01*
X148290978Y-89893675D01*
X148253841Y-89903626D01*
X148228219Y-89907000D01*
X148189780Y-89907000D01*
X148164157Y-89903627D01*
X148127023Y-89893677D01*
X148103146Y-89883786D01*
X148094218Y-89878631D01*
X148083010Y-89872160D01*
X148082989Y-89872150D01*
X148043599Y-89854631D01*
X148043593Y-89854629D01*
X148038942Y-89853122D01*
X147996625Y-89844194D01*
X147996614Y-89844192D01*
X147996609Y-89844192D01*
X147774875Y-89821385D01*
X147774882Y-89821385D01*
X147746873Y-89821324D01*
X147733701Y-89821296D01*
X147733700Y-89821296D01*
X147733693Y-89821296D01*
X147729090Y-89821749D01*
X147729071Y-89821751D01*
X147729070Y-89821752D01*
X147729065Y-89821752D01*
X147729051Y-89821755D01*
X147721376Y-89823073D01*
X147704622Y-89824501D01*
X146766734Y-89824501D01*
X146736305Y-89827354D01*
X146608114Y-89872209D01*
X146498855Y-89952846D01*
X146498845Y-89952856D01*
X146418208Y-90062115D01*
X146373353Y-90190306D01*
X146370500Y-90220727D01*
X146370500Y-90671242D01*
X146367369Y-90692351D01*
X146368014Y-90692480D01*
X146270792Y-91181296D01*
X146243698Y-91231987D01*
X146157500Y-91318185D01*
X146157496Y-91318191D01*
X146091609Y-91432311D01*
X146091607Y-91432315D01*
X146067869Y-91520904D01*
X146055158Y-91549373D01*
X145557837Y-92311683D01*
X145557826Y-92311702D01*
X145556164Y-92314932D01*
X145547802Y-92328401D01*
X145505207Y-92386117D01*
X145505205Y-92386121D01*
X145460355Y-92514296D01*
X145460353Y-92514305D01*
X145457500Y-92544725D01*
X145457500Y-94653274D01*
X145460353Y-94683694D01*
X145460355Y-94683703D01*
X145505207Y-94811883D01*
X145585845Y-94921144D01*
X145585847Y-94921146D01*
X145585850Y-94921150D01*
X145585853Y-94921152D01*
X145585855Y-94921154D01*
X145695116Y-95001792D01*
X145695117Y-95001792D01*
X145695118Y-95001793D01*
X145823301Y-95046646D01*
X145853725Y-95049499D01*
X145853727Y-95049500D01*
X145853734Y-95049500D01*
X147262273Y-95049500D01*
X147262273Y-95049499D01*
X147292699Y-95046646D01*
X147420882Y-95001793D01*
X147502190Y-94941784D01*
X147517344Y-94932576D01*
X147519266Y-94931633D01*
X147767034Y-94742193D01*
X147801537Y-94725216D01*
X147894186Y-94700392D01*
X148008314Y-94634500D01*
X148101500Y-94541314D01*
X148126051Y-94498790D01*
X148167390Y-94427190D01*
X148167390Y-94427188D01*
X148167392Y-94427186D01*
X148201500Y-94299892D01*
X148201500Y-94294439D01*
X148220407Y-94236248D01*
X148269907Y-94200284D01*
X148331093Y-94200284D01*
X148380593Y-94236248D01*
X148387682Y-94247532D01*
X148505292Y-94466122D01*
X148516213Y-94526324D01*
X148511643Y-94545473D01*
X148445768Y-94735386D01*
X148422241Y-94772943D01*
X148409688Y-94785497D01*
X148316500Y-94878685D01*
X148316496Y-94878690D01*
X148250609Y-94992809D01*
X148245969Y-95010126D01*
X148220804Y-95104047D01*
X148216500Y-95120109D01*
X148216500Y-96652678D01*
X148214031Y-96660275D01*
X148215281Y-96668166D01*
X148204757Y-96688819D01*
X148197593Y-96710869D01*
X148187503Y-96722682D01*
X148117833Y-96792351D01*
X148063316Y-96820128D01*
X148002884Y-96810556D01*
X147978588Y-96793104D01*
X147926967Y-96742588D01*
X147652388Y-96473887D01*
X147628188Y-96435832D01*
X147610793Y-96386120D01*
X147610791Y-96386118D01*
X147610791Y-96386116D01*
X147530154Y-96276857D01*
X147530152Y-96276855D01*
X147530150Y-96276852D01*
X147530146Y-96276849D01*
X147530144Y-96276847D01*
X147420883Y-96196209D01*
X147292703Y-96151357D01*
X147292694Y-96151355D01*
X147262274Y-96148502D01*
X147262266Y-96148502D01*
X145853734Y-96148502D01*
X145853725Y-96148502D01*
X145823305Y-96151355D01*
X145823296Y-96151357D01*
X145695116Y-96196209D01*
X145585855Y-96276847D01*
X145585845Y-96276857D01*
X145505207Y-96386118D01*
X145460355Y-96514298D01*
X145460353Y-96514306D01*
X145457806Y-96541458D01*
X145433546Y-96597628D01*
X145414154Y-96614583D01*
X144713219Y-97081875D01*
X144658304Y-97098502D01*
X144075929Y-97098502D01*
X144017738Y-97079595D01*
X144016141Y-97078409D01*
X143406712Y-96616645D01*
X143371750Y-96566433D01*
X143367500Y-96537738D01*
X143367500Y-96294728D01*
X143367499Y-96294726D01*
X143364646Y-96264306D01*
X143364646Y-96264302D01*
X143319793Y-96136119D01*
X143316868Y-96132156D01*
X143239154Y-96026856D01*
X143239152Y-96026854D01*
X143239150Y-96026851D01*
X143239146Y-96026848D01*
X143239144Y-96026846D01*
X143129883Y-95946208D01*
X143001703Y-95901356D01*
X143001694Y-95901354D01*
X142971274Y-95898501D01*
X142971266Y-95898501D01*
X141762734Y-95898501D01*
X141762725Y-95898501D01*
X141732305Y-95901354D01*
X141732296Y-95901356D01*
X141604116Y-95946208D01*
X141494855Y-96026846D01*
X141494845Y-96026856D01*
X141414207Y-96136117D01*
X141398531Y-96180917D01*
X141361465Y-96229598D01*
X141302865Y-96247194D01*
X141255587Y-96233955D01*
X141163189Y-96180609D01*
X141163191Y-96180609D01*
X141111791Y-96166837D01*
X141035892Y-96146500D01*
X140904108Y-96146500D01*
X140776814Y-96180608D01*
X140776812Y-96180608D01*
X140776812Y-96180609D01*
X140729394Y-96207985D01*
X140720349Y-96212605D01*
X140713783Y-96215544D01*
X140700592Y-96219280D01*
X140666265Y-96236818D01*
X140663943Y-96237858D01*
X140655751Y-96238736D01*
X140623490Y-96246500D01*
X140536273Y-96246500D01*
X140473929Y-96263204D01*
X140434407Y-96273794D01*
X140343091Y-96326516D01*
X140343086Y-96326520D01*
X140177089Y-96492516D01*
X140177087Y-96492518D01*
X140173370Y-96496233D01*
X140171241Y-96497954D01*
X140170239Y-96499364D01*
X140164344Y-96505259D01*
X140164345Y-96505259D01*
X140036504Y-96633101D01*
X139981987Y-96660879D01*
X139921555Y-96651308D01*
X139878291Y-96608043D01*
X139867500Y-96563098D01*
X139867500Y-96161739D01*
X139867499Y-96161734D01*
X139865097Y-96136119D01*
X139864725Y-96132152D01*
X139851776Y-96095148D01*
X139846349Y-96067490D01*
X139846261Y-96065754D01*
X139778657Y-95797955D01*
X139750580Y-95686731D01*
X139750580Y-95638268D01*
X139767895Y-95569679D01*
X139846396Y-95258715D01*
X139849351Y-95241113D01*
X139853540Y-95224814D01*
X139854947Y-95220793D01*
X139864725Y-95192851D01*
X139867500Y-95163258D01*
X139867500Y-94457746D01*
X139867500Y-94457740D01*
X139867499Y-94457735D01*
X139866851Y-94450823D01*
X139864725Y-94428153D01*
X139821116Y-94303527D01*
X139818433Y-94299892D01*
X139742714Y-94197295D01*
X139742713Y-94197294D01*
X139742711Y-94197291D01*
X139742706Y-94197287D01*
X139636476Y-94118886D01*
X139511852Y-94075278D01*
X139511851Y-94075277D01*
X139511849Y-94075277D01*
X139511847Y-94075276D01*
X139511844Y-94075276D01*
X139482266Y-94072502D01*
X139482256Y-94072502D01*
X138901744Y-94072502D01*
X138901733Y-94072502D01*
X138872155Y-94075276D01*
X138872147Y-94075278D01*
X138747523Y-94118886D01*
X138641293Y-94197287D01*
X138641284Y-94197296D01*
X138565102Y-94300520D01*
X138515334Y-94336113D01*
X138454151Y-94335655D01*
X138404921Y-94299322D01*
X138386450Y-94240991D01*
X138386880Y-94232479D01*
X138387000Y-94231200D01*
X138387000Y-93964501D01*
X138386999Y-93964500D01*
X137487001Y-93964500D01*
X137487000Y-93964501D01*
X137487000Y-94626998D01*
X137487001Y-94626999D01*
X137991203Y-94626999D01*
X138021600Y-94624149D01*
X138021602Y-94624149D01*
X138149647Y-94579345D01*
X138258790Y-94498792D01*
X138258794Y-94498788D01*
X138338128Y-94391295D01*
X138387895Y-94355702D01*
X138449079Y-94356160D01*
X138498309Y-94392493D01*
X138516780Y-94450823D01*
X138516550Y-94455426D01*
X138516608Y-94455429D01*
X138516500Y-94457740D01*
X138516500Y-95163268D01*
X138519274Y-95192846D01*
X138519274Y-95192849D01*
X138519275Y-95192851D01*
X138524712Y-95208388D01*
X138532096Y-95229491D01*
X138537522Y-95257136D01*
X138537601Y-95258700D01*
X138537603Y-95258713D01*
X138573474Y-95400808D01*
X138614800Y-95564518D01*
X138633418Y-95638268D01*
X138633418Y-95686731D01*
X138618415Y-95746162D01*
X138585839Y-95797955D01*
X138529042Y-95820709D01*
X138469718Y-95805733D01*
X138430526Y-95758747D01*
X138426799Y-95747552D01*
X138426427Y-95746162D01*
X138422207Y-95730413D01*
X138377687Y-95653302D01*
X138377687Y-95653301D01*
X138369479Y-95639086D01*
X138294913Y-95564519D01*
X138294913Y-95564520D01*
X138294911Y-95564518D01*
X138294911Y-95564517D01*
X138003912Y-95273519D01*
X138003907Y-95273515D01*
X137912590Y-95220793D01*
X137912592Y-95220793D01*
X137873069Y-95210203D01*
X137810726Y-95193499D01*
X137810724Y-95193499D01*
X136880597Y-95193499D01*
X136858990Y-95190539D01*
X136858954Y-95190748D01*
X136854165Y-95189905D01*
X136854164Y-95189905D01*
X136339361Y-95099347D01*
X136339360Y-95099347D01*
X136338930Y-95099353D01*
X136336526Y-95099391D01*
X136309342Y-95096031D01*
X136299893Y-95093499D01*
X136299891Y-95093499D01*
X136168107Y-95093499D01*
X136090199Y-95114374D01*
X136040808Y-95127608D01*
X135926689Y-95193495D01*
X135833495Y-95286689D01*
X135767608Y-95400808D01*
X135763576Y-95415856D01*
X135733499Y-95528107D01*
X135733499Y-95659891D01*
X135759987Y-95758747D01*
X135767608Y-95787189D01*
X135833495Y-95901308D01*
X135833497Y-95901310D01*
X135833499Y-95901313D01*
X135926685Y-95994499D01*
X135926687Y-95994500D01*
X135926689Y-95994502D01*
X136040809Y-96060389D01*
X136040807Y-96060389D01*
X136040811Y-96060390D01*
X136040813Y-96060391D01*
X136168107Y-96094499D01*
X136168109Y-96094499D01*
X136299892Y-96094499D01*
X136303904Y-96093423D01*
X136309392Y-96091952D01*
X136337237Y-96088602D01*
X136339361Y-96088650D01*
X136524743Y-96056039D01*
X136585325Y-96064579D01*
X136629321Y-96107099D01*
X136639187Y-96163186D01*
X136640259Y-96163264D01*
X136640000Y-96166837D01*
X136640000Y-96198500D01*
X136640001Y-96198501D01*
X137061000Y-96198501D01*
X137119191Y-96217408D01*
X137155155Y-96266908D01*
X137160000Y-96297501D01*
X137160000Y-96499501D01*
X137141093Y-96557692D01*
X137091593Y-96593656D01*
X137061000Y-96598501D01*
X136640002Y-96598501D01*
X136640001Y-96598502D01*
X136640001Y-96630167D01*
X136641369Y-96639556D01*
X136631047Y-96699864D01*
X136587249Y-96742588D01*
X136526702Y-96751408D01*
X136517785Y-96749455D01*
X136400392Y-96718000D01*
X136400390Y-96718000D01*
X135947822Y-96718000D01*
X135889631Y-96699093D01*
X135877818Y-96689004D01*
X135597699Y-96408885D01*
X135579975Y-96387369D01*
X135559184Y-96370370D01*
X135555686Y-96366872D01*
X135555684Y-96366869D01*
X135308314Y-96119500D01*
X135308309Y-96119496D01*
X135194189Y-96053609D01*
X135194186Y-96053608D01*
X135181386Y-96050178D01*
X135144347Y-96031195D01*
X135103859Y-95998092D01*
X134719377Y-95683735D01*
X134478045Y-95486420D01*
X134461053Y-95468564D01*
X134422148Y-95415848D01*
X134312883Y-95335208D01*
X134184703Y-95290356D01*
X134184694Y-95290354D01*
X134154274Y-95287501D01*
X134154266Y-95287501D01*
X132545734Y-95287501D01*
X132545725Y-95287501D01*
X132515305Y-95290354D01*
X132515296Y-95290356D01*
X132387116Y-95335208D01*
X132277855Y-95415846D01*
X132277845Y-95415856D01*
X132197207Y-95525117D01*
X132152355Y-95653297D01*
X132152353Y-95653306D01*
X132149500Y-95683726D01*
X132149500Y-97292275D01*
X132152353Y-97322695D01*
X132152355Y-97322704D01*
X132197207Y-97450884D01*
X132277845Y-97560145D01*
X132277847Y-97560147D01*
X132277850Y-97560151D01*
X132277853Y-97560153D01*
X132277855Y-97560155D01*
X132387116Y-97640793D01*
X132387117Y-97640793D01*
X132387118Y-97640794D01*
X132515301Y-97685647D01*
X132545725Y-97688500D01*
X132545727Y-97688501D01*
X132545734Y-97688501D01*
X134154273Y-97688501D01*
X134154273Y-97688500D01*
X134184699Y-97685647D01*
X134312882Y-97640794D01*
X134323396Y-97633032D01*
X134332285Y-97627182D01*
X134940905Y-97272102D01*
X135000693Y-97259110D01*
X135056701Y-97283743D01*
X135060795Y-97287610D01*
X135392185Y-97618999D01*
X135392190Y-97619003D01*
X135506310Y-97684890D01*
X135506308Y-97684890D01*
X135506312Y-97684891D01*
X135506314Y-97684892D01*
X135633607Y-97719000D01*
X135633608Y-97719000D01*
X135633609Y-97719000D01*
X136400390Y-97719000D01*
X136400392Y-97719000D01*
X136514880Y-97688323D01*
X136575978Y-97691525D01*
X136623528Y-97730031D01*
X136639500Y-97783948D01*
X136639500Y-97825209D01*
X136639500Y-97825212D01*
X136639501Y-97825215D01*
X136649709Y-97895287D01*
X136702551Y-98003376D01*
X136787625Y-98088450D01*
X136895714Y-98141292D01*
X136965785Y-98151501D01*
X136969165Y-98151500D01*
X137027356Y-98170399D01*
X137039181Y-98180496D01*
X137455500Y-98596815D01*
X137455499Y-98596815D01*
X137548685Y-98690000D01*
X137548690Y-98690004D01*
X137662810Y-98755891D01*
X137662808Y-98755891D01*
X137662812Y-98755892D01*
X137662814Y-98755893D01*
X137790108Y-98790001D01*
X138182903Y-98790001D01*
X138208934Y-98793484D01*
X138801643Y-98955028D01*
X138818646Y-98957705D01*
X138835938Y-98962054D01*
X138872151Y-98974726D01*
X138899441Y-98977285D01*
X138901733Y-98977500D01*
X138901738Y-98977501D01*
X138901744Y-98977501D01*
X139482262Y-98977501D01*
X139482265Y-98977500D01*
X139511849Y-98974726D01*
X139612716Y-98939430D01*
X139613427Y-98939321D01*
X139623095Y-98935798D01*
X139636475Y-98931117D01*
X139636477Y-98931114D01*
X139640862Y-98929581D01*
X139644055Y-98928161D01*
X140006892Y-98795981D01*
X140040779Y-98790001D01*
X140145390Y-98790001D01*
X140145392Y-98790001D01*
X140272686Y-98755893D01*
X140272688Y-98755891D01*
X140272690Y-98755891D01*
X140386809Y-98690004D01*
X140386809Y-98690003D01*
X140386814Y-98690001D01*
X140924099Y-98152715D01*
X140978614Y-98124940D01*
X141039046Y-98134511D01*
X141057763Y-98146906D01*
X141331167Y-98376511D01*
X141363569Y-98428413D01*
X141366500Y-98452323D01*
X141366500Y-98503275D01*
X141369353Y-98533695D01*
X141369355Y-98533704D01*
X141414207Y-98661884D01*
X141494845Y-98771145D01*
X141494847Y-98771147D01*
X141494850Y-98771151D01*
X141494853Y-98771153D01*
X141494855Y-98771155D01*
X141604116Y-98851793D01*
X141604117Y-98851793D01*
X141604118Y-98851794D01*
X141732301Y-98896647D01*
X141762725Y-98899500D01*
X141762727Y-98899501D01*
X141762734Y-98899501D01*
X142971273Y-98899501D01*
X142971273Y-98899500D01*
X143001699Y-98896647D01*
X143129882Y-98851794D01*
X143239150Y-98771151D01*
X143319793Y-98661883D01*
X143364646Y-98533700D01*
X143367499Y-98503274D01*
X143367500Y-98503274D01*
X143367500Y-98494697D01*
X143386407Y-98436506D01*
X143421674Y-98406427D01*
X143463411Y-98385231D01*
X143463410Y-98385231D01*
X143463419Y-98385227D01*
X143511738Y-98351147D01*
X143516572Y-98346565D01*
X143553169Y-98300169D01*
X143561430Y-98285858D01*
X143577160Y-98265357D01*
X143604359Y-98238158D01*
X143624850Y-98222435D01*
X143658154Y-98203207D01*
X143682025Y-98193321D01*
X143719154Y-98183373D01*
X143744775Y-98180000D01*
X143815534Y-98180000D01*
X143815537Y-98180000D01*
X143863370Y-98174356D01*
X143868668Y-98173088D01*
X143913887Y-98156458D01*
X144004910Y-98110231D01*
X144049736Y-98099502D01*
X144658306Y-98099502D01*
X144713221Y-98116129D01*
X145414154Y-98583418D01*
X145452084Y-98631428D01*
X145457806Y-98656544D01*
X145460353Y-98683697D01*
X145460355Y-98683705D01*
X145505207Y-98811885D01*
X145585845Y-98921146D01*
X145585847Y-98921148D01*
X145585850Y-98921152D01*
X145585853Y-98921154D01*
X145585855Y-98921156D01*
X145695116Y-99001794D01*
X145695117Y-99001794D01*
X145695118Y-99001795D01*
X145823301Y-99046648D01*
X145853725Y-99049501D01*
X145853727Y-99049502D01*
X145853734Y-99049502D01*
X147262273Y-99049502D01*
X147262273Y-99049501D01*
X147292699Y-99046648D01*
X147420882Y-99001795D01*
X147530150Y-98921152D01*
X147610793Y-98811884D01*
X147655646Y-98683701D01*
X147658499Y-98653275D01*
X147658500Y-98653275D01*
X147658500Y-98531758D01*
X147677407Y-98473567D01*
X147695667Y-98454443D01*
X148150861Y-98090431D01*
X148187065Y-98072124D01*
X148212184Y-98065394D01*
X148326312Y-97999502D01*
X148572797Y-97753016D01*
X148588972Y-97740082D01*
X148597715Y-97732682D01*
X148598681Y-97731817D01*
X148610082Y-97715731D01*
X149117500Y-97208314D01*
X149140421Y-97168614D01*
X149183390Y-97094190D01*
X149183390Y-97094188D01*
X149183392Y-97094186D01*
X149217500Y-96966892D01*
X149217500Y-96835107D01*
X149217500Y-95628226D01*
X149236407Y-95570035D01*
X149268803Y-95541473D01*
X149879451Y-95205761D01*
X149893705Y-95199858D01*
X149910020Y-95188956D01*
X149941842Y-95171462D01*
X149949474Y-95167051D01*
X149950329Y-95166532D01*
X149959708Y-95157558D01*
X149973148Y-95146775D01*
X150001836Y-95127607D01*
X150037099Y-95104045D01*
X150159045Y-94982099D01*
X150228141Y-94878690D01*
X150254854Y-94838712D01*
X150254860Y-94838700D01*
X150312149Y-94700391D01*
X150320855Y-94679374D01*
X150354500Y-94510229D01*
X150354500Y-94337771D01*
X150320855Y-94168626D01*
X150287622Y-94088394D01*
X150254860Y-94009299D01*
X150254854Y-94009287D01*
X150196505Y-93921964D01*
X150159045Y-93865901D01*
X150159040Y-93865896D01*
X150159037Y-93865892D01*
X150037098Y-93743954D01*
X150004664Y-93722283D01*
X149961800Y-93693642D01*
X149940059Y-93675699D01*
X149913811Y-93661576D01*
X149893705Y-93648142D01*
X149893704Y-93648141D01*
X149893699Y-93648138D01*
X149877189Y-93641299D01*
X149868170Y-93637019D01*
X149571019Y-93477139D01*
X149528734Y-93432917D01*
X149520517Y-93372286D01*
X149549507Y-93318405D01*
X149598611Y-93292859D01*
X149734374Y-93265855D01*
X149893705Y-93199858D01*
X149893707Y-93199856D01*
X149893712Y-93199854D01*
X149935115Y-93172188D01*
X150037099Y-93104045D01*
X150159045Y-92982099D01*
X150239833Y-92861192D01*
X150254854Y-92838712D01*
X150254860Y-92838700D01*
X150269918Y-92802347D01*
X150320855Y-92679374D01*
X150354500Y-92510229D01*
X150354500Y-92337771D01*
X150320855Y-92168626D01*
X150281513Y-92073645D01*
X150254860Y-92009299D01*
X150254854Y-92009287D01*
X150179896Y-91897107D01*
X150159045Y-91865901D01*
X150037099Y-91743955D01*
X149996249Y-91716660D01*
X149893712Y-91648145D01*
X149893700Y-91648139D01*
X149734374Y-91582145D01*
X149565231Y-91548500D01*
X149565229Y-91548500D01*
X149392771Y-91548500D01*
X149392768Y-91548500D01*
X149223626Y-91582145D01*
X149223624Y-91582145D01*
X149064299Y-91648139D01*
X149064287Y-91648145D01*
X148920901Y-91743955D01*
X148920897Y-91743958D01*
X148798958Y-91865897D01*
X148798955Y-91865901D01*
X148703145Y-92009287D01*
X148703141Y-92009296D01*
X148676487Y-92073645D01*
X148636750Y-92120171D01*
X148577255Y-92134454D01*
X148520727Y-92111039D01*
X148499287Y-92085260D01*
X148482500Y-92056184D01*
X148389314Y-91962998D01*
X148389311Y-91962996D01*
X148389309Y-91962994D01*
X148275189Y-91897107D01*
X148275185Y-91897105D01*
X148210669Y-91879818D01*
X148159355Y-91846494D01*
X148137429Y-91789373D01*
X148147171Y-91745176D01*
X148146342Y-91744886D01*
X148148757Y-91737982D01*
X148148771Y-91737922D01*
X148148787Y-91737890D01*
X148148793Y-91737883D01*
X148193646Y-91609699D01*
X148196500Y-91579266D01*
X148196499Y-91546944D01*
X148215405Y-91488755D01*
X148226667Y-91475788D01*
X148477651Y-91233090D01*
X148477705Y-91233064D01*
X148477733Y-91233010D01*
X148477737Y-91233006D01*
X148505196Y-91219633D01*
X148532623Y-91206234D01*
X148532685Y-91206244D01*
X148532743Y-91206217D01*
X148536377Y-91206893D01*
X148592886Y-91216818D01*
X148592993Y-91216875D01*
X148593772Y-91217289D01*
X148696491Y-91274356D01*
X148714435Y-91281532D01*
X148719193Y-91284066D01*
X148720382Y-91285299D01*
X148723379Y-91286877D01*
X148725773Y-91287869D01*
X148743212Y-91293043D01*
X148744678Y-91293630D01*
X148750351Y-91295102D01*
X148790293Y-91301357D01*
X148793071Y-91300886D01*
X148809584Y-91299500D01*
X150173747Y-91299500D01*
X150173748Y-91299500D01*
X150232231Y-91287867D01*
X150298552Y-91243552D01*
X150342867Y-91177231D01*
X150354500Y-91118748D01*
X150354500Y-89729252D01*
X150342867Y-89670769D01*
X150298552Y-89604448D01*
X150271004Y-89586041D01*
X150264680Y-89581815D01*
X150226801Y-89533765D01*
X150224399Y-89472627D01*
X150258392Y-89421753D01*
X150315796Y-89400576D01*
X150319682Y-89400500D01*
X151419500Y-89400500D01*
X151477691Y-89419407D01*
X151513655Y-89468907D01*
X151518500Y-89499500D01*
X151518500Y-97478857D01*
X151499593Y-97537048D01*
X151450093Y-97573012D01*
X151388907Y-97573012D01*
X151339408Y-97537048D01*
X151321832Y-97512857D01*
X151321830Y-97512855D01*
X151321828Y-97512852D01*
X151182646Y-97373670D01*
X151023405Y-97257974D01*
X151023404Y-97257973D01*
X151023402Y-97257972D01*
X150848025Y-97168614D01*
X150660821Y-97107787D01*
X150466420Y-97076998D01*
X150466417Y-97076998D01*
X150269583Y-97076998D01*
X150269580Y-97076998D01*
X150075178Y-97107787D01*
X149887974Y-97168614D01*
X149712597Y-97257972D01*
X149553355Y-97373669D01*
X149414171Y-97512853D01*
X149298474Y-97672095D01*
X149209116Y-97847472D01*
X149148289Y-98034676D01*
X149117500Y-98229077D01*
X149117500Y-98425918D01*
X149148289Y-98620319D01*
X149209116Y-98807523D01*
X149295723Y-98977501D01*
X149298476Y-98982903D01*
X149414172Y-99142144D01*
X149551526Y-99279498D01*
X149579302Y-99334013D01*
X149569731Y-99394445D01*
X149526466Y-99437710D01*
X149481521Y-99448500D01*
X129537479Y-99448500D01*
X129479288Y-99429593D01*
X129443324Y-99380093D01*
X129443324Y-99318907D01*
X129467473Y-99279498D01*
X129604828Y-99142144D01*
X129720524Y-98982903D01*
X129809884Y-98807523D01*
X129870709Y-98620324D01*
X129870710Y-98620319D01*
X129901500Y-98425918D01*
X129901500Y-98229077D01*
X129870710Y-98034676D01*
X129860540Y-98003376D01*
X129809884Y-97847473D01*
X129720524Y-97672093D01*
X129604828Y-97512852D01*
X129465646Y-97373670D01*
X129306405Y-97257974D01*
X129306404Y-97257973D01*
X129306402Y-97257972D01*
X129131025Y-97168614D01*
X128943821Y-97107787D01*
X128749420Y-97076998D01*
X128749417Y-97076998D01*
X128552583Y-97076998D01*
X128552580Y-97076998D01*
X128358178Y-97107787D01*
X128170974Y-97168614D01*
X127995597Y-97257972D01*
X127836355Y-97373669D01*
X127697167Y-97512857D01*
X127679592Y-97537048D01*
X127630092Y-97573012D01*
X127568907Y-97573011D01*
X127519407Y-97537047D01*
X127500500Y-97478857D01*
X127500500Y-96526315D01*
X127519407Y-96468124D01*
X127568907Y-96432160D01*
X127630093Y-96432160D01*
X127679155Y-96467527D01*
X127743617Y-96554871D01*
X127743622Y-96554877D01*
X127743625Y-96554879D01*
X127743627Y-96554881D01*
X127852692Y-96635375D01*
X127852698Y-96635378D01*
X127922453Y-96659786D01*
X127980646Y-96680149D01*
X127980647Y-96680150D01*
X127980648Y-96680150D01*
X127980651Y-96680151D01*
X128011024Y-96682999D01*
X128011027Y-96682999D01*
X129020973Y-96682999D01*
X129020976Y-96682999D01*
X129051349Y-96680151D01*
X129179304Y-96635377D01*
X129186364Y-96630167D01*
X129272720Y-96566433D01*
X129288378Y-96554877D01*
X129368878Y-96445803D01*
X129413652Y-96317848D01*
X129416500Y-96287475D01*
X129416500Y-95277523D01*
X129413652Y-95247150D01*
X129387060Y-95171155D01*
X129368879Y-95119197D01*
X129368876Y-95119191D01*
X129288382Y-95010126D01*
X129288380Y-95010124D01*
X129288378Y-95010121D01*
X129288374Y-95010118D01*
X129288372Y-95010116D01*
X129179307Y-94929622D01*
X129179301Y-94929619D01*
X129051353Y-94884848D01*
X129051352Y-94884847D01*
X129036162Y-94883423D01*
X129020976Y-94881999D01*
X128011024Y-94881999D01*
X127998007Y-94883219D01*
X127980647Y-94884847D01*
X127980646Y-94884848D01*
X127852698Y-94929619D01*
X127852692Y-94929622D01*
X127743627Y-95010116D01*
X127743617Y-95010126D01*
X127679155Y-95097470D01*
X127629387Y-95133063D01*
X127568204Y-95132605D01*
X127518974Y-95096272D01*
X127500500Y-95038682D01*
X127500500Y-93621692D01*
X127519407Y-93563501D01*
X127568907Y-93527537D01*
X127630093Y-93527537D01*
X127679593Y-93563501D01*
X127690964Y-93583807D01*
X127717985Y-93649044D01*
X127717985Y-93649045D01*
X127816535Y-93796534D01*
X127816536Y-93796535D01*
X127941965Y-93921964D01*
X128089453Y-94020513D01*
X128253334Y-94088394D01*
X128427309Y-94123000D01*
X128427310Y-94123000D01*
X128604690Y-94123000D01*
X128604691Y-94123000D01*
X128778666Y-94088394D01*
X128942547Y-94020513D01*
X129090035Y-93921964D01*
X129215464Y-93796535D01*
X129314013Y-93649047D01*
X129381894Y-93485166D01*
X129416500Y-93311191D01*
X129416500Y-93133809D01*
X129381894Y-92959834D01*
X129335549Y-92847946D01*
X129314014Y-92795955D01*
X129314014Y-92795954D01*
X129251232Y-92701995D01*
X129241881Y-92688001D01*
X131350001Y-92688001D01*
X131350001Y-93292203D01*
X131352850Y-93322600D01*
X131352850Y-93322602D01*
X131397654Y-93450647D01*
X131478207Y-93559790D01*
X131478209Y-93559792D01*
X131587352Y-93640345D01*
X131715398Y-93685149D01*
X131745789Y-93687999D01*
X131999998Y-93687999D01*
X132000000Y-93687998D01*
X132000000Y-92688001D01*
X132400000Y-92688001D01*
X132400000Y-93687998D01*
X132400001Y-93687999D01*
X132654203Y-93687999D01*
X132684600Y-93685149D01*
X132684602Y-93685149D01*
X132812647Y-93640345D01*
X132921790Y-93559792D01*
X132921792Y-93559790D01*
X133002345Y-93450647D01*
X133047149Y-93322601D01*
X133049999Y-93292211D01*
X133050000Y-93292210D01*
X133050000Y-92688001D01*
X133049999Y-92688000D01*
X132400001Y-92688000D01*
X132400000Y-92688001D01*
X132000000Y-92688001D01*
X131999999Y-92688000D01*
X131350002Y-92688000D01*
X131350001Y-92688001D01*
X129241881Y-92688001D01*
X129215464Y-92648465D01*
X129090034Y-92523035D01*
X128942544Y-92424485D01*
X128778666Y-92356606D01*
X128604693Y-92322000D01*
X128604691Y-92322000D01*
X128427309Y-92322000D01*
X128427306Y-92322000D01*
X128253334Y-92356606D01*
X128253332Y-92356606D01*
X128089455Y-92424485D01*
X128089454Y-92424485D01*
X127941965Y-92523035D01*
X127816535Y-92648465D01*
X127717985Y-92795954D01*
X127717985Y-92795955D01*
X127690964Y-92861192D01*
X127651228Y-92907718D01*
X127591733Y-92922002D01*
X127535205Y-92898587D01*
X127503235Y-92846419D01*
X127500500Y-92823307D01*
X127500500Y-91429138D01*
X127519407Y-91370947D01*
X127568907Y-91334983D01*
X127630093Y-91334983D01*
X127679590Y-91370945D01*
X127697172Y-91395144D01*
X127836354Y-91534326D01*
X127995595Y-91650022D01*
X128170975Y-91739382D01*
X128358174Y-91800207D01*
X128358175Y-91800207D01*
X128358178Y-91800208D01*
X128552580Y-91830998D01*
X128552583Y-91830998D01*
X128749420Y-91830998D01*
X128943821Y-91800208D01*
X128943822Y-91800207D01*
X128943826Y-91800207D01*
X129131025Y-91739382D01*
X129240135Y-91683788D01*
X131350000Y-91683788D01*
X131350000Y-92287999D01*
X131350001Y-92288000D01*
X131999999Y-92288000D01*
X132000000Y-92287999D01*
X132000000Y-91288001D01*
X132400000Y-91288001D01*
X132400000Y-92287999D01*
X132400001Y-92288000D01*
X133049998Y-92288000D01*
X133049999Y-92287999D01*
X133049999Y-91683796D01*
X133047149Y-91653399D01*
X133047149Y-91653397D01*
X133002345Y-91525352D01*
X132921792Y-91416209D01*
X132921790Y-91416207D01*
X132812647Y-91335654D01*
X132684601Y-91290850D01*
X132654211Y-91288000D01*
X132400001Y-91288000D01*
X132400000Y-91288001D01*
X132000000Y-91288001D01*
X131999999Y-91288000D01*
X131745796Y-91288000D01*
X131715399Y-91290850D01*
X131715397Y-91290850D01*
X131587352Y-91335654D01*
X131478209Y-91416207D01*
X131478207Y-91416209D01*
X131397654Y-91525352D01*
X131352850Y-91653398D01*
X131350000Y-91683788D01*
X129240135Y-91683788D01*
X129306405Y-91650022D01*
X129386300Y-91591975D01*
X129433051Y-91558008D01*
X129465646Y-91534326D01*
X129604828Y-91395144D01*
X129720524Y-91235903D01*
X129809884Y-91060523D01*
X129870709Y-90873324D01*
X129891872Y-90739705D01*
X129901500Y-90678918D01*
X129901500Y-90482077D01*
X129870710Y-90287676D01*
X129870709Y-90287672D01*
X129809884Y-90100473D01*
X129720524Y-89925093D01*
X129604828Y-89765852D01*
X129465646Y-89626670D01*
X129465642Y-89626667D01*
X129465640Y-89626665D01*
X129400850Y-89579592D01*
X129364886Y-89530092D01*
X129364887Y-89468907D01*
X129400851Y-89419407D01*
X129459041Y-89400500D01*
X133304699Y-89400500D01*
X133362890Y-89419407D01*
G37*
%TD.AperFunction*%
%TA.AperFunction,Conductor*%
G36*
X136153740Y-90813824D02*
G01*
X136184336Y-90866811D01*
X136186500Y-90887399D01*
X136186500Y-91106274D01*
X136189353Y-91136694D01*
X136189355Y-91136703D01*
X136234207Y-91264883D01*
X136314845Y-91374144D01*
X136314847Y-91374146D01*
X136314850Y-91374150D01*
X136314853Y-91374152D01*
X136314855Y-91374154D01*
X136424116Y-91454792D01*
X136424117Y-91454792D01*
X136424118Y-91454793D01*
X136552301Y-91499646D01*
X136582725Y-91502499D01*
X136582727Y-91502500D01*
X136582734Y-91502500D01*
X137683808Y-91502500D01*
X137693868Y-91505768D01*
X137704390Y-91504663D01*
X137722314Y-91515011D01*
X137741999Y-91521407D01*
X137748217Y-91529965D01*
X137757379Y-91535255D01*
X137765797Y-91554162D01*
X137777963Y-91570907D01*
X137777963Y-91581486D01*
X137782266Y-91591151D01*
X137777963Y-91611395D01*
X137777963Y-91632093D01*
X137769545Y-91650999D01*
X137761837Y-91664350D01*
X137750607Y-91680041D01*
X137742247Y-91689594D01*
X137482153Y-92141349D01*
X137466362Y-92161954D01*
X137424816Y-92203502D01*
X137370300Y-92231281D01*
X137354811Y-92232500D01*
X136097856Y-92232500D01*
X136012713Y-92255314D01*
X136012710Y-92255314D01*
X136008718Y-92256383D01*
X136008715Y-92256384D01*
X135928788Y-92302530D01*
X135928787Y-92302530D01*
X135928787Y-92302531D01*
X135519501Y-92711816D01*
X135464987Y-92739592D01*
X135404555Y-92730021D01*
X135361290Y-92686756D01*
X135350500Y-92641811D01*
X135350500Y-91683727D01*
X135350499Y-91683725D01*
X135350379Y-91682448D01*
X135347646Y-91653301D01*
X135326183Y-91591965D01*
X135322487Y-91578359D01*
X135318488Y-91558003D01*
X135318488Y-91558001D01*
X135219807Y-91318185D01*
X135079158Y-90976377D01*
X135074499Y-90915370D01*
X135106590Y-90863275D01*
X135163173Y-90839992D01*
X135170710Y-90839705D01*
X135903890Y-90839705D01*
X135903892Y-90839705D01*
X136031186Y-90805597D01*
X136037996Y-90801664D01*
X136097844Y-90788941D01*
X136153740Y-90813824D01*
G37*
%TD.AperFunction*%
%TD*%
M02*
